<svg id="a07225dd-3628-4d17-a437-9e42ace2bdf0" data-name="圖層 1" xmlns="http://www.w3.org/2000/svg" width="97" height="37" viewBox="0 0 97 37">
  <defs>
    <style>
      .\31 7f984df-993c-42de-8bf9-8499f8b583b0 {
        fill: none;
        stroke: #ccc;
        stroke-miterlimit: 10;
      }
    </style>
  </defs>
  <title>appositive</title>
  <path class="17f984df-993c-42de-8bf9-8499f8b583b0" d="M.75,3.1v25a2.5,2.5,0,0,0,2.5,2.5H41.33a2.5,2.5,0,0,1,1.92.9l3.33,4a2.5,2.5,0,0,0,3.84,0l3.33-4a2.5,2.5,0,0,1,1.92-.9H93.75a2.5,2.5,0,0,0,2.5-2.5V3.1A2.5,2.5,0,0,0,93.75.6H3.25A2.5,2.5,0,0,0,.75,3.1Z"/>
</svg>
