<svg id="89b29742-7662-40ab-98d4-4e82333d258d" data-name="圖層 1" xmlns="http://www.w3.org/2000/svg" width="300" height="60" viewBox="0 0 300 60">
  <defs>
    <style>
      .\38 e59b9e4-e6f4-4fed-8a42-96d2a889a1ca {
        fill: #fff;
      }
    </style>
  </defs>
  <title>h1-method</title>
  <g>
    <path class="8e59b9e4-e6f4-4fed-8a42-96d2a889a1ca" d="M52.7,53.61H.39V51.27H52.7ZM47.64,9.08H5.87V6.74H47.64Zm-3,21.09H8.82V27.83H44.68Z"/>
    <path class="8e59b9e4-e6f4-4fed-8a42-96d2a889a1ca" d="M89,5.33A25.93,25.93,0,0,0,85.6,6a18.82,18.82,0,0,0-3.37.7V17.05h6.33v2.34H82.23a59.41,59.41,0,0,0,2.74,8,70.42,70.42,0,0,0,4,8l-1.69,2.34a25.76,25.76,0,0,1-3-4,21.12,21.12,0,0,1-2.11-4V59.24H77.59V31.11q-1.69,3.52-3.59,7a80.65,80.65,0,0,1-4.43,7L67.89,43.3a107.4,107.4,0,0,0,5.27-11.72q2.11-5.86,4-12.19H69.57V17.05h8V7.68l-7.17.47a5.52,5.52,0,0,1-.84-1.41,3.75,3.75,0,0,1-.84-1.41q.63-.47,3.8-.7l4.64-.7A38.1,38.1,0,0,1,81.6,2.29a17.08,17.08,0,0,1,4.85-1.17q.63.94,1.27,2.11A6.33,6.33,0,0,1,89,5.33Zm31.64,51.09H85.18V54.08h16.87V48.46H90.25V46.11h11.81V40.49H90.67V19.39h11.39V15.18H88.56V12.83h13.5V8.14l-4.22.94H91.51L89.82,6.27A66.17,66.17,0,0,0,102.69,5.1a92.48,92.48,0,0,0,12.45-4q.63.94,1.48,2.11.63,1.17,1.48,2.58-3,.47-5.7.94-3,.47-5.7.94v5.16h13.08v2.34H106.7v4.22h11.81V40.49H106.7v5.63h11v2.34h-11v5.63h13.92ZM102.06,28.77v-7H94.89v7Zm0,8.91V31.11H94.89v6.56Zm11.81-8.91v-7H106.7v7Zm0,8.91V31.11H106.7v6.56Z"/>
    <path class="8e59b9e4-e6f4-4fed-8a42-96d2a889a1ca" d="M187.7,14.24h-30V26.43h23.63l-.42,10.31a82.87,82.87,0,0,1-.63,12.19q-.63,7.5-4.85,9.38l-5.7.47a33.76,33.76,0,0,0-5.7.47l-.84-2.81,5.06.47,2.11-.47a5.84,5.84,0,0,0,3.38-1.64,11.68,11.68,0,0,0,2.11-3.52,62.94,62.94,0,0,0,.84-11q0-6.33.42-11.48H157.75A103,103,0,0,1,156.06,40a30.79,30.79,0,0,1-3.8,9.84,31.94,31.94,0,0,1-6.33,5.63q-4.22,2.58-7.59,4.22l-1.69-1.41a67,67,0,0,0,8.44-6.56A22,22,0,0,0,151,42.83a19.06,19.06,0,0,1,.63-3,19.06,19.06,0,0,1,.63-3l.42-2.81.42-2.81V14.24h-17.3V11.89h23.63V4.39A7.87,7.87,0,0,1,159,2.75a5.84,5.84,0,0,1-.42-1.64q0-.7.42-.7a.82.82,0,0,1,.84,0H162a11.14,11.14,0,0,1,2.11.7v.94a8.51,8.51,0,0,0-.21,1.88,6.73,6.73,0,0,0-.21,1.88v6.09h24Z"/>
    <path class="8e59b9e4-e6f4-4fed-8a42-96d2a889a1ca" d="M215.54,24.55l-3,4.69q-2.32-2.11-4.64-4.45a44.9,44.9,0,0,1-4.64-4.45l1.27-1.87q2.74,1.41,5.48,3Zm1.69,10.31-7.59,22a1.69,1.69,0,0,1-.42,1.17,1.39,1.39,0,0,1-.84.7,6.61,6.61,0,0,1-2.32-1.64q-1.69-1.17-2.32-1.64,3.16-5.39,6.12-11T215.54,33ZM218.5,7.68l-3,4.22a56.33,56.33,0,0,0-4.43-4Q208.79,6,206.68,4.39l1.27-2.81a60.16,60.16,0,0,1,5.27,3A60.16,60.16,0,0,1,218.5,7.68ZM255.2,55,251,58.77l-3.37-8q-6.33.94-12.45,2.34-6.33,1.41-12.45,2.34a12.11,12.11,0,0,0-3.37,1.17q-1.9.94-2.53,1.17-1.05-.23-1.69-2.11a22.5,22.5,0,0,1-.84-3h6.33q3-5.39,5.7-10.78,2.53-5.39,4.85-10.78H216V28.77h16.88V15.18H218.5V12.83h14.34v-8l-.42-1.41A2.71,2.71,0,0,1,232,2.05l.42-.94a6.89,6.89,0,0,1,2.53,0,6.2,6.2,0,0,1,2.53.47l.42,1.88a4.87,4.87,0,0,0-.21,1.41,4.87,4.87,0,0,0-.21,1.41v6.56h15.19v2.34H237.48V28.77h16.88v2.34H236.64q-3,5.16-5.91,10.55-3,5.16-5.91,10.55l21.52-3.75q-1.69-2.58-3.37-5.39a42,42,0,0,1-3.37-5.39l2.11-1.87q3.38,4.45,6.75,9.38Q251.82,49.86,255.2,55Z"/>
    <path class="8e59b9e4-e6f4-4fed-8a42-96d2a889a1ca" d="M297.81,31.58q-4.43,0-4.22-3t3.8-3q2.74.23,2.11,4.45a11.8,11.8,0,0,1-5.06,7.27l-.84-1.41A8.41,8.41,0,0,0,297.81,31.58Z"/>
  </g>
</svg>
