<svg id="0eb61040-2399-4470-a518-4f2ff7c1bd62" data-name="圖層 1" xmlns="http://www.w3.org/2000/svg" width="320" height="60" viewBox="0 0 320 60">
  <defs>
    <style>
      .\31 13c5b97-9ea1-4acb-aa21-485c5d16d7f7 {
        fill: #fff;
      }
    </style>
  </defs>
  <title>h1-support</title>
  <g>
    <path class="113c5b97-9ea1-4acb-aa21-485c5d16d7f7" d="M52.84,56.84,52,59.18a63.23,63.23,0,0,1-13.08-3.75q-6.33-2.34-12.23-5.16A76.25,76.25,0,0,1,14,55.66q-6.54,2.11-13.5,4L.11,56.84a77.79,77.79,0,0,0,11.6-3.75,85.63,85.63,0,0,0,11.6-5.16,57.78,57.78,0,0,1-6.54-9.37q-3-4.92-5.27-9.84H5.59V26.37H24.16V14.18H.11V11.84h24v-8l-.42-1.41a2.71,2.71,0,0,1-.42-1.41.76.76,0,0,1,.42-.7h.84l4.64.7V2A7.6,7.6,0,0,0,29,3.63a7.6,7.6,0,0,0-.21,1.64v6.56H52.42v2.34H28.8V26.37H43.56a68.37,68.37,0,0,1-5.91,11.25,81.09,81.09,0,0,1-7.59,9.84,60.49,60.49,0,0,0,11,5.39Q46.73,55,52.84,56.84ZM37.23,28.71H17a38,38,0,0,0,4,8.44,39.6,39.6,0,0,0,5.7,7.5,93.76,93.76,0,0,0,5.48-7.73Q34.7,32.93,37.23,28.71Z"/>
    <path class="113c5b97-9ea1-4acb-aa21-485c5d16d7f7" d="M87.44,31.05,81.11,34.8V54a6.37,6.37,0,0,1-1.27,3,12.11,12.11,0,0,1-2.53,2.11H70.56l-.84-3.28,2.11.47,2.11.47a4.46,4.46,0,0,0,1.48-.7A4,4,0,0,0,76.47,55V37.62L72.25,40a1.39,1.39,0,0,0-.84.7q0,.47-.84.7a5.75,5.75,0,0,1-1.48-1.87A12.6,12.6,0,0,1,68,37.62l.42-.94,8-3.28V17.46H69.3V15.12h7.17V4.34Q76.26,3.4,76,2.7q-.21-.94-.42-1.64a1.17,1.17,0,0,1,.84-.47.82.82,0,0,1,.84,0,4.93,4.93,0,0,1,2.53.23,1.82,1.82,0,0,1,1.69,1.64,4.87,4.87,0,0,0-.21,1.41,4.87,4.87,0,0,0-.21,1.41v9.84h6.33v2.34H81.11V31.05l6.33-3.28ZM119.5,25.9H87.44V23.55h13.08V12.3H90.39V10.43h10.13V3.87a14.12,14.12,0,0,1-.84-2.81l.42-.47h1.27a4.93,4.93,0,0,1,2.53.23,1.82,1.82,0,0,1,1.69,1.64q-.21.7-.42,1.64a3.13,3.13,0,0,0-.42,1.64v4.69H117V12.3H104.73V23.55H119.5Zm0,11.25h-8v15a6.78,6.78,0,0,1-1.05,3.75,6.35,6.35,0,0,1-2.74,2.34h-7.59L99.25,55a15.31,15.31,0,0,1,2.53.7,15.31,15.31,0,0,0,2.53.7,3.65,3.65,0,0,0,2.11-1.17,8.45,8.45,0,0,0,.84-2.11V37.15H87.44V35.27h19.83V31.05a8.8,8.8,0,0,1-.84-2.34.76.76,0,0,1,.42-.7,1.72,1.72,0,0,1,.84-.23l4.22.47v1.88A8.52,8.52,0,0,0,111.7,32a6.73,6.73,0,0,0-.21,1.88v1.41h8ZM99.25,50.27,95,54.49a30.62,30.62,0,0,0-2.53-5.86Q91,45.82,89.13,42.77l2.11-1.41a18.62,18.62,0,0,1,4.22,4.22Z"/>
    <path class="113c5b97-9ea1-4acb-aa21-485c5d16d7f7" d="M161.27,48.87,157,53.09a32.05,32.05,0,0,0-2.74-3.52,26.83,26.83,0,0,0-2.74-3,42.41,42.41,0,0,1-6.33,7.27q-3.59,3-7.59,5.86L136,57.3q3.59-3,6.75-6.33a86.75,86.75,0,0,0,5.48-7.27,32.07,32.07,0,0,0-5.48-3q-2.74-1.41-5.48-2.58a3.36,3.36,0,0,0-.84-.7.76.76,0,0,1-.42-.7,24.87,24.87,0,0,1,1.48-5.16,55.4,55.4,0,0,1,1.9-5.62q.84-2.58,1.48-4.92.84-2.58,1.48-4.92h-6.75V13.24h7.17L144,7.62,145.23,2l-.42-.94.42-.7h.84l4.64.23.42.47-2.53,12.19h9.7q-.42,7.27-1.48,14.53Q155.57,35,154.09,42.3a35.16,35.16,0,0,1,3.59,3A40.06,40.06,0,0,1,161.27,48.87Zm-8-32.81h-5.06q-1.05,2.58-3.16,10.08-2.11,7.27-2.32,8.67.21.7,3,2.11T149.88,39q1.48-5.86,2.32-11.48Q152.83,21.68,153.25,16.05Zm34.17,14.53h-11v22.5a5.68,5.68,0,0,1-1.69,3.75,8.12,8.12,0,0,1-3.8,1.41h-8L162.11,55q1.48.23,3.38.47l3.38.47a3.53,3.53,0,0,0,1.9-.7,3.25,3.25,0,0,0,1.05-2.11V30.59h-13.5V28.24h13.5V17h3.38l6.33-10.78H158.73V3.4h27a1.36,1.36,0,0,1,1.05.47,3.1,3.1,0,0,1,.63,1.41L187,7.62,176.45,20.74v7.5h11Z"/>
    <path class="113c5b97-9ea1-4acb-aa21-485c5d16d7f7" d="M230.88,26.37H203.45V24h27.42ZM230,37.15h-8.86a28.85,28.85,0,0,0,3.38,4q1.69,2.11,3.38,4l-1.27,2.34a17.66,17.66,0,0,1-4-3.28,26,26,0,0,1-3.16-3.75V59.18h-4.22V42.3q-2.32,3-4.85,5.86t-5.27,5.39l-1.69-2.34q2.74-3.28,5.27-6.8,2.32-3.52,4.43-7.27h-8.44V34.34h10.55V31.52l-.84-2.34v-.47l1.69-.47a8.84,8.84,0,0,1,1.9.23,8.84,8.84,0,0,1,1.9.23v1.41a7.6,7.6,0,0,0-.21,1.64,7.6,7.6,0,0,0-.21,1.64v.94H230Zm0-25.78h-4.64q.63.23,2.11.94a2.67,2.67,0,0,1,1.69,1.88q-.42.7-3.37,4.22a45.19,45.19,0,0,0-3.37,4.69l-3-1.41a32,32,0,0,1,2.32-4.92,17.11,17.11,0,0,0,1.9-4.92v-.47H205.14V9h10.13V4.34L214.42,2V1.52l1.69-.47,3.8.47V3.4a9.64,9.64,0,0,0-.21,2.11,9.64,9.64,0,0,0-.21,2.11V9H230ZM215.69,21.68,211,23.55a35.09,35.09,0,0,0-2.11-5.39,54.47,54.47,0,0,1-2.11-5.39l2.11-.94q1.69,2.11,3.38,4.45Q214,18.87,215.69,21.68ZM254.08,5.74a2.76,2.76,0,0,0-.42.7,2.76,2.76,0,0,0-.42.7q-4.22,0-8.23.23-4.22.23-8.23.7V22.15h17.3v2.34h-6.75V58.71h-4.22V24.49h-6.33v3.28a62.69,62.69,0,0,1-1.9,16.64,45.34,45.34,0,0,1-7.38,14.3l-2.11-2.34a35.44,35.44,0,0,0,2.32-4,33.47,33.47,0,0,0,1.9-4l1.27-4.92q1.05-3.28,1.27-4V5.27a67.18,67.18,0,0,0,7.8-.47,53.39,53.39,0,0,0,7.8-1.87A13.36,13.36,0,0,0,249.23,2a3.14,3.14,0,0,1,1.48-.47q1.27,0,2.11,1.64T254.08,5.74Z"/>
    <path class="113c5b97-9ea1-4acb-aa21-485c5d16d7f7" d="M294.16,20.74H277.7v37h-4.64V2h21.09Zm-4.22-10.31V4.34H277.7v6.09Zm0,8V12.77H277.7V18.4Zm21.94,8.44h-4.22V56.37H303V47.46q-4,.7-10.55,1.64a50.85,50.85,0,0,0-9.7,2.11,7.73,7.73,0,0,1-1.05.47,7.73,7.73,0,0,1-1.05.47q-.63-.23-1.05-1.64L279,48.4v-.47a7.27,7.27,0,0,1,3.16-.7A23.07,23.07,0,0,0,285.3,47V26.84h-3.8V24.49h30.38ZM303,31.05V26.84H289.94v4.22Zm0,7V33.87H289.94v4.22Zm0,6.09V40.9H289.94v5.63Zm16.88,7q-.42,4.92-3.8,5.39t-6.75.7L308.5,54a6.73,6.73,0,0,1,2.32.47q1.05.23,2.32.47a3.31,3.31,0,0,0,1.27-.94,3.75,3.75,0,0,0,.84-1.41V20.74h-16V2h20.67Zm-4.64-40.78V4.34H303.86v6.09Zm0,8V12.77H303.86V18.4Z"/>
  </g>
</svg>
