<svg id="5ef2dffe-22ef-4500-873d-11a27e3d84b0" data-name="圖層 1" xmlns="http://www.w3.org/2000/svg" width="356" height="36" viewBox="0 0 356 36">
  <defs>
    <style>
      .\37 62e9e57-dcfb-47fc-9cb8-bfc640156614 {
        fill: #c80c18;
      }
    </style>
  </defs>
  <title>h2-dare</title>
  <g>
    <path class="762e9e57-dcfb-47fc-9cb8-bfc640156614" d="M12.41,8.18H0V6.77H12.41Zm-.76-5.06H.76V1.43H11.65Zm0,10.41H1.27V12.12H11.65Zm-.25,4.78H1.27V16.9H11.39Zm-.51,14.63H3.8v1.41H1.27V22.52h9.62ZM8.1,31.52V23.93H3.8v7.59Zm21.77-1.41a8.67,8.67,0,0,1-.51,2.25,4.81,4.81,0,0,1-1.27,1.41H22l-.51-1.69,1.9.28,1.9.28a6.15,6.15,0,0,0,1.27-.56,2.28,2.28,0,0,0,.76-1.41V15.49H16.2v7.59a16.88,16.88,0,0,1-1.52,5.63q-1.27,3.23-2.28,5.63a2.38,2.38,0,0,1-.63-.7,2.38,2.38,0,0,1-.63-.7q.76-2.39,1.64-5.62a32.59,32.59,0,0,0,.89-5.62V1.43h16.2Zm-2.53-16v-11H16.2v11H20V9.59H17V8.18h3.29Q20.13,7.05,20,6.35t-.25-1.83L20,4.24h.76a5.31,5.31,0,0,1,1.14.14A5.3,5.3,0,0,1,23,4.52l.25.84a4.53,4.53,0,0,0-.13,1,4.59,4.59,0,0,0-.13,1v.84h3.29V9.59H23v4.5Zm-1.52,13.5H17.47V18.87h8.36ZM23,26.18V20.27H20.25v5.91Z"/>
    <path class="762e9e57-dcfb-47fc-9cb8-bfc640156614" d="M71.39,18l-1,1.41a31,31,0,0,1-7.6-4.36A28.55,28.55,0,0,1,56.7,8.46V18h8.61V32.65H62.78V31H48.35v1.69H45.82V18h8.36V8.74a33.18,33.18,0,0,1-6.33,6.19,51.35,51.35,0,0,1-7.59,4.5L39.74,18a33.93,33.93,0,0,0,6.84-4.64,26.09,26.09,0,0,0,5.32-6.61H40V5.37H54.17V4.52A9.62,9.62,0,0,0,54,2.84a5.43,5.43,0,0,0-.38-1.41l.25-.28h.51a5.82,5.82,0,0,1,1.27.14A5.82,5.82,0,0,1,57,1.43l.25.56L57,3.4A4.12,4.12,0,0,0,56.7,4.8v.56H70.88V6.77H58.73a19.35,19.35,0,0,0,5.57,6.61A67.2,67.2,0,0,0,71.39,18ZM70.63,34.9H40V33.49H70.63Zm-7.85-11V19.15H48.35v4.78Zm0,5.63V25.34H48.35v4.22Z"/>
    <path class="762e9e57-dcfb-47fc-9cb8-bfc640156614" d="M95.68,13H81V11.55h6.08V6.49H81.76V4.8h5.32V3.12A10.67,10.67,0,0,0,86.82,2a2.31,2.31,0,0,1-.25-.84A.61.61,0,0,1,86.7.73a.48.48,0,0,1,.38-.14l2.79.28v.84A5.81,5.81,0,0,0,89.73,3a5.81,5.81,0,0,0-.13,1.27V4.8h5.57V6.49H89.61v5.06h6.08Zm0,8.72H89.36V27h5.82v1.41H89.36v7H86.57v-7H81V27h5.57V21.68H81V20h3.29a16.61,16.61,0,0,0-.76-3q-.51-1.41-1-2.67l1.27-.84A16.34,16.34,0,0,1,85.3,16.2q.76,1.27,1.52,2.67L85.05,20H95.68Zm-.76-6.75a17.91,17.91,0,0,1-1.77,2.67,17.23,17.23,0,0,1-2,2.39l-1-.84,1-2.81a18.88,18.88,0,0,1,1-2.81Zm16.2,18.56-.76,1.41a23,23,0,0,1-2.79-2.11q-1.27-1.12-2.28-2.11l-2.28,2-2.28,2-1.27-.84v1.69H96.7V2.27h13.17a36,36,0,0,1-.89,8.3q-.76,2.67-6.2,3L102,11.84l2,.28q2.41-.28,2.66-3.23t.38-5.2h-7.6V16.34h10.63q-.76,3.09-1.65,6.19a59.92,59.92,0,0,1-2.15,6.19,15.44,15.44,0,0,0,2.28,2.53Q109.74,32.37,111.13,33.49Zm-4.05-15.75h-7.6V33.21a27,27,0,0,0,2.4-2.11A27.43,27.43,0,0,0,104,28.71q-.76-1.41-2.15-3.94a14,14,0,0,1-1.39-3.94c0-.19,0-.28.13-.28a.43.43,0,0,1,.13-.28,1.66,1.66,0,0,1,.89-.42,4.83,4.83,0,0,1,.88-.14A.71.71,0,0,1,103,20a3.34,3.34,0,0,1,.51.84q.25,1.27.63,2.67a14.36,14.36,0,0,0,1.14,2.67,30.32,30.32,0,0,0,1-4.22Z"/>
    <path class="762e9e57-dcfb-47fc-9cb8-bfc640156614" d="M151.88,23.65l-.51,1.69H145.3v2.25h6.33V29H145.3v1.13q0,3.8-1.77,4.5a12.28,12.28,0,0,1-4.81.56l-.51-2,3.29.56a1.24,1.24,0,0,0,.63-.84,3.74,3.74,0,0,1,.38-.84V29H130.36l1.77,2,1.77,2-2,2.25a29.57,29.57,0,0,0-1.77-2.53,23.55,23.55,0,0,0-1.77-2.25,1.82,1.82,0,0,0,.38-.7,7,7,0,0,1,.38-.7h-7.85V27.59h21.27V25.34h-8.36a7.83,7.83,0,0,1-3.16-1,15.75,15.75,0,0,1-2.66-1.83q-1.39,1-2.66,2a10.4,10.4,0,0,0-2.15,2.25,2.7,2.7,0,0,1-1.27-1,7.48,7.48,0,0,1-.76-1.27l5.82-3.37V13.8h-5.57V12.12h8.1v7.59a5,5,0,0,0,2.28,2.81,9.55,9.55,0,0,0,3.54,1.13ZM127.32,10.43,125,12.12a18,18,0,0,0-1.27-3q-.76-1.41-1.52-2.67l1.27-1.12q.89,1.27,1.9,2.53T127.32,10.43Zm2.53-3.94-2.28,2.25-4.05-6.47L124.79.87Zm21.27.56h-9.87l-1.52,2.53h9.62V21.12H132.13V9.59h4.56l.76-1.41a9.7,9.7,0,0,1,.76-1.41h-7.85V5.37h6.33a13.24,13.24,0,0,0-1-1.69,9.18,9.18,0,0,0-1-1.41L136.18.87a13.62,13.62,0,0,1,1.52,1.69,18.1,18.1,0,0,1,1.52,2l-.76.84h3a12.73,12.73,0,0,0,1.27-2,11,11,0,0,0,1-2L144,.87a.5.5,0,0,1,.51-.28q.25,0,1,.7t1.27,1v.56a7.74,7.74,0,0,0-1.39,1,10,10,0,0,0-1.14,1.55h6.84ZM146.56,13V11H134.92v2Zm0,3.66V14.37H134.92v2.25Zm0,3.09V18H134.92v1.69Z"/>
    <path class="762e9e57-dcfb-47fc-9cb8-bfc640156614" d="M177.7,18.87q-2.66,0-2.53-1.83t2.28-1.83q1.65.14,1.27,2.67a7.08,7.08,0,0,1-3,4.36l-.51-.84A5,5,0,0,0,177.7,18.87Z"/>
    <path class="762e9e57-dcfb-47fc-9cb8-bfc640156614" d="M232.63,6.77H218.7V9.59h8.36V28.71h-18V9.59h6.84V6.77H202.25V5.09h13.67V2.55a10.88,10.88,0,0,1-.25-1.12A5,5,0,0,1,215.41.3h1.27a2.09,2.09,0,0,1,1.27.14q.76.14,1,1.27a3.34,3.34,0,0,0-.38,1.13,8,8,0,0,0-.13,1.41l.25.84h13.92Zm.25,26.16H206.55v2.53h-2.79V13.24l-.25-1.69q-.13-.14,0-.14c0-.09.08-.14.25-.14l2.79.28.25.84a1.87,1.87,0,0,0-.25,1,3.2,3.2,0,0,0,0,1.27V31.8h26.33Zm-8.36-17.44V11H211.87v4.5Zm0,5.91V16.9H211.87v4.5Zm0,5.63V22.8H211.87V27Z"/>
    <path class="762e9e57-dcfb-47fc-9cb8-bfc640156614" d="M273.13,3.4H259.71l-3.8,6.47h15.95V33.77h-2.79V32.37H247.3v1.41h-2.79V9.87h8.61a22.12,22.12,0,0,0,1.52-3.23q.63-1.55,1.27-3.23H242.75V2h30.38ZM251.86,31V11.27H247.3V31Zm9.87-14.34V11.27h-7.09v5.34Zm0,6.47V18h-7.09v5.06ZM262,31V24.77h-7.34V31Zm7.09,0V11.27h-4.56V31Z"/>
    <path class="762e9e57-dcfb-47fc-9cb8-bfc640156614" d="M313.12,28.71h-7.85a18.78,18.78,0,0,0,3.54,3.09q1.9,1.27,4.05,2.53l-.76,1.41q-2.66-1.12-5.19-2.39t-4.68-3L304,28.71h-9.62q.25.14,1,.7t1,1a1.68,1.68,0,0,0-.25.42,1.66,1.66,0,0,0-.25.42,6.77,6.77,0,0,0-2.91,1q-1.39.84-2.66,1.55a19,19,0,0,1-2.41,1,19,19,0,0,1-2.41,1l-1-1.41q2.41-1.12,4.56-2.39a43,43,0,0,0,4.3-3.23h-8.86V13.52a1.8,1.8,0,0,1-.38-.7,4.73,4.73,0,0,1-.13-.7l.76-.28,2.79.28v.56a2.94,2.94,0,0,0-.13.84,2.94,2.94,0,0,0-.13.84V27.3h25.82Zm-1-23.06a16.44,16.44,0,0,1-1.77,3,4,4,0,0,1-2.53,1.83H289.58a4.23,4.23,0,0,1-2.28-1,2.64,2.64,0,0,1-1-2.11,4,4,0,0,1,.13-1.12,5.07,5.07,0,0,1,.13-1.12,11.48,11.48,0,0,0-.38-1.83,18.36,18.36,0,0,1-.38-1.83.61.61,0,0,1,.13-.42,1.29,1.29,0,0,1,.63-.14,5.31,5.31,0,0,1,1.14.14,2.32,2.32,0,0,0,1.39.14V2a2.9,2.9,0,0,0-.13.84,2.94,2.94,0,0,0-.13.84v.56A54.49,54.49,0,0,0,297.42,3q4.31-.84,8.61-2.11A8,8,0,0,0,306.92,2a2.09,2.09,0,0,1,.89,1.13v.56h-.25a25.69,25.69,0,0,0-4.68.42q-2.41.42-4.68,1l-4.68.28-4.68.28v2a2.26,2.26,0,0,0,.51.84,1.24,1.24,0,0,0,.76.56h16.71a9.1,9.1,0,0,0,1.77-2.39,23.29,23.29,0,0,1,1.27-2.39Zm-3.8,19.41H290.08V12.12h18.23Zm-2.53-9V13.52H292.87v2.53Zm0,3.66V17.46H292.87v2.25Zm0,3.66V21.12H292.87v2.25Z"/>
    <path class="762e9e57-dcfb-47fc-9cb8-bfc640156614" d="M337.42,20.84,336.15,22a12.93,12.93,0,0,1-1.77-2.81,14.41,14.41,0,0,0-1.52-2.81V35.46h-2.79V17.18a39.49,39.49,0,0,1-2,4.78,35,35,0,0,1-2.79,4.22L324,25.34q1.77-3.52,3.29-7.17t2.53-7.45h-5.06V9.3h5.32V2.55a2.94,2.94,0,0,1-.13-.84,2.94,2.94,0,0,1-.13-.84.62.62,0,0,1,.13-.42.48.48,0,0,1,.38-.14A7.84,7.84,0,0,0,332,.45a1.15,1.15,0,0,1,1.14,1A5.13,5.13,0,0,0,333,2.55a5.13,5.13,0,0,0-.12,1.13V9.3h4.56v1.41h-4.3a52.75,52.75,0,0,0,1.77,5.2A52.67,52.67,0,0,0,337.42,20.84Zm16.71,14.63h-2.79V33.21H341.21v2.25h-2.79V2h15.7Zm-2.79-23.91V3.4H341.21v8.16Zm0,10.13V13H341.21v8.72Zm0,10.41v-9H341.21v9Z"/>
  </g>
</svg>
