<svg id="38f93ec9-1c53-4afb-8680-6e52c1e8e33c" data-name="圖層 1" xmlns="http://www.w3.org/2000/svg" width="356" height="36" viewBox="0 0 356 36">
  <defs>
    <style>
      .af9d73b6-0488-4efa-b5e5-f7435d0c6477 {
        fill: #c80c18;
      }
    </style>
  </defs>
  <title>h2-depth</title>
  <g>
    <path class="af9d73b6-0488-4efa-b5e5-f7435d0c6477" d="M31.69,33l-.25,1.69H10.93A8,8,0,0,1,9.41,34q-1.14-.56-1.52-.7-.76-.7-1.39-1.41a16.53,16.53,0,0,1-1.14-1.41L2.57,34.1a9,9,0,0,1-.76,1,1.55,1.55,0,0,1-.76.42,1,1,0,0,1-.89-1A3.32,3.32,0,0,1,0,33l4.05-3.66v-11H0V16.95H6.88V28.76a7.43,7.43,0,0,0,.76,1.69,4,4,0,0,0,1.52,1.41,14.67,14.67,0,0,1,1.77.56A9,9,0,0,0,12.7,33ZM7.64,8.79,4.85,11a36.06,36.06,0,0,0-2.28-4.5Q1.43,4.29.3,2.32L1.56,1.2q1.52,1.69,3,3.52T7.64,8.79ZM28.4,29.88H10.68V5.41h3.8L15.23,4A9.61,9.61,0,0,1,16,2.6a2.3,2.3,0,0,1,.13-1.41q.13-.56.89-.56A2.64,2.64,0,0,1,18.4.77q1,.28,1.14,1-.63.84-1.27,1.83A8.64,8.64,0,0,0,17,5.41h9.87v9.84H13.46v3.66H28.4Zm-4.3-16.31V7.1H13.46v6.47Zm1.77,15.19V20.32H13.46v8.44Z"/>
    <path class="af9d73b6-0488-4efa-b5e5-f7435d0c6477" d="M53.71,23.13q-2.78,1.83-5.57,3.8a34.4,34.4,0,0,0-5.06,4.36,2,2,0,0,0-.51.42,2,2,0,0,1-.51.42l-.25-.28q-.25-.42-.76-1.12a3,3,0,0,1-.51-1.12V29l6.58-3.94q3.29-2.11,6.58-3.94Zm18.48,8.44-1.52,1.69a29.34,29.34,0,0,1-7.21-5.62Q61.18,25,57.76,20V33a4.69,4.69,0,0,1-.51,1.55A5.8,5.8,0,0,1,56,35.79h-3.8l-.25-.28H50.16l-.51-1.69,1.77.28q.76.14,1.77.28a2.71,2.71,0,0,0,1.27-.56A3.39,3.39,0,0,0,55,32.41V9.07H40.8V7.66H55V2.6a4.53,4.53,0,0,1-.13-1,4.59,4.59,0,0,1-.13-1L55,.35h1a2.32,2.32,0,0,1,1.39.14Q57.88.77,58,2l-.25,1.13v4.5H71.94V9.07H58.26a32.25,32.25,0,0,0,.89,4.64,30,30,0,0,0,1.65,4.64,14.88,14.88,0,0,0,2.79-2.11,25,25,0,0,0,2.53-2.67.62.62,0,0,1,.13-.42.88.88,0,0,1,.38-.42l.76-.28a3.14,3.14,0,0,1,1.27,1A3.79,3.79,0,0,1,69.4,15a2,2,0,0,0-.51.42.83.83,0,0,0-.51.42,24.26,24.26,0,0,0-3.29,2.39q-1.77,1.27-3.29,2.39a28,28,0,0,0,4.56,6A33.74,33.74,0,0,0,72.19,31.57ZM51.43,16.38,49.15,19.2Q47.76,17.51,46.24,16t-2.91-3l1.52-1.69,3.29,2.53ZM67.88,5.13q-.13.14-1,1a4.25,4.25,0,0,0-1,1.27q-1.27-1.55-2.53-2.81L60.8,2,62.32.63q.76.42,3,2A7.21,7.21,0,0,1,67.88,5.13Z"/>
    <path class="af9d73b6-0488-4efa-b5e5-f7435d0c6477" d="M112.94,32.7l-.76,1.41H92.94A7.7,7.7,0,0,1,89.4,32.7a16,16,0,0,1-3-2.53q-1,1.27-2,2.67t-2,3l-1.39-2.25a9.26,9.26,0,0,1,2-2.53,18.64,18.64,0,0,1,2.41-2.25V18.07H81.3V16.66h6.83v9a8.32,8.32,0,0,0,.38,3.23,5,5,0,0,0,1.9,2.39,28.61,28.61,0,0,0,2.78.84A17.88,17.88,0,0,0,96,32.7ZM88.13,8.51,85.6,11A46.2,46.2,0,0,0,83.32,6.4Q82.18,4.15,81,2a5.24,5.24,0,0,1,.76-.7,3.08,3.08,0,0,1,.76-.42Q84,2.6,85.35,4.57Zm24.56-2.25H102.31V9.91h7.85v8.44h-6.33a30.33,30.33,0,0,0,3.54,5.2,28.69,28.69,0,0,0,4.3,4.36l-1.27,1.41A40.27,40.27,0,0,1,106,25.1a38.54,38.54,0,0,1-3.67-4.78V31H99.52V20.6q-1.9,2.39-4.05,4.64t-4.56,4.08L89.65,28.2a54.27,54.27,0,0,0,4.56-4.5A58.2,58.2,0,0,0,98,18.35H91.93V9.91h7.6V6.26H89.4V4.85H99.52V2A3.67,3.67,0,0,0,99,.63l.25-.28L100,.21h1.27a5.83,5.83,0,0,1,1.27.14V1.48a5.08,5.08,0,0,0-.13,1.13A6.57,6.57,0,0,0,102.31,4v.84h10.38ZM99.52,16.95V11.32H94.71v5.63Zm7.85,0V11.32h-5.06v5.63Z"/>
    <path class="af9d73b6-0488-4efa-b5e5-f7435d0c6477" d="M152.94,33.82l-.51,1.41q-2.91-.56-5.82-1.41A50.77,50.77,0,0,1,141,31.57,54.34,54.34,0,0,1,135,34q-2.91.84-6.08,1.55l-.76-1.41q2.79-.7,5.19-1.55a49.51,49.51,0,0,0,5.19-2.39,21.06,21.06,0,0,1-3.17-3.09,43.13,43.13,0,0,1-2.66-3.94h-4.3q-1,3.23-2.28,6.33t-3,5.77l-1.52-.56a37.44,37.44,0,0,0,3.92-14.34q.25-7,.13-15.47H137V2.32L136.73.91V.63L137,.35a5.51,5.51,0,0,1,1.77,0A1.26,1.26,0,0,1,140,1.48a5.81,5.81,0,0,0-.13,1.27,8.7,8.7,0,0,0-.13,1.55v.56h13.17V6.54H128.38v5.34h4.56q-.13-1.12-.25-2t-.25-1.69l.25-.56h1a2.45,2.45,0,0,1,1.39.14q.76.14.89,1.27a5.81,5.81,0,0,0-.13,1.27,5.75,5.75,0,0,0-.13,1.27v.28h7.34q-.13-1.12-.25-2.11t-.25-2.11h1l2.28.28.25.84-.25,1.13a2.72,2.72,0,0,0-.25,1.13l.25.84h5.57v1.41h-5.57v5.63H132.93V13.29h-4.56V22h21.27a53.64,53.64,0,0,1-3.42,4.22q-1.9,2-3.92,3.94,2.66,1.13,5.32,2.11T152.94,33.82Zm-9.87-16.31V13.29h-7.34v4.22Zm2,5.63H136a16.09,16.09,0,0,0,1.77,3.23A24.26,24.26,0,0,0,140.28,29a26.33,26.33,0,0,0,2.66-2.81A26.91,26.91,0,0,0,145.09,23.13Z"/>
    <path class="af9d73b6-0488-4efa-b5e5-f7435d0c6477" d="M178.5,18.91q-2.66,0-2.53-1.83t2.28-1.83q1.65.14,1.27,2.67a7.07,7.07,0,0,1-3,4.36l-.51-.84A5,5,0,0,0,178.5,18.91Z"/>
    <path class="af9d73b6-0488-4efa-b5e5-f7435d0c6477" d="M234.19,32.7l-1.27,1.41h-3.29a33.44,33.44,0,0,1-7.22-.7,29.1,29.1,0,0,1-7-2.67,28.34,28.34,0,0,1-6.2,2.81,37.92,37.92,0,0,1-6.46,1.41l-.25-1.69A28.33,28.33,0,0,0,208,31.57,58.51,58.51,0,0,0,213.43,29q-.89-.84-2.66-2.81a9.14,9.14,0,0,1-1.9-2.81q0-.56.89-1.12a4.25,4.25,0,0,1,1.14-.84h-5.57V6.82H217V2.6H202.54V.91h31.39V2.6H219.5V6.82h11.65V21.45H219.5a28.13,28.13,0,0,1-.76,3.66,31.46,31.46,0,0,1-1.27,3.66A28.25,28.25,0,0,0,222,31.15a35.12,35.12,0,0,0,4.81,1.55ZM217,13.29V8.23h-8.86v5.06ZM217,20V14.7h-8.86V20Zm-.25,1.41h-4.81a18,18,0,0,0,1.27,3,19.71,19.71,0,0,0,2,2.67q.63-1.55,1-2.81Zm11.65-8.16V8.23H219.5v5.06Zm0,6.75V14.7H219.5V20Z"/>
    <path class="af9d73b6-0488-4efa-b5e5-f7435d0c6477" d="M274.18,7.95H257.47a20,20,0,0,0-1.14,2.39A15,15,0,0,0,255.19,13h14.43V31.85a4.48,4.48,0,0,1-.89,2.39,3.61,3.61,0,0,1-2.15,1h-5.06l-.76-2,2.15.28,2.15.28h1a2.19,2.19,0,0,1,.38-.56.9.9,0,0,1,.38-.56V27.07h-11.9v8.44h-2.79V18.07q-1.9,1.83-3.8,3.52a45.88,45.88,0,0,1-3.8,3.23l-1-1.69,4.05-3.94A42.84,42.84,0,0,0,251.4,15a18.36,18.36,0,0,0,1.52-3.52q.63-1.83,1.27-3.52H243.8V6.54h11.14a21.55,21.55,0,0,1,.51-2.67A21.76,21.76,0,0,0,256,1.2a.65.65,0,0,1,0-.56.5.5,0,0,1,.51-.28,7.85,7.85,0,0,1,1.65.28,2.12,2.12,0,0,1,1.39,1.13q-.13.42-.76,2.25T258,6.54h16.2ZM266.84,19.2V14.41h-11.9V19.2Zm0,6.47V20.6h-11.9v5.06Z"/>
    <path class="af9d73b6-0488-4efa-b5e5-f7435d0c6477" d="M290.38,15l-1.27,3.09q-1.39-1.27-2.78-2.39t-2.79-2.11l.51-1.41a18.37,18.37,0,0,1,3.17,1.13A20.91,20.91,0,0,1,290.38,15Zm.76,6.19Q290,24.4,289,27.63t-2.15,6.47a2,2,0,0,0-.51.42,2,2,0,0,1-.51.42,3.79,3.79,0,0,1-1.14-1q-.76-.7-1.14-1,1.65-3.09,3.17-6.33T289.37,20Zm.51-17.44-2,2.81a17.22,17.22,0,0,0-2.41-2.67,27.13,27.13,0,0,0-2.41-2.11l1-1.41a26.33,26.33,0,0,1,2.91,1.41Q290.12,2.6,291.64,3.73Zm23.54,27.56-1,1.41a27.26,27.26,0,0,1-5.32-3.8,31.52,31.52,0,0,1-4.56-4.64V35.79h-2.78V24.26a64.84,64.84,0,0,1-4.81,5.06,61,61,0,0,1-5.32,4.22l-.76-1.41a32.39,32.39,0,0,0,5.32-5.2q2.41-3,4.56-6h-9.11V19.48h10.13V16.66a5.81,5.81,0,0,1-.25-.7,1,1,0,0,1-.25-.7q0-.28.38-.42a1.9,1.9,0,0,1,.63-.14,3.37,3.37,0,0,1,1.65.14q.76.14.89,1.27a7.87,7.87,0,0,0-.13,1.41,8,8,0,0,0-.13,1.41v.56h9.87v1.41h-9.37a29.58,29.58,0,0,0,4.56,5.91A36,36,0,0,0,315.19,31.29ZM313.92,11a4.38,4.38,0,0,1-1.9,2.39,5.47,5.47,0,0,1-2.91.7l-3.8.28a1.72,1.72,0,0,1-1.52-1.12,4,4,0,0,1-.25-2V3.45h-3q0,5.48-1.77,8.3a18.62,18.62,0,0,1-6.08,5.48l-1-1.69q4.43-2.25,5.19-4.64a29.09,29.09,0,0,0,.89-7.45h-2.79V8.79h-2.79V2h21.27V8.79h-2.78V3.45h-4.56V11.6a1,1,0,0,0,.76,1,8.32,8.32,0,0,0,1.52.14,2.45,2.45,0,0,0,2-1,20.22,20.22,0,0,0,1-2.39Z"/>
    <path class="af9d73b6-0488-4efa-b5e5-f7435d0c6477" d="M355.43,33.82l-.51,1.41q-2.91-.56-5.82-1.41a50.68,50.68,0,0,1-5.57-2.25A54.34,54.34,0,0,1,337.46,34q-2.91.84-6.08,1.55l-.76-1.41q2.78-.7,5.19-1.55A49.42,49.42,0,0,0,341,30.16a21.06,21.06,0,0,1-3.17-3.09,43.13,43.13,0,0,1-2.66-3.94h-4.3q-1,3.23-2.28,6.33t-3,5.77L324,34.66A37.44,37.44,0,0,0,328,20.32q.25-7,.13-15.47h11.39V2.32L339.23.91V.63l.25-.28a5.5,5.5,0,0,1,1.77,0,1.26,1.26,0,0,1,1.27,1.13,5.81,5.81,0,0,0-.13,1.27,8.7,8.7,0,0,0-.13,1.55v.56h13.17V6.54H330.88v5.34h4.56q-.13-1.12-.25-2t-.25-1.69l.25-.56h1a2.45,2.45,0,0,1,1.39.14q.76.14.89,1.27a5.81,5.81,0,0,0-.13,1.27,5.75,5.75,0,0,0-.13,1.27v.28h7.34q-.13-1.12-.25-2.11t-.25-2.11h1l2.28.28.25.84-.25,1.13a2.72,2.72,0,0,0-.25,1.13l.25.84h5.57v1.41h-5.57v5.63H335.43V13.29h-4.56V22h21.27a53.42,53.42,0,0,1-3.42,4.22q-1.9,2-3.92,3.94,2.66,1.13,5.32,2.11T355.43,33.82Zm-9.87-16.31V13.29h-7.34v4.22Zm2,5.63h-9.12a16.09,16.09,0,0,0,1.77,3.23A24.17,24.17,0,0,0,342.78,29a26.33,26.33,0,0,0,2.66-2.81A26.92,26.92,0,0,0,347.59,23.13Z"/>
  </g>
</svg>
