<svg id="6cb5490b-b8d9-44e6-b951-58cbaf184c07" data-name="圖層 1" xmlns="http://www.w3.org/2000/svg" width="356" height="36" viewBox="0 0 356 36">
  <defs>
    <style>
      .\30 52b610a-76b2-4360-b078-4c1b21630428 {
        fill: #c80c18;
      }
    </style>
  </defs>
  <title>h2-interact</title>
  <g>
    <path class="052b610a-76b2-4360-b078-4c1b21630428" d="M18.48,26.23H14.94q-.63,1.13-1.39,2.25T11.9,30.73q.76.28,1.65.56a2.45,2.45,0,0,1,1.39,1.13,9,9,0,0,0-.76,1,3,3,0,0,1-.76,1,16.18,16.18,0,0,1-1.77-1.12,3.85,3.85,0,0,0-1.77-.84,27.81,27.81,0,0,1-4.05,2.11,22.36,22.36,0,0,1-4.05,1.27l-.51-1.41L4.3,33a22,22,0,0,1,3-1.41q-1.65-.42-3.16-.7T1,30.73a12.55,12.55,0,0,1,1.27-2.39A11.81,11.81,0,0,1,3.8,26.23H0V24.82H4.56l1.52-2.53H2V16.1H7.85V13.57H2V9.63H0V8.23H2V4H7.85V2.32L7.6.91a.65.65,0,0,1,0-.56q0-.14.25-.14A6.42,6.42,0,0,1,9.24.35a3.48,3.48,0,0,0,1.39,0l.25.84a4.59,4.59,0,0,0-.13,1,4.59,4.59,0,0,0-.13,1V4h5.82V8.23h2V9.63h-2v3.94H10.63V16.1H16.2v6.19H9.11L7.85,24.82H18.48ZM7.85,8.23V5.41h-3V8.23Zm0,3.94V9.63h-3v2.53Zm0,8.72V17.79h-3v3.09Zm4.3,5.34H6.84l-2,3.09a20.83,20.83,0,0,1,2.28.14q1.14,0,2.53.14a13.17,13.17,0,0,0,1.27-1.69Zm1.77-18V5.41H10.63V8.23Zm0,3.94V9.63H10.63v2.53Zm-.25,8.72V17.51h-3v3.38Zm17.47-9H28.61a54.46,54.46,0,0,1-1.27,7.59,65,65,0,0,1-2.28,7.59,32.77,32.77,0,0,0,2.53,3.52,35.08,35.08,0,0,0,3,3.23l-1.27,1.13a15.2,15.2,0,0,1-3.17-2.67Q24.81,30.73,23.54,29a31.63,31.63,0,0,1-2.91,3.09,30.43,30.43,0,0,1-3.17,2.81l-1.52-1.41q1.65-1.41,3.29-3a38.09,38.09,0,0,0,3-3.52,24.58,24.58,0,0,1-2-5.77Q19.5,18.49,19,15.54l-1.27,2.25a4.18,4.18,0,0,1-.63-.56,2.81,2.81,0,0,0-.63-.56q1.14-2.67,2-5.2t1.77-5.2a22.49,22.49,0,0,1,.63-2.81A8,8,0,0,1,21.77.91h.51a4.88,4.88,0,0,1,1.27.28,1.61,1.61,0,0,1,1,1.13,38.41,38.41,0,0,1-1.39,3.8Q22,8.93,21.52,10.48h9.62Zm-5.06,0H21.27a52.63,52.63,0,0,0,.89,6,34.29,34.29,0,0,0,1.65,6q.63-3.09,1.14-6T26.08,11.88Z"/>
    <path class="052b610a-76b2-4360-b078-4c1b21630428" d="M51.89,2.32,48.35,9.07V35.79H45.56V13.57l-3.8,4.5-1.52-1.41q1.77-2.81,3.42-5.48T46.58,5.7q.51-1.27.89-2.39T48.35.91A1.68,1.68,0,0,1,48.6.49c0-.09.08-.14.25-.14a4.06,4.06,0,0,1,1.52.7A5.07,5.07,0,0,1,51.89,2.32Zm19.75,31.5h-22V32.13H60.5q.51-2.39,1.27-4.78L63,22.57a21,21,0,0,1,.38-2.25A13.83,13.83,0,0,1,64,18.07l.25-2.53A12.94,12.94,0,0,1,64.55,13a6,6,0,0,1,.25-.7.68.68,0,0,1,.51-.14,5.16,5.16,0,0,1,1.52.28,3.44,3.44,0,0,1,1.52,1.13L63,32.13h8.61Zm-.51-23.06h-21V9.07h9.37V3.73q-.13-.42-.25-1L59,2a.59.59,0,0,1,.25-.56.49.49,0,0,1,.51,0A7.22,7.22,0,0,1,61,1.62a5.83,5.83,0,0,1,1.27.14l.25.84a2.94,2.94,0,0,0-.13.84,2.9,2.9,0,0,0-.13.84V9.07h8.86ZM59,29l-3,1.69q-.63-4.08-1.52-8.16l-1.77-8.16,1.77-.84q1.27,3.66,2.41,7.59T59,29Z"/>
    <path class="052b610a-76b2-4360-b078-4c1b21630428" d="M112.14,27.91H104v1.41a19.43,19.43,0,0,1-.25,2.81,2.26,2.26,0,0,1-1.52,2l-3.17.28a17.34,17.34,0,0,0-3.16.28l-.51-2,5.32.56a1,1,0,0,0,.25-.7,1.46,1.46,0,0,1,.25-.7V27.91H88.6a17.23,17.23,0,0,0,2,2.39q1,1.27,2,2.39l-2.28,2.81a15,15,0,0,0-1.77-3.37,32.45,32.45,0,0,0-2-3.09l1-1.12H81V26.51h20.25V22.85l-10.38.84q-2.28.14-4.43.42t-4.43.7a1.73,1.73,0,0,1-.76-1,2.44,2.44,0,0,1-.25-1v-.28l13.17-.84v-2H85.81V8.23h8.35V6H81V4.57H94.17q-.13-1.12-.25-2T93.66.91l.76-.28,2.53.28c.08,0,.13.09.13.28a1.35,1.35,0,0,1,.13.56A5.43,5.43,0,0,0,96.82,3a8.7,8.7,0,0,0-.13,1.55h15.19V6H96.7V8.23h9.62V19.48l3.8,3.09-2.28,2.81-2.28-2.81H104v3.94h8.1Zm-18-14.62V9.91H88.6v3.38Zm0,4.78V14.7H88.6v3.38Zm9.37-4.78V9.91H96.7v3.38Zm0,4.78V14.7H96.7v3.38Zm.51,2.81L102.77,20v-.28H96.7v2Z"/>
    <path class="052b610a-76b2-4360-b078-4c1b21630428" d="M137.2,28.48h-6.58v7h-2.79v-7H122V27.07h5.82V24H123V9.91h4.81V7.38h-5.32V6h5.32V3.16a4.75,4.75,0,0,0-.25-1,1.45,1.45,0,0,1-.25-.7.58.58,0,0,1,.25-.56.49.49,0,0,1,.51,0,7.18,7.18,0,0,1,1.27.14,9.92,9.92,0,0,1,1.52.14V2a5.81,5.81,0,0,0-.13,1.27,7.26,7.26,0,0,0-.13,1.27V6h5.57V7.38h-5.57V9.91h4.81V24h-4.81v3.09h6.58Zm-9.37-11.81V11.32h-2.28v5.34Zm0,5.91v-4.5h-2.28v4.5Zm5.06-5.91V11.32h-2.28v5.34Zm0,5.91v-4.5h-2.28v4.5Zm19,6.47-1.27.28v5.63h-2.79V30.16q-3,1-5.82,2t-5.82,2a2.73,2.73,0,0,1-.76-1,1.88,1.88,0,0,1-.25-1q.13-.84,1.39-1.12t1.9-.28V14.41h-2.28V13h15.7v1.41h-1.27V27.63l1.27-.28Zm-.76-18.84H137.45V2h13.67Zm-2.79-1.41V3.45h-8.1V8.79Zm-.51,9.28V14.41h-6.58v3.66Zm0,5.06V19.76h-6.58v3.38Zm0,5.34V24.82h-6.58v5.34Z"/>
    <path class="052b610a-76b2-4360-b078-4c1b21630428" d="M178.2,18.91q-2.66,0-2.53-1.83t2.28-1.83q1.65.14,1.27,2.67a7.08,7.08,0,0,1-3,4.36l-.51-.84A5,5,0,0,0,178.2,18.91Z"/>
    <path class="052b610a-76b2-4360-b078-4c1b21630428" d="M233.89,16.38l-.76,1.41A33.86,33.86,0,0,1,224.78,12a40.62,40.62,0,0,1-6.58-7.45A44.18,44.18,0,0,1,211,12.16a60.44,60.44,0,0,1-8.23,5.63l-.63-1.41a42.64,42.64,0,0,0,8.1-6.33,37.53,37.53,0,0,0,6.2-8.58h3.29a28.18,28.18,0,0,0,5.82,8.86A36.52,36.52,0,0,0,233.89,16.38Zm-1.27,18.28H203V33h13.67V25.1h-9.12V23.41h9.12V16.95h-9.37V15.26h21v1.69h-9.11v6.47h9.11V25.1h-9.11V33h13.42Z"/>
    <path class="052b610a-76b2-4360-b078-4c1b21630428" d="M274.39,20.32a39.27,39.27,0,0,0-2,3.52,3.81,3.81,0,0,1-2.79,2.11,6.17,6.17,0,0,1-2.66-2,18.33,18.33,0,0,1-1.9-2.81q-1.39,1.41-2.79,2.67t-2.79,2.39l-1.52-1.69a17,17,0,0,0,3-2.67q1.39-1.55,2.79-3.23A31.67,31.67,0,0,1,262,13.15a32.84,32.84,0,0,1-1-5.48H247.81v3.66a31.69,31.69,0,0,1-.76,7.45,37,37,0,0,1-3,6.89l-1.27-.84a36.9,36.9,0,0,0,2.15-9.28q.13-3.8.13-9.28h15.7q-.25-1.27-.38-2.39A11.48,11.48,0,0,0,260,2l.25-.56h.51l2,.28q.38-.14.51,0t.25.84a3.06,3.06,0,0,0-.25,1.27,3.16,3.16,0,0,0,0,1.27V6.26h9.87V7.66h-9.62a31.44,31.44,0,0,0,.51,4.08,32,32,0,0,0,1.27,4.08A13.81,13.81,0,0,0,266.54,13a16.1,16.1,0,0,0,1-3.09l.51-.28a2.72,2.72,0,0,1,1.14.42q.63.42,1.14.7l.25.84a10.39,10.39,0,0,0-2.15,3.23q-1.27,2.67-1.9,3.8a9.36,9.36,0,0,0,1.27,2.25,10.59,10.59,0,0,0,2,2A7,7,0,0,0,271,21q.38-1.12.63-2.11Zm-26.58,6.47q-.63,2.11-1.39,4.22T245,35.23l-2.28-1.69q.89-1.69,1.9-3.66l1.9-3.94Zm11.64-14.06H249.08V11.32h10.38Zm0,9.56H249.33V15.54h10.13Zm7.34,7.59a21.28,21.28,0,0,1-1.27,3.8,3.23,3.23,0,0,1-3,1.83h-9.12a2.46,2.46,0,0,1-1.39-.42,3.45,3.45,0,0,1-.89-1.27V27.63c-.17-.47-.3-.84-.38-1.12a4.26,4.26,0,0,1-.13-.84l.51-.56,2.79.28.25.84q-.13.56-.25,1a1.47,1.47,0,0,0-.25,1v5.06a2,2,0,0,0,.76.56,1.27,1.27,0,0,0,.76.28h6.58a3.26,3.26,0,0,0,1.52-2.39,16.53,16.53,0,0,1,.76-3,2.91,2.91,0,0,1,1.39.42A6.67,6.67,0,0,0,266.8,29.88Zm-9.87-9V17.23h-4.81v3.66Zm3.8,7.88-2,2.25q-1-1.55-1.77-2.67t-1.77-2.39l1.27-1.41a14.57,14.57,0,0,1,2.15,2Q259.71,27.63,260.72,28.76ZM270.85,3.16,269.08,5.7a16.27,16.27,0,0,0-2.4-2A14.31,14.31,0,0,0,264.27,2L265,.35a15.85,15.85,0,0,1,2.91,1.13A18.55,18.55,0,0,1,270.85,3.16Zm2.28,28.41-2,2.53a30.13,30.13,0,0,0-1.9-3.37q-1-1.69-1.9-3.09l.76-1.41a23.3,23.3,0,0,1,2.66,2.53A24.61,24.61,0,0,1,273.13,31.57Z"/>
    <path class="052b610a-76b2-4360-b078-4c1b21630428" d="M298.44,16.66h-2.79V13.57h-9.37v4.5H283.5V12.16h2v-9h11.39v9h1.52Zm-2.79,15.47A4.69,4.69,0,0,1,295,34a9.4,9.4,0,0,1-1.39,1.27h-2.53l-.76-2,1.77.28a.9.9,0,0,0,.38-.56,3.74,3.74,0,0,1,.38-.84v-4.5h-3.54v7.88h-2.79V16.1h9.12ZM294.13,6.82V4.57h-6.08v7.59h2.28V6.82Zm-1.27,14.06V17.51h-3.54v3.38Zm0,5.34V22.29h-3.54v3.94Zm1.27-14.06V8.23h-1v3.94Zm20.25,22.5H297.68V33h5.06q-.51-1.27-1-2.39t-1-2.11L302,27.35a16,16,0,0,1,1.65,1.83A21.33,21.33,0,0,1,305,31.57L302.74,33h11.65Zm-.76-16.59H298.44V16.66h15.19Zm-.25-4.22H298.94V4.57h3.8v-2a1.61,1.61,0,0,1-.13-.84,4.19,4.19,0,0,1-.13-.84c0-.19,0-.28.13-.28a.74.74,0,0,1,.63,0,5.31,5.31,0,0,1,1.14.14,7.7,7.7,0,0,1,1.39.14v.84a5.08,5.08,0,0,0-.13,1.13A4.05,4.05,0,0,0,305.53,4v.56h1.27v-2a1.72,1.72,0,0,1-.13-.7,1.71,1.71,0,0,1-.13-.7q0-.28.38-.42a.9.9,0,0,1,.38-.14,5.83,5.83,0,0,1,1.27.14,6.73,6.73,0,0,1,1.27.42v.56a5.08,5.08,0,0,0-.13,1.13A4.05,4.05,0,0,0,309.58,4v.56h3.8Zm-.76,13.22H299.45V20.6h13.17ZM302.74,8.51V6.26h-1V8.51Zm0,3.94V10.2h-1v2.25Zm7.34,12.94V22h-7.85v3.38ZM306.79,8.51V6.26h-1.27V8.51Zm0,3.94V10.2h-1.27v2.25ZM311.6,29a4.29,4.29,0,0,1-1.14,1.83q-1,1.27-1.39,1.83a8.11,8.11,0,0,1-1-.28,3.67,3.67,0,0,1-.76-.28q.38-1.27.76-2.39t.76-2.39q.63.14,1.65.42A1.65,1.65,0,0,1,311.6,29Zm-1-20.53V6.26h-1V8.51Zm0,3.94V10.2h-1v2.25Z"/>
    <path class="052b610a-76b2-4360-b078-4c1b21630428" d="M327,27.07l-.25,3.09-.25,3.09-2.79-.56q.51-2.39.89-4.5t.89-4.5h1.27ZM338.68,2.88h-4.56v4.5h3.29V9.07h-3.29v4.78h3.54v1.41h-3.54v4.22h4.3q-.13,3.09-.38,6.33a15,15,0,0,1-1.65,5.77,5.13,5.13,0,0,1-2.66,2.25,10.5,10.5,0,0,1-3.42.56l-.25-2q3,0,3.67-1a12.67,12.67,0,0,0,1.39-4.08l-1,.56q-.38-1.41-.76-2.67t-.76-2.67l1-.56,2,2.25V21.16H325.52V1.48h13.17Zm-7.85,27.28L328.3,31,328,27.63l-.25-3.37,1.27-.56q.51,1.41,1,3.09A19.3,19.3,0,0,1,330.83,30.16Zm.76-22.78V2.88H328.3v4.5Zm0,6.47V9.07H328.3v4.78Zm0,5.63V15.26H328.3v4.22Zm2,9-2,1.13-1-5.91,1-.56q.51,1.27,1,2.67A21.63,21.63,0,0,0,333.62,28.48Zm21.77-17.72-1.27,1.41a45.38,45.38,0,0,1-3.92-3.37,30.87,30.87,0,0,1-3.67-3.94Q344.88,7,343.11,8.93a34.88,34.88,0,0,1-3.92,3.52l-1.27-1.12a45.62,45.62,0,0,0,4.18-5.06A63.22,63.22,0,0,0,345.52.91h2.78a26.91,26.91,0,0,0,2.91,5.34A28.85,28.85,0,0,0,355.39,10.76Zm-9.12,20.81L345,32.7l-1.14-1.27-1.14-1.27a18.76,18.76,0,0,0-1.77,2l-1.77,2L337.92,33q1.39-2,2.53-3.94t2-4.22a1.37,1.37,0,0,1,.13-.56.81.81,0,0,1,.63-.28,3,3,0,0,1,1.14.7c.68.38,1.05.7,1.14,1a5.13,5.13,0,0,1-.76,1q-.51.7-.76,1a19.85,19.85,0,0,0,.89,2Q345.52,30.45,346.28,31.57ZM346,23.41H339.7v-9H346ZM343.49,22V16.1h-1.27V22Zm7.59-9.84H343V10.76h8.1Zm4.05,20.25-.76,2a14.56,14.56,0,0,1-2.15-2,15.64,15.64,0,0,1-1.9-2.25q-1,1.27-1.77,2.39t-1.77,2.39l-1.52-1.12a29,29,0,0,0,2.79-4.64q1-2.39,2-4.92h.25a2.12,2.12,0,0,1,1.14.42,6,6,0,0,1,1.14,1v.28a3.73,3.73,0,0,0-.63,1,5.64,5.64,0,0,0-.63,1.27,14.45,14.45,0,0,0,3.8,4.22Zm-1-9H347.8v-9h6.33ZM351.6,22V16.1h-1.27V22Z"/>
  </g>
</svg>
