<svg id="3d1801d4-4068-40c6-8a3f-66a3c94e1585" data-name="圖層 1" xmlns="http://www.w3.org/2000/svg" width="356" height="36" viewBox="0 0 356 36">
  <defs>
    <style>
      .\30 ab02df5-1c8d-4d39-bd10-19e417e89fbf {
        fill: #c80c18;
      }
    </style>
  </defs>
  <title>h2-listen</title>
  <g>
    <path class="0ab02df5-1c8d-4d39-bd10-19e417e89fbf" d="M30.63,8H13.92a20.15,20.15,0,0,0-1.14,2.39A15,15,0,0,0,11.65,13H26.08V31.88a4.48,4.48,0,0,1-.89,2.39,3.61,3.61,0,0,1-2.15,1H18l-.76-2,2.15.28,2.15.28h1a2.21,2.21,0,0,1,.38-.56.9.9,0,0,1,.38-.56V27.09H11.39v8.44H8.61V18.09q-1.9,1.83-3.8,3.52A45.88,45.88,0,0,1,1,24.84L0,23.16l4.05-3.94A42.84,42.84,0,0,0,7.85,15a18.36,18.36,0,0,0,1.52-3.52Q10,9.66,10.63,8H.25V6.56H11.39a21.57,21.57,0,0,1,.51-2.67,21.55,21.55,0,0,0,.51-2.67.66.66,0,0,1,0-.56.5.5,0,0,1,.51-.28,7.87,7.87,0,0,1,1.65.28A2.12,2.12,0,0,1,16,1.78q-.13.42-.76,2.25t-.76,2.53h16.2ZM23.29,19.22V14.44H11.39v4.78Zm0,6.47V20.63H11.39v5.06Z"/>
    <path class="0ab02df5-1c8d-4d39-bd10-19e417e89fbf" d="M55.69,16.13H45.06Q44.3,18,43.41,19.64a31.81,31.81,0,0,1-1.65,3l-1.52-.84A14.4,14.4,0,0,0,42,16.27q.13-2.67.25-5.77H55.69Zm.76-11.25H50.37V7.13h5.57V8.81H41.77V7.13h6.08V4.88H40.75V3.47h7.09q-.13-.84-.25-1.55T47.34.66l.25-.42h1a2.09,2.09,0,0,1,1.27.14q.63.14.76,1.13l-.25,2h6.08ZM70.12,30.47,64,31.31v4.5H61.26V31.59l-9.75,1.13q-4.94.56-9.75,1.41a3.78,3.78,0,0,1-.25-1.27,1.94,1.94,0,0,1,0-1h1.27a18.59,18.59,0,0,1,2.28-.14,18.59,18.59,0,0,1,2.28-.14V20.06H44.55V18.66H66.83v1.41H64v9.56l6.08-.56ZM47.84,14.72V12.19H45.06l-.25,2.53Zm5.06,0V12.19H50.37v2.53Zm8.35,7.88V20.34H50.37v2.25Zm0,3.94V24H50.37v2.53Zm0,3.38v-2H50.37V31Zm9.87-11.81-.76,1.13q-1.9-.56-3.8-1.27t-3.8-1.83a15,15,0,0,1-3,1.13l-3,.84-.51-1.41q1.27-.42,2.66-.84T61.51,15q-.76-.7-1.39-1.41A16.74,16.74,0,0,1,59,12.19l.51-.56H57V9.94H67.34a.74.74,0,0,1,.63.42,7.13,7.13,0,0,1,.38.7A8.7,8.7,0,0,1,67,13.17q-1.14,1.55-1.65,2.11,1.27.7,2.79,1.41T71.13,18.09Zm0-14.34q-.76,2.81-1.77,3.52a7.59,7.59,0,0,1-3.8.7,2.07,2.07,0,0,1-1-.28,1.21,1.21,0,0,1-.76-.84V2.91H61.26a31.26,31.26,0,0,1-.89,3.38,20.7,20.7,0,0,1-1.65,3.38,5.42,5.42,0,0,1-1-.56,2.75,2.75,0,0,0-1-.56A9.11,9.11,0,0,0,58.35,5.3a16.2,16.2,0,0,0,.38-3.8h7.59V6.28c0,.09.08.14.25.14a1,1,0,0,0,.51.14q.89-.14,1.27-1.41a14.49,14.49,0,0,1,.51-2Zm-5.82,7.88h-3.8q.38.56.89,1.27l1.14,1.27a6.47,6.47,0,0,1,.89-1.27A6.51,6.51,0,0,1,65.31,11.63Z"/>
    <path class="0ab02df5-1c8d-4d39-bd10-19e417e89fbf" d="M97.46,15.84H81V14.44H97.46ZM97,22.31H91.63a17.37,17.37,0,0,0,2,2.39q1,1.27,2,2.39l-.76,1.41a10.58,10.58,0,0,1-2.41-2,15.64,15.64,0,0,1-1.9-2.25V35.53H88.09V25.41q-1.39,1.83-2.91,3.52T82,32.16l-1-1.41q1.65-2,3.17-4.08t2.66-4.36H81.76V20.63h6.33V18.94l-.51-1.41v-.28l1-.28a5.31,5.31,0,0,1,1.14.14,5.31,5.31,0,0,1,1.14.14v.84a4.53,4.53,0,0,0-.13,1,4.59,4.59,0,0,0-.13,1v.56H97ZM97,6.84H94.17q.38.14,1.27.56a1.6,1.6,0,0,1,1,1.13q-.25.42-2,2.53a27.14,27.14,0,0,0-2,2.81L90.62,13a19.32,19.32,0,0,1,1.39-3,10.23,10.23,0,0,0,1.14-3V6.84H82V5.44h6.08V2.63l-.51-1.41V.94l1-.28,2.28.28V2.06a5.75,5.75,0,0,0-.13,1.27,5.81,5.81,0,0,0-.13,1.27v.84H97ZM88.34,13l-2.79,1.13a20.93,20.93,0,0,0-1.27-3.23A32.88,32.88,0,0,1,83,7.69l1.27-.56q1,1.27,2,2.67T88.34,13Zm23-9.56a1.66,1.66,0,0,0-.25.42,1.68,1.68,0,0,0-.25.42q-2.53,0-4.94.14T101,4.88v8.44h10.38v1.41h-4.05V35.25H104.8V14.72H101v2a37.6,37.6,0,0,1-1.14,10,27.21,27.21,0,0,1-4.43,8.58l-1.27-1.41a21.33,21.33,0,0,0,1.39-2.39,20,20,0,0,0,1.14-2.39l.76-3q.63-2,.76-2.39V3.19a40.33,40.33,0,0,0,4.68-.28,32.05,32.05,0,0,0,4.68-1.12,8.16,8.16,0,0,0,.89-.56,1.88,1.88,0,0,1,.89-.28q.76,0,1.27,1T111.38,3.47Z"/>
    <path class="0ab02df5-1c8d-4d39-bd10-19e417e89fbf" d="M135.42,12.47h-9.87V34.69h-2.78V1.22h12.66Zm-2.53-6.19V2.63h-7.34V6.28Zm0,4.78V7.69h-7.34v3.38Zm13.17,5.06h-2.53V33.84h-2.79V28.5q-2.4.42-6.33,1a30.53,30.53,0,0,0-5.82,1.27A4.55,4.55,0,0,1,128,31a4.61,4.61,0,0,1-.63.28q-.38-.14-.63-1l-.38-1.27v-.28a4.36,4.36,0,0,1,1.9-.42,13.84,13.84,0,0,0,1.9-.14V16.13h-2.28V14.72h18.23Zm-5.32,2.53V16.13h-7.85v2.53Zm0,4.22V20.34h-7.85v2.53Zm0,3.66v-2h-7.85v3.38Zm10.13,4.22q-.25,3-2.28,3.23t-4.05.42l-.51-2a4,4,0,0,1,1.39.28l1.39.28a2,2,0,0,0,.76-.56,2.26,2.26,0,0,0,.51-.84V12.47h-9.62V1.22h12.41ZM148.08,6.28V2.63h-6.84V6.28Zm0,4.78V7.69h-6.84v3.38Z"/>
    <path class="0ab02df5-1c8d-4d39-bd10-19e417e89fbf" d="M177.95,18.94q-2.66,0-2.53-1.83t2.28-1.83q1.65.14,1.27,2.67a7.07,7.07,0,0,1-3,4.36l-.51-.84A5,5,0,0,0,177.95,18.94Z"/>
    <path class="0ab02df5-1c8d-4d39-bd10-19e417e89fbf" d="M233.13,15.56h-5.57v7.88h3.54v1.41H203.77V23.44h3.8V15.56H202.5V14.16h5.06V8.81a2,2,0,0,0-.76.56,3.4,3.4,0,0,0-.76.84,13,13,0,0,0-1,1,7.64,7.64,0,0,0-.76.7l-1-1.12q1.77-2.53,3.29-5.2T209.33.23a13.9,13.9,0,0,1,1.52,1,4.81,4.81,0,0,1,1.27,1.41A4.47,4.47,0,0,0,211,3.75a16.53,16.53,0,0,0-1.14,1.41h21V6.56h-3.29v7.59h5.57Zm-24.3,12.38a43.77,43.77,0,0,1-2,3.94l-2.53,3.94-1.77-2.25Q203.77,32,205,30.33a30.38,30.38,0,0,0,2.28-3.52Zm4.56-13.78V6.56h-3.29v7.59Zm0,9.28V15.56h-3.29v7.88Zm3.29,10.69-2.53,1.41q-.63-2-1.27-3.8a36.59,36.59,0,0,1-1.27-3.52l1.27-1.12a30.28,30.28,0,0,1,1.9,3.38Q215.66,32.16,216.68,34.13Zm2.28-20V6.56h-2.79v7.59Zm0,9.28V15.56h-2.79v7.88ZM224.78,33l-2.28,2.25a26.84,26.84,0,0,0-1.77-3.94,21.37,21.37,0,0,0-2-3.37L220,26.81a26.78,26.78,0,0,1,2.53,3Q223.64,31.31,224.78,33ZM225,14.16V6.56h-3v7.59Zm0,9.28V15.56h-3v7.88Zm8.1,10.41-3,1.41a29.12,29.12,0,0,0-1.52-3.8q-.89-2-1.77-3.8l1-.84a16.87,16.87,0,0,1,2.79,3.38Q231.74,31.88,233.13,33.84Z"/>
    <path class="0ab02df5-1c8d-4d39-bd10-19e417e89fbf" d="M272.87,20.34H259.46l-1.77,3.09h13.67v8.44a2.35,2.35,0,0,1-2.15,2.25,34,34,0,0,1-3.42.56l-.51-2.25,2.28.28a1.57,1.57,0,0,0,.63-.42,1.82,1.82,0,0,0,.38-.7V24.84h-4.81v8.72H261V24.84h-5.06v8.72h-2.79V24.84h-4.56v9.84h-2.79V23.44h9.37l1.52-3.09H243.76V18.66h29.12Zm0-5.62h-2.79V7.41H260v9.84h-2.79V7.41H247v7.31h-2.78V6h12.91V2.91H246V1.5h25.32V2.91H260V6h12.91Zm-17-3.37h-7.85V9.94h7.85Zm0,4.22h-7.85V14.16h7.85Zm12.91-4.22h-7.6V9.94h7.6Zm0,4.22h-7.6V14.16h7.6Z"/>
    <path class="0ab02df5-1c8d-4d39-bd10-19e417e89fbf" d="M293.37,2.06q-.25.56-1.77,3.66t-2,4.5V35.81H287V15h-.25l-3.29,3.66-.63-2.25A46.07,46.07,0,0,0,287,9.09,49.49,49.49,0,0,0,289.83.94a1.52,1.52,0,0,1,.51-.56,1,1,0,0,1,.51-.14,3,3,0,0,1,1.52.56A2,2,0,0,1,293.37,2.06Zm21.52,27.28a24.32,24.32,0,0,1-1.39,3.94,3.69,3.69,0,0,1-2.91,2.25,17.29,17.29,0,0,1-5.44-9.28A59.66,59.66,0,0,1,303.5,15h-7.09V27.09l7.34-1.41.25.84v.56l-10.38,3.09a1,1,0,0,0-.89.42,2.68,2.68,0,0,1-.89.42,1,1,0,0,1-.89-.84,1.86,1.86,0,0,1-.13-1.12v-.84a3.39,3.39,0,0,1,1.39-.28l1.39-.28V4.31a45.68,45.68,0,0,0,7.09-.84,42.28,42.28,0,0,0,6.84-2.25,3.08,3.08,0,0,1,.76-.42,2.17,2.17,0,0,1,.76-.14,1.86,1.86,0,0,1,1.39.7l1.14,1.27v.84a7.31,7.31,0,0,1-2.66.7q-1.9.28-2.66.42l.25,9h7.34V15h-7.34a63.24,63.24,0,0,0,1,8.3A27.43,27.43,0,0,0,310.34,31q.25.56.51.56l.76-.56,1.27-3.66a9.79,9.79,0,0,1,1,1A13.22,13.22,0,0,0,314.89,29.34Zm-9.11,5.34H293.37V33h12.41ZM303.5,13.59l-.25-8.16-6.84.84v7.31Z"/>
    <path class="0ab02df5-1c8d-4d39-bd10-19e417e89fbf" d="M336.66,29.06a28.86,28.86,0,0,0-3.67.84,35.51,35.51,0,0,0-3.67,1.41,23.75,23.75,0,0,1-2.66.84l-2.41.84a.9.9,0,0,1-.76-.56,1.44,1.44,0,0,1,0-.84q0-1.27.63-1.55a4.3,4.3,0,0,1,1.39-.42l11.14-2.25Zm.25-25.87H324V1.5h12.91Zm-.76,14.34H324.76V7.69h11.39Zm-6.33,9-2.28,1.13q-.63-2-1.39-3.8t-1.39-3.8l1.52-.84q.89,1.69,1.77,3.52T329.82,26.53Zm3.29-10.41v-7h-5.82v7Zm3.29,3.94a18.8,18.8,0,0,1-1.52,3.38,33.31,33.31,0,0,0-2,3.94l-1.52-.84q.38-2.11.89-4.08t.89-4.08l.51-.28a2.7,2.7,0,0,1,1.77.42A1.8,1.8,0,0,1,336.4,20.06Zm18.74,11.81-1.27,1.69a39.79,39.79,0,0,1-3.8-2.39,37.21,37.21,0,0,1-3.54-2.67L348.3,26H343a6.47,6.47,0,0,0,.89,1.27q.38.56.89,1.27a1.69,1.69,0,0,0-.25.42,1.66,1.66,0,0,0-.25.42q-2,1.27-3.92,2.39t-3.92,2.11l-1.52-1.12q1.9-1.55,3.54-3.09A32.18,32.18,0,0,0,341.72,26h-3.29V7.41h4.3l2-4.22h-7.09V1.5h17V3.19H347.8l-2.53,4.22h8.1V26h-4.05a19.59,19.59,0,0,0,2.78,3.23A30,30,0,0,0,355.14,31.88Zm-4.56-18.56V9.09h-9.37v4.22Zm0,5.06V14.72h-9.37v3.66Zm0,6.19V19.78h-9.37v4.78Z"/>
  </g>
</svg>
