<svg id="9a59fa6f-22f8-4525-91d4-324532c6b223" data-name="圖層 1" xmlns="http://www.w3.org/2000/svg" width="356" height="36" viewBox="0 0 356 36">
  <defs>
    <style>
      .\35 4dfbde4-a208-4790-8c9f-b2e2b0f7f7e8 {
        fill: #c80c18;
      }
    </style>
  </defs>
  <title>h2-prize</title>
  <g>
    <path class="54dfbde4-a208-4790-8c9f-b2e2b0f7f7e8" d="M10.76,2.64l-.25.56A11.79,11.79,0,0,0,8.1,6.43a20.73,20.73,0,0,0-1.65,3.8v25H3.92V14.45q-1,1.27-1.77,2.39T.38,19.23l-.38-2q1.9-3.52,3.54-7T7,3.2a2.21,2.21,0,0,1,.25-1.55,1,1,0,0,1,1-.7,2.72,2.72,0,0,1,1.14.42q.63.42,1.14.7Zm19.49,8.72a14.88,14.88,0,0,1-1.14,3.09A25.56,25.56,0,0,0,28,17.54l-2.53-.84,1.77-4.78H22.15v20A9.85,9.85,0,0,1,21.52,34a1.91,1.91,0,0,1-1.39,1.27H14.81l-.51-2,1.77.28q.76.14,1.77.28A4.1,4.1,0,0,0,19,33.29a2.64,2.64,0,0,0,.63-1.41v-20H14.81l-2.28,2.81a33.29,33.29,0,0,1-2.28,2.81l-1-.84q1.9-3.09,3.8-6.33a51,51,0,0,0,3-6.61q.25-1,.38-1.69A1.8,1.8,0,0,1,17.09.67h.25a2.41,2.41,0,0,1,1.39.56,2,2,0,0,1,1.14,1.41,20.31,20.31,0,0,0-2.4,3.66,46.2,46.2,0,0,0-1.9,4.22H28.74a3.37,3.37,0,0,1,.89.14A1.23,1.23,0,0,1,30.25,11.36ZM17.09,20.64a33.36,33.36,0,0,1-2.91,5.06Q11.52,29.5,10.51,31L9.24,29.92q1.27-2,2.53-4.08a39.82,39.82,0,0,0,2-4.36,3.34,3.34,0,0,1,.38-1.12,5.92,5.92,0,0,1,.38-1.12.71.71,0,0,1,.51-.28,2.5,2.5,0,0,1,1,.56A2,2,0,0,1,17.09,20.64Zm14.68,8.44L29.5,31q-1.27-2.81-2.66-5.48t-2.66-5.48l1-.84a31.37,31.37,0,0,1,3.67,4.64Q30.38,26.4,31.77,29.07Z"/>
    <path class="54dfbde4-a208-4790-8c9f-b2e2b0f7f7e8" d="M53.79,32.17H44.93v1.69H42.15V7.42h2.79q.51-1.69.89-3.37T46.7.67q.89.28,1.9.56a3,3,0,0,1,1.65,1.13v.56A9.32,9.32,0,0,0,48.6,5a20.15,20.15,0,0,0-1.14,2.39h6.33ZM51,18.95V8.82H44.93V18.95Zm0,11.81V20.36H44.93V30.76ZM70.75,22a30.76,30.76,0,0,1-.76,7A13.33,13.33,0,0,1,66.45,35l-.76.28H59.61l-.25-2,1.9.28,2.15.28h1.27a16.73,16.73,0,0,0,1.14-1.41A6,6,0,0,1,67,31q.38-2,.63-3.8t.38-3.8V9.67h-8.1l-2,3.38-2,3.38-1.52-.84q1.27-2.67,2.91-6.89a26.77,26.77,0,0,0,1.9-7.17.61.61,0,0,1,.13-.42,1.56,1.56,0,0,1,.63-.42q.76.42,1.39.84t1.39.84A14.11,14.11,0,0,1,62,4a4.59,4.59,0,0,0-.63,1.69l-.76,2.53H70.75Zm-6.58,3.38-2.78,2a43.52,43.52,0,0,0-1.77-5.06,39.18,39.18,0,0,0-2-4.78l1.52-1.41q1.27,2.25,2.53,4.64T64.17,25.42Z"/>
    <path class="54dfbde4-a208-4790-8c9f-b2e2b0f7f7e8" d="M88.22,8.26l-2.53,2.53q-1-2.39-2.15-4.5a46.73,46.73,0,0,0-2.15-4.22l1-.84a27.43,27.43,0,0,1,3,3.38Q86.82,6.29,88.22,8.26ZM112.52,33l-.25,1.69h-19a8.56,8.56,0,0,1-3.67-1.27A13.94,13.94,0,0,1,86.7,31a9.06,9.06,0,0,0-2,2.11,14.58,14.58,0,0,1-2,2.11L81.89,35l-.25-1.41a2.14,2.14,0,0,1,.13-.84,1.25,1.25,0,0,1,.63-.56,9.35,9.35,0,0,1,1.39-1.27l1.39-1.27v-11H81.63V17.26H88V28.51A7.43,7.43,0,0,0,91.25,32a10.84,10.84,0,0,0,4.56,1Zm-.76-8.44h-22V22.89H95.3V19.23H91.25V17.82H95.3l-.25-1.41L94.8,15a.41.41,0,0,1,.38-.28c.08-.09.21-.09.38,0a4.11,4.11,0,0,1,1.52,0,1.64,1.64,0,0,1,1.27.84l-.25,2.25h4.56l-.25-1.41L102.14,15l.25-.28h.76a2.85,2.85,0,0,1,1.27,0,2,2,0,0,1,1.27.84l-.25,2.25h3.8v1.41h-3.8v3.66h6.33Zm-11.9-13.5q-.38,1-.76,1.83a4.55,4.55,0,0,1-1.52,1.27H91.76a1.27,1.27,0,0,1-1-.7,1.82,1.82,0,0,1-.25-1.27V6.86h6.33V3.2H90.49V1.79h9.11V8.26H93.28V12.2l.51.56h1.27a2.37,2.37,0,0,0,2-.7,8.87,8.87,0,0,0,1-2.11ZM98.09,27.67l-.51.84a8,8,0,0,0-2.79,1.41,27.35,27.35,0,0,0-2.28,2,2.66,2.66,0,0,1-.89-.56,2.81,2.81,0,0,0-.63-.56l1.64-1.83a8.07,8.07,0,0,0,1.65-1.83,2.21,2.21,0,0,1,.38-.56A1.26,1.26,0,0,1,95.3,26h1.52l.63.7A1.77,1.77,0,0,1,98.09,27.67Zm4.56-4.78V19.23H98.09v3.66Zm8.86-12.09a18,18,0,0,0-1.27,2,2.25,2.25,0,0,1-1.52,1.13h-5.06a2.71,2.71,0,0,1-1.27-.56,4.4,4.4,0,0,1-.76-1.12V6.86h5.82V3.2h-5.82V1.79H110V8.26h-5.57v3.66l.51.28,1.27.28a2.88,2.88,0,0,0,1.9-.84,14.89,14.89,0,0,0,1.14-2Zm-1,19.13-1,1.41a25.06,25.06,0,0,1-3.8-2,25.32,25.32,0,0,1-3.54-2.53l2-1.69a21.66,21.66,0,0,0,2.91,2.67Q108.72,28.93,110.5,29.92Z"/>
    <path class="54dfbde4-a208-4790-8c9f-b2e2b0f7f7e8" d="M132.26,18.95l-3.8,2V32.73a3.06,3.06,0,0,1-1,1.83,3.4,3.4,0,0,1-1.77,1h-3.29l-.51-1.69,3,.28a2,2,0,0,0,.51-.42,4.62,4.62,0,0,0,.51-.7V22.61a5.37,5.37,0,0,0-1.77.84,4.81,4.81,0,0,0-1.27,1.41h-.51l-.25-.56a8.25,8.25,0,0,1-.38-1,4.59,4.59,0,0,1-.13-1,.88.88,0,0,1,.13-.56,4.55,4.55,0,0,1,.63-.28l3.54-1.69v-9h-4.05V9.39h4.05V2.64q-.13-.56-.25-1a2.47,2.47,0,0,1-.25-1l.25-.28a6.27,6.27,0,0,1,1.9,0A1.47,1.47,0,0,1,129,1.51q-.13.42-.25,1a1.87,1.87,0,0,0-.25,1V9.39H132v1.41h-3.54v7.59L132,17ZM153,29.07h-8.86v6.47h-2.53V29.07h-8.35V27.67h8.35V23.73h-7.34V22h3.54a5.14,5.14,0,0,0-.76-1.55q-.51-.84-1-1.55l1.27-1.12H133V16.14h8.61V13.61h-7.09V12.2h7.09V9.39h-8.1V1.51h18.74V9.39h-7.85V12.2h6.84v1.41h-6.84v2.53H153v1.41h-4.56a2.08,2.08,0,0,1,.63.84,3.34,3.34,0,0,1,.38,1.13A7.26,7.26,0,0,0,148,20.78,5.8,5.8,0,0,0,146.69,22h4.56v1.69h-7.09v3.94H153ZM138.84,8V2.92h-2.53V8Zm7.85,9.84h-8.86a13.4,13.4,0,0,0,1.65,1.55,13.53,13.53,0,0,0,1.64,1.55L140.36,22h4.81l-.25-.56q.38-.84.88-1.83A5.18,5.18,0,0,0,146.69,17.82ZM144.16,8V2.92h-2.53V8Zm5.57,0V2.92h-2.78V8Z"/>
    <path class="54dfbde4-a208-4790-8c9f-b2e2b0f7f7e8" d="M178.58,18.95q-2.66,0-2.53-1.83t2.28-1.83q1.65.14,1.27,2.67a7.08,7.08,0,0,1-3,4.36l-.51-.84A5,5,0,0,0,178.58,18.95Z"/>
    <path class="54dfbde4-a208-4790-8c9f-b2e2b0f7f7e8" d="M233.26,34.42h-2.79V32.73H206.42v2h-2.78V1.23h29.62Zm-2.79-3.09V2.64H206.42V31.32Zm-12.15-9-.25,1.41-8.61,2a1.27,1.27,0,0,0-.76.28,3.64,3.64,0,0,1-.76.28,1.48,1.48,0,0,1-.38-.28,1.49,1.49,0,0,1-.38-.28v-.84a2.51,2.51,0,0,1,.25-1.27,2.67,2.67,0,0,1,1-.42q2.41-.28,4.94-.42T218.32,22.32Zm11.39,2a15.36,15.36,0,0,1-1.14,3.09,2.81,2.81,0,0,1-2.41,1.69h-.76a10,10,0,0,1-1.52-1.83,10.4,10.4,0,0,1-1.27-2.11,24.08,24.08,0,0,1-2.53,2.67,24.73,24.73,0,0,1-2.79,2.39l-1.52-1.12a22.74,22.74,0,0,0,3-2.81q1.39-1.55,2.79-3.37a40.35,40.35,0,0,1-1.52-6.33,42.78,42.78,0,0,1-.76-6.61H207.94V8.54h11.14V5.73a1.62,1.62,0,0,1-.25-.84L218.58,4l.51-.56q.63.14,1.77.28a1.26,1.26,0,0,1,1.27,1.13A5.81,5.81,0,0,0,222,6.15a5.75,5.75,0,0,0-.13,1.27V8.54h4.05a8.4,8.4,0,0,0-1.52-2l-1.52-2,1.27-1.12a8.12,8.12,0,0,1,2,1.41,8,8,0,0,1,1.77,1.69l-1.27,2h1.77V9.95h-6.58a45.63,45.63,0,0,0,.51,4.78,48.2,48.2,0,0,0,1,4.78,6.91,6.91,0,0,0,1.27-2.67,15,15,0,0,1,1.27-2.67h1.27q.13.14.76.7a7.72,7.72,0,0,1,.76.7q-1.14,1.83-2.15,3.52t-2.15,3.52a4.66,4.66,0,0,0,.63,1.83A10,10,0,0,0,226.17,26a2.78,2.78,0,0,0,.63-1.55,5.09,5.09,0,0,1,.63-1.55Zm-11.39-3.94H209V13.61h9.37Zm-2.79-1.69V15h-3.8v3.66Z"/>
    <path class="54dfbde4-a208-4790-8c9f-b2e2b0f7f7e8" d="M254,2.36q-1.27,3-2.53,5.77t-2.53,5.77a22,22,0,0,1,3,5.06,15.73,15.73,0,0,1,1.27,5.91q-.13,2.53-1.27,3.38a6.35,6.35,0,0,1-3.54.84h-1.52V27.67h1.27a4.82,4.82,0,0,0,1.27-.14,2.13,2.13,0,0,0,1-1v-2a20.6,20.6,0,0,0-1-5.62,25.38,25.38,0,0,0-2.53-4.78q.89-2.53,1.65-5.2t1.65-5.2h-4.05V35.82h-2.53V2.36Zm9.11,1.41a22,22,0,0,1-3.67,8.86A32.82,32.82,0,0,1,253,19.23l-1-1.12q.89-.84,1.65-1.69t1.65-1.69a6.6,6.6,0,0,0-.76-2,13.35,13.35,0,0,0-1-1.69l1.27-1.12a3.14,3.14,0,0,1,1.27.84,4.1,4.1,0,0,1,1,1.41,3.29,3.29,0,0,1,.51-.84,1.51,1.51,0,0,1,.51-.56q-.51-.84-1-1.55a12.73,12.73,0,0,1-1-1.55l.76-.84a2.84,2.84,0,0,1,1.14.28,6.61,6.61,0,0,1,1.14.84,4.74,4.74,0,0,0,.51-1.41,4.14,4.14,0,0,0,.25-1.41H257.3Q256.16,6.86,255,8.4a27.19,27.19,0,0,1-2.28,3.23l-1.27-.84a43.27,43.27,0,0,1,2-3.94,26.84,26.84,0,0,0,1.77-3.94q.13-1,.25-1.69a1.6,1.6,0,0,1,1-1,2.69,2.69,0,0,1,1.39.14q1.14.14,1.39.56a9.74,9.74,0,0,1-.63,1.41,5.07,5.07,0,0,0-.63,1.41Zm-2.78,22.5a40.66,40.66,0,0,1-3.54,4.22q-2,2-4.05,3.66L251.48,33q1.65-2,3.16-3.94a49.89,49.89,0,0,0,2.91-4.22Zm13.42-3.09H264.9v7.31a9.26,9.26,0,0,1-.63,2.53,4.66,4.66,0,0,1-1.39,2h-5.32l-.51-2,1.65.28,1.65.28a8.39,8.39,0,0,0,1.14-.42,1.77,1.77,0,0,0,.63-1v-9h-7.85V21.76h19.49Zm-4.3-5.06H257.3V16.7h12.15Zm4.56-.56-1.27,1.13a23.09,23.09,0,0,1-5.19-4.78,16.36,16.36,0,0,1-3.16-6.47q-.38-1.12-.63-2.11t-.38-2.11l-.25-1.69q-.13-.28,0-.42a.46.46,0,0,1,.25-.42l1.27-.28.76.28a.83.83,0,0,1,.76.42,3,3,0,0,1,.25,1.27q.13,1.83.25,3.38a19.13,19.13,0,0,0,1,3.38l2-3.94h-2.79V3.76h5.57l.38.42a.88.88,0,0,1,.38.42l-.25.84L269,11.36a17,17,0,0,0,2.15,3.38A17.67,17.67,0,0,0,274,17.54Zm.25,14.06L272,33.86q-1.39-2-2.66-3.8l-2.66-3.52,1.27-1.41a33.91,33.91,0,0,1,3.17,3.09A37.67,37.67,0,0,1,274.27,31.61Z"/>
    <path class="54dfbde4-a208-4790-8c9f-b2e2b0f7f7e8" d="M314.77,11.64H284.13V9.95h6.08V4a3.45,3.45,0,0,1-.13-1,3.42,3.42,0,0,1-.13-1V1.79h1a1.86,1.86,0,0,1,1,0,2.07,2.07,0,0,1,1,.28l.51.84a2.26,2.26,0,0,0-.51.84,1.44,1.44,0,0,0,0,.84V9.95h5.32V2.64q-.13-.42-.38-1.12a11,11,0,0,0-.38-1.12h1a3.48,3.48,0,0,1,1.39,0,2.65,2.65,0,0,1,1.14.56l-.25,3.38h11.9V5.73h-11.9V9.95h13.92ZM310,32.45a3,3,0,0,1-.76,1.69,4.79,4.79,0,0,1-1.52,1.13h-5.82l-.51-2,2,.28,2,.28a2.12,2.12,0,0,0,1.14-.42,2,2,0,0,0,.63-1.27v-4.5H291.22v8.16h-2.79V14.45H310Zm-2.79-12.09v-4.5H291.22v4.5Zm0,5.91v-4.5H291.22v4.5Z"/>
    <path class="54dfbde4-a208-4790-8c9f-b2e2b0f7f7e8" d="M355.52,33l-.25,2H340.08a8.77,8.77,0,0,1-5.19-2.11,23.75,23.75,0,0,1-4.18-4.08q-1.14,1.83-2.4,3.66a34,34,0,0,1-2.66,3.38l-1.27-1.12a24.26,24.26,0,0,0,4.18-7.87,65.13,65.13,0,0,0,1.39-9.28l.25-.28h2.28a.35.35,0,0,1,.25.14,5.81,5.81,0,0,1,.25.7v.56a17.6,17.6,0,0,0-.63,2.53,28,28,0,0,0-.13,2.81,9.56,9.56,0,0,0,1.9,5.63A9.06,9.06,0,0,0,338.81,33V14.17h-9.62V12.76h21.27v1.41h-9.12v7.59h9.12v1.69h-9.12v9.84l4.3.28,4.94-.28A42.46,42.46,0,0,1,355.52,33Zm-.76-19.41h-2.53V7.7h-24.3v5.91h-2.79V6.29H338.3V2.07a5.81,5.81,0,0,0-.25-.7,1.46,1.46,0,0,1-.25-.7q0-.42.25-.42a.49.49,0,0,1,.51,0l2.53.14.25.84a2.93,2.93,0,0,0-.12.84,2.87,2.87,0,0,0-.13.84V6.29h13.67Z"/>
  </g>
</svg>
