<svg id="34ed56ce-3dcd-42f8-b689-082239d0d948" data-name="圖層 1" xmlns="http://www.w3.org/2000/svg" width="356" height="36" viewBox="0 0 356 36">
  <defs>
    <style>
      .\32 2058595-59e6-4986-b20b-7f012a71c10d {
        fill: #fff;
      }
    </style>
  </defs>
  <title>h2-read</title>
  <g>
    <path class="22058595-59e6-4986-b20b-7f012a71c10d" d="M18,12.76H12.15a8.9,8.9,0,0,0,1.52,2.81,29,29,0,0,0,2.28,2.25l-.76,1.69q-1.39-1.12-2.66-2.25A17.75,17.75,0,0,1,10.38,15a32.14,32.14,0,0,1-4.43,3.94A29,29,0,0,1,1,21.76L0,20.64a18.62,18.62,0,0,0,4.81-3.09,19.54,19.54,0,0,0,3.54-4.78H.76V11.36H9.11V5.73H6.33L2.78,10.51,1.27,9.39q1-2,1.9-3.94t1.9-3.94A2.16,2.16,0,0,1,5.19.67.73.73,0,0,1,5.82.25a2.17,2.17,0,0,1,1.39.7A2.87,2.87,0,0,1,8.35,2.07q-.25.42-.63,1T7.09,4H17V5.73H11.64v5.63H18Zm8.1,23.06H23V34.14H8.61v1.69H5.82v-16H26.08Zm-3-9.28V21.2H8.61v5.34Zm0,5.91v-4.5H8.61v4.5Zm7.34-14.34H18.73V4H30.38ZM27.6,16.7v-11H21.52v11Z"/>
    <path class="22058595-59e6-4986-b20b-7f012a71c10d" d="M46.58,27.95q-1,2-2.15,3.8T42,35.26L40.25,33q1.27-1.41,2.41-2.81t2.41-2.81ZM54.93,6.29H49.36V9.11h4.81v1.41H49.36v2.81l5.06-.56v1.13L49.36,15V16.7H46.58V15.57a14.71,14.71,0,0,1-2.79.56,14,14,0,0,1-2.79.28,1.87,1.87,0,0,1-.25-1,1.94,1.94,0,0,1,0-1l5.82-.84V10.51H41.77V9.11h4.81V6.29H41V4.61h5.57a7.26,7.26,0,0,0-.13-1.27,4.73,4.73,0,0,0-.13-1.27l-.25-.84a.45.45,0,0,1,.25-.42.35.35,0,0,1,.25-.14l3,.56v.56a5.13,5.13,0,0,0-.13,1.13A4.06,4.06,0,0,0,49.36,4v.56h5.57Zm12.66,20H43.28V24.86H65.06V22.61H43.79V21.2H65.06V18.95H43.54V17.82H67.59ZM65.06,31a7.19,7.19,0,0,1-1.64,2.67,4.67,4.67,0,0,1-2.66,1H50.37A2.52,2.52,0,0,1,48.6,34a2.12,2.12,0,0,1-.76-1.83v-2a5.81,5.81,0,0,0-.13-1.27,5.39,5.39,0,0,0-.38-1.27l.25-.56a7.21,7.21,0,0,1,2,0,1.38,1.38,0,0,1,1.27,1.41q-.13.56-.25,1.27A3,3,0,0,0,50.37,31a1.92,1.92,0,0,0,.25,1.41q.25.42,1.27.56h7.85a1.88,1.88,0,0,0,1.77-1.27q.38-1.12.76-2.39Zm-5.82-.84-2,1.69q-.89-1.12-1.77-2.11t-1.77-1.83l1-1.12a8.6,8.6,0,0,1,2.4,1.27A24.1,24.1,0,0,1,59.23,30.2ZM71.13,15H64.55V16.7H61.77V15H55.94V13.32h5.82V10.51H57V9.11h4.81V6.29H56.45V4.61h5.32q-.13-.7-.25-1.55t-.25-1.55V1.23l.25-.28h.76l2.53.28v.84a5.08,5.08,0,0,0-.13,1.13,4,4,0,0,0-.13,1.13v.28h5.82V6.29H64.55V9.11h5.32v1.41H64.55v2.81h6.58Zm0,17.44-2,1.69a36.17,36.17,0,0,0-2.15-3,34.45,34.45,0,0,0-2.41-2.67l1.27-1.12a13.92,13.92,0,0,1,2.79,2.39A24.26,24.26,0,0,1,71.13,32.45Z"/>
    <path class="22058595-59e6-4986-b20b-7f012a71c10d" d="M110.11,32.45a3.57,3.57,0,0,1-1,2.39,4.34,4.34,0,0,1-2.53.7H102l-.51-2,1.9.28,1.9.28a2.46,2.46,0,0,0,1.39-.42,2,2,0,0,0,.63-1.27V26.26l-1.52,1.13a29.91,29.91,0,0,1-5.44-4.5A30,30,0,0,1,96.44,17a24.26,24.26,0,0,1-4.18,6.19,31.68,31.68,0,0,1-5.7,4.5l-1.52-1.12v9.28H82.52V9.11H94.67V2.36l-.25-.84a1.62,1.62,0,0,1-.25-.84c0-.28,0-.42.13-.42s.21-.09.38,0a6.44,6.44,0,0,1,1.9,0,1.16,1.16,0,0,1,1.14,1l-.25,2V9.11h12.66ZM94.67,10.51H85.05V26a20.87,20.87,0,0,0,1.77-1.27,20.87,20.87,0,0,1,1.77-1.27,22.85,22.85,0,0,0,4.3-5.77A21.26,21.26,0,0,0,94.67,10.51Zm12.66,14.91V10.51H97.71a18.09,18.09,0,0,0,2.91,8.72A17.44,17.44,0,0,0,107.33,25.42Z"/>
    <path class="22058595-59e6-4986-b20b-7f012a71c10d" d="M152.64,23.73l-1.27,1.41A41.5,41.5,0,0,1,144,20.92a60.23,60.23,0,0,1-6.58-5.34h-.76a47.78,47.78,0,0,1-7.09,5.34q-3.8,2.25-7.85,4.22L121,23.73a37.79,37.79,0,0,0,7.72-4.5,47,47,0,0,0,6.71-6.47H139A31.1,31.1,0,0,0,145,19.09,76.68,76.68,0,0,0,152.64,23.73Zm-.51-11h-2.79v-7H125.3v7h-2.79V4.32h13.42a12.19,12.19,0,0,1-.38-1.69,11.28,11.28,0,0,1-.13-1.69l2-.28h1.27v.84a5.13,5.13,0,0,0-.13,1.13,4.05,4.05,0,0,0-.13,1.13v.56h13.67ZM133.4,10.23q-1,.84-4.56,3.66A45.55,45.55,0,0,1,124.28,17a1.5,1.5,0,0,1-.51-.7q-.38-.56-.51-.7,1.52-1.41,3.67-3.23a19.75,19.75,0,0,0,3.17-3.52,4.72,4.72,0,0,1,.25-.84.5.5,0,0,1,.51-.28q.63,0,1.39,1A6.94,6.94,0,0,1,133.4,10.23Zm12.91,25.31h-2.79v-2H130.61v2h-2.79V22.89h18.48Zm-2.79-3.37V24.29H130.61v7.88Zm7.34-16.87L149.6,17a44.67,44.67,0,0,1-4.18-3.09,50.35,50.35,0,0,1-3.67-3.66A2.73,2.73,0,0,1,142.64,9a1.7,1.7,0,0,1,1.14-.7.91.91,0,0,1,.38.14l.38.42q1.39,1.83,2.91,3.52A28.81,28.81,0,0,0,150.87,15.29Z"/>
    <path class="22058595-59e6-4986-b20b-7f012a71c10d" d="M177.95,18.95q-2.66,0-2.53-1.83t2.28-1.83q1.65.14,1.27,2.67a7.08,7.08,0,0,1-3,4.36l-.51-.84A5,5,0,0,0,177.95,18.95Z"/>
    <path class="22058595-59e6-4986-b20b-7f012a71c10d" d="M214.14,21.76h-4.05V30.2a7.61,7.61,0,0,1,1.77-.84,6.56,6.56,0,0,1,2-.56V30.2a2.83,2.83,0,0,1-.76.42,2.66,2.66,0,0,0-1,.42q-1.14.56-4.68,2.39t-3.92,2.11a1.57,1.57,0,0,1-1.14-1.12A4.63,4.63,0,0,1,202,33a.5.5,0,0,1,.51-.28,3.71,3.71,0,0,1,.76-.28V19.23l-.51-1.12v-.56h1a11011,11011,0,0,1,2.28.28l.25.56L206,19.51a2.18,2.18,0,0,0-.25,1.13v11l1.77-.56V14.73h-4.05V2.92h10.38V14.73h-3.8v5.63h4.05ZM211.36,13V4.32H206V13Zm22.28,2.81-1.27,1.41a14.68,14.68,0,0,1-2.28-1.55,12.3,12.3,0,0,1-2-1.55,19.47,19.47,0,0,1-2.28-2.39,17.23,17.23,0,0,1-2-2.39l-.51-.56q-1.9,2.53-3.8,4.64a27.2,27.2,0,0,1-4.56,3.8l-1-1.41a17.14,17.14,0,0,0,4.3-4.08,31.75,31.75,0,0,0,3-5.2h-5.57V5.17h5.82q.13-.42.25-1t.25-1q-.13-.7-.25-1.27a3.78,3.78,0,0,1-.25-1.27c0-.19.08-.28.25-.28a.15.15,0,0,1,.25,0,9.46,9.46,0,0,1,1.39.14,4.29,4.29,0,0,1,1.39.42l.25.84a6.38,6.38,0,0,0-.51,1.69,5.62,5.62,0,0,0,0,1.69h8.1V6.57h-7.34a16.89,16.89,0,0,0,3.42,5.34A24,24,0,0,0,233.64,15.86Zm-.25,5.06H222.25l-1.77,4.22h9.62a.82.82,0,0,1,.63.28,2.19,2.19,0,0,1,.38.56,16.71,16.71,0,0,1-.51,2.67,13.47,13.47,0,0,0-.51,2.67,7.57,7.57,0,0,1-1,1.83,8.42,8.42,0,0,1-1.52,1.55h-7.34l-.51-2,2.53.56H226a4.82,4.82,0,0,0,1.65-3.09q.38-2,.63-3.37H217.18l2.28-5.91h-4.81V19.51h18.74Zm-5.57-5.34h-8.36V14.17h8.36Z"/>
    <path class="22058595-59e6-4986-b20b-7f012a71c10d" d="M274.39,33.29l-.25,2h-15.7A16.16,16.16,0,0,1,252,33.71a22.59,22.59,0,0,1-5.44-3.52q-.63,1.41-1.39,2.81t-1.64,2.81l-1.14-1.41a42.25,42.25,0,0,0,1.77-6.33,41.57,41.57,0,0,0,.88-6.61V19.79l.51-.28a10.53,10.53,0,0,1,1.64.14q.76,0,.89,1.27-.13,1-.25,2.11a10.92,10.92,0,0,0-.25,2.39,5.9,5.9,0,0,0,.63,2.67,11.28,11.28,0,0,0,1.39,2.67V16.42h-6.33V15h6.33V8.26h-5.32V6.86h5.32V2.36a6,6,0,0,0-.25-.7,1.46,1.46,0,0,1-.25-.7.45.45,0,0,1,.25-.42,1,1,0,0,1,.51-.14l2.53.28.25.84a5.13,5.13,0,0,0-.13,1.13,4.06,4.06,0,0,0-.13,1.13V6.86h4.3V8.26h-4.3V15h4.81v1.41h-4.81v6.19h4.3v1.69h-4.3v7.88q2,.56,4.3,1t4.56.42q2.41-.14,4.94-.14t4.94-.14Zm-.25-7.87a18.78,18.78,0,0,1-1.27,3.23,3.11,3.11,0,0,1-2,2.11,3.53,3.53,0,0,1-2.66-1.55,10.56,10.56,0,0,1-1.65-2.67,30.36,30.36,0,0,1-2.41,2.39,30.51,30.51,0,0,1-2.4,2.39l-1-1.69a26.23,26.23,0,0,0,2.66-2.81,28.25,28.25,0,0,0,2.41-3.09q-.76-3.66-1.39-7.31t-.89-7.31H261V24.57l3.29-1.41v1.69a38.38,38.38,0,0,0-3.8,2.11,35.29,35.29,0,0,0-3.54,2.39,2.8,2.8,0,0,1-1.14-1.12,5.39,5.39,0,0,1-.38-1.41A2,2,0,0,1,256.8,26q.76-.28,1.39-.56V7.7h5.32A26.6,26.6,0,0,1,263.25,4L263,.39l1-.14a1.9,1.9,0,0,1,1.52.28q.51.28.51,1.55V7.7h7.09V9.11h-6.84q.13,2.67.38,5.34a39.4,39.4,0,0,0,.89,5.34q.51-1.69.89-3.37a16.56,16.56,0,0,1,.88-3.37h.25a4.88,4.88,0,0,1,1.27.28,1.61,1.61,0,0,1,1,1.13,44.3,44.3,0,0,1-1.52,4.5q-1.27,3.38-1.77,5.06a6,6,0,0,0,.63,1.83,3.57,3.57,0,0,0,1.39,1.83,5.18,5.18,0,0,0,1-1.83q.25-1.12.51-2.11Zm-1.27-20a6.61,6.61,0,0,1-1.14.84,13.25,13.25,0,0,0-1.14.84,20,20,0,0,0-1.14-2.39q-.63-1.12-1.14-2.11l1.52-1.12q.76.84,1.52,1.83T272.87,5.45Z"/>
    <path class="22058595-59e6-4986-b20b-7f012a71c10d" d="M314.39,19.51H300.21V34.42h-2.79V19.51H283.25V18.11h14.18V3.2H285V1.51h27.85V3.2H300.21V18.11h14.18Zm-20-5.34-3,2.53q-.89-2.53-1.9-5.06T287,6.57l1.27-.84a46.34,46.34,0,0,1,3.17,3.94Q293,11.78,294.38,14.17ZM311.6,8l-.25.56-.51.28-6.33,7.31L303,14.73q1.52-2.39,2.91-4.64t2.91-4.64a5,5,0,0,1,1.52,1A2.87,2.87,0,0,1,311.6,8Z"/>
    <path class="22058595-59e6-4986-b20b-7f012a71c10d" d="M337.67,20.07l-2.53.84a5.79,5.79,0,0,1-.38-1.12,5.92,5.92,0,0,1-.38-1.12l-2.28.56V35.54h-2.53v-16l-3,.56-.51.28a1.33,1.33,0,0,0-.51.28q-.63-.14-1-1.12a6.58,6.58,0,0,1-.25-1.41h2a14,14,0,0,0,1.52-2.39q.76-1.12,1.52-2.39l-2.53-2.53-2.53-2.53,1-1.12a3.37,3.37,0,0,1,.89.14q.38.28.89.7.88-2,1.77-3.8t1.77-3.8a5,5,0,0,1,1.52.56,5.69,5.69,0,0,1,1.52,1.41c-.17,0-.25,0-.25.14a.35.35,0,0,0-.25.14,12.45,12.45,0,0,0-2.41,3.09,40.64,40.64,0,0,0-1.9,3.66l2,1.69a14,14,0,0,0,1.52-2.39,14.2,14.2,0,0,0,1-2.67,11,11,0,0,1,1.52.7,2.2,2.2,0,0,1,1,1.55,25.19,25.19,0,0,0-3.42,4.36q-2.28,3.52-3.42,5.2l4.81-.56a7.52,7.52,0,0,1-.76-1.27,5.11,5.11,0,0,1-.51-1.27l1.52-1.41a25.65,25.65,0,0,1,1.9,3.09A34.51,34.51,0,0,1,337.67,20.07Zm-8.61,3.09a17.75,17.75,0,0,0-1.9,4.5q-1.14,3.23-1.65,5.06l-1.27-.56q.51-2.53.89-5.06T326,22a8.33,8.33,0,0,0,1.52.14A2.34,2.34,0,0,1,329.06,23.17Zm8.35,6.75-2.79,1.41q-.25-2.25-.63-4.22t-.63-3.94L334.63,22q.63,1.83,1.39,3.8T337.42,29.92Zm17,2.25a6,6,0,0,1-.76,2,2.67,2.67,0,0,1-1.52,1.13h-3.29L348,35l-.51-2q.51.14,1.27.28c.42.09.93.19,1.52.28a3.08,3.08,0,0,0,.76-.42,2.14,2.14,0,0,0,.51-1V18.95h-7.34v6.47c0,.28.17.47.51.56a1.82,1.82,0,0,0,.76.28h5.57v1.41h-7.6a2.09,2.09,0,0,1-1.64-1,2.77,2.77,0,0,1-.38-1.83V18.95h-1V35.54h-2.79V2.36h16.71Zm-2.79-21.09V3.76H340.46v7.31ZM345,17.54V12.48h-4.56v5.06Zm.51-8.44-2.28,1.69-1-2.25a19.4,19.4,0,0,0-1-2l1.52-1.12a8.62,8.62,0,0,1,1.39,1.69A10.89,10.89,0,0,1,345.52,9.11Zm5.57-2.25-1.52,2-1.52,2-2-.84a9.56,9.56,0,0,0,1.39-2.39q.51-1.12,1.14-2.39a10.87,10.87,0,0,1,1.39.42A2,2,0,0,1,351.09,6.86Zm.51,10.69V12.48h-4.05v5.06Z"/>
  </g>
</svg>
