<svg id="20feb965-07bc-4d0d-b06e-0492a887ff05" data-name="圖層 1" xmlns="http://www.w3.org/2000/svg" width="356" height="36" viewBox="0 0 356 36">
  <defs>
    <style>
      .dd1d7d27-4bed-4e1e-9444-c234964cab9a {
        fill: #c80c18;
      }
    </style>
  </defs>
  <title>h2-watch</title>
  <g>
    <path class="dd1d7d27-4bed-4e1e-9444-c234964cab9a" d="M22.53,35.79H19.75V34.1H2.53v1.69H0V5.7H6.84L8.35,1.2a1.21,1.21,0,0,1,.13-.7A.82.82,0,0,1,9.11.21a6.75,6.75,0,0,1,1.77.28,3.18,3.18,0,0,1,1.77.7v.28a13.32,13.32,0,0,0-1.77,2.11A11.78,11.78,0,0,0,9.37,5.7H22.53ZM19.75,15V7.38H2.53V15Zm0,8.16V16.38H2.53v6.75Zm0,9.28V24.54H2.53v7.88Z"/>
    <path class="dd1d7d27-4bed-4e1e-9444-c234964cab9a" d="M67.08,22.85H55.18a11.36,11.36,0,0,0,1.27,2.53A17.55,17.55,0,0,0,58,27.63l3.8-4.22H62a2.41,2.41,0,0,1,1.39.56,2.62,2.62,0,0,1,.89,1.41q-.25.7-2.28,1.83T59.24,29a30.08,30.08,0,0,0,3.42,2.53,22.91,22.91,0,0,0,3.92,2l-1.27,1.69a30.23,30.23,0,0,1-7.85-4.64,22.67,22.67,0,0,1-5.57-7.73H50.63q-.76.84-1.65,1.69t-1.65,1.69v5.06l7.34-2-.25,2L44.55,34.1q-1,.28-1.65.42a2.31,2.31,0,0,0-1.39,1H41a1.2,1.2,0,0,1-.89-.84A1.85,1.85,0,0,1,40,33.54q.13-.7,2-1t2.53-.42V27.91a22.17,22.17,0,0,1-3.42,1.41,28.43,28.43,0,0,1-3.42,1.13l-1.27-1.12q3.16-1.27,5.57-2.39a16.91,16.91,0,0,0,4.81-4.08H36.45V21.45H50.88l.51-1.69.51-1.69a8.17,8.17,0,0,1-2,.56,8.56,8.56,0,0,1-2,.28l-.76-1.69h1.27a1.47,1.47,0,0,0,1.39-1.12,15.49,15.49,0,0,0,.13-2H46.58V20.6H44V14.13H41.26v5.63H38.47V12.45H44V10.2H36.7V8.79H44V5.41H41L38.73,7.95l-1.27-.56Q38.09,5.84,39,4A15,15,0,0,1,40.75.63a2.12,2.12,0,0,1,1.14.42A6,6,0,0,1,43,2a6.58,6.58,0,0,1-.51.84A2.23,2.23,0,0,0,42,4h2q-.13-1-.25-1.69A5.07,5.07,0,0,1,43.54.91a.59.59,0,0,1,.25-.56.49.49,0,0,1,.51,0l2.53.28.25,1.13q-.13.42-.25,1A3,3,0,0,0,46.58,4H52.4V5.41H46.58V8.79h7.34V10.2H46.58v2.25h6.08v4.5q.38.14,1.39.42t1.14.7q-.13.42-.63,1.69a10.06,10.06,0,0,0-.63,1.69H67.08ZM59,3.16a2.94,2.94,0,0,0-.13.84,2.9,2.9,0,0,0-.13.84V15.54H55.94V9.35q0-1.27-.13-3.66a19.61,19.61,0,0,0-.38-3.37l1-.28,2.28.28Zm6.08-1.69a4.58,4.58,0,0,0-.13,1,2.52,2.52,0,0,0-.13.7V16.38A4.86,4.86,0,0,1,64,18.49,8.44,8.44,0,0,1,62.53,20h-3.8L58,19.76l-.51-1.69a4.35,4.35,0,0,1,1.52.28l1.52.28a2.68,2.68,0,0,0,.89-.42,3.78,3.78,0,0,0,.63-1V2.88L61.77,2a1.63,1.63,0,0,1-.25-.84.62.62,0,0,1,.13-.42A.49.49,0,0,1,62,.63L64.8.91a.43.43,0,0,1,.13.28A.42.42,0,0,1,65.06,1.48Z"/>
    <path class="dd1d7d27-4bed-4e1e-9444-c234964cab9a" d="M95.68,16.66h-19V15.26h8.35V12.73H79V2H94.17V12.73H87.84v2.53h7.85ZM83.53,28.48q-1.39,1.41-2.91,2.67a37.45,37.45,0,0,1-2.91,2.39l-1-.84q1.14-1.55,2.15-3t2.15-3Zm9.87-2.25H87.84v5.34a7.56,7.56,0,0,1-.63,2.11,3.91,3.91,0,0,1-1.39,1.55H81l-.51-2,1.52.28,1.52.28a2.71,2.71,0,0,0,1.27-.56,3.31,3.31,0,0,0,.51-1.12V26.23H79.48V18.63H93.41Zm-2-19.69V3.45H81.76V6.54Zm0,4.78V7.95H81.76v3.38Zm-.51,13.22V20.32H82.27v4.22Zm3.8,7-2,2q-1-1.55-1.9-2.81T89.1,28.48l1.27-1.41q1,1,2.15,2.25T94.67,31.57Zm13.17-8.16-.25.84a15.66,15.66,0,0,1-2.78,3.66q-2.15,2.11-3.54,3.38-1.77,1.13-3.54,2.11l-3.54,1.83-1-1.41a40.08,40.08,0,0,0,5.44-3.66A20.7,20.7,0,0,0,103,25.38q.38-.84,1-2.11T105.3,22a5.16,5.16,0,0,1,1.52.28A1.61,1.61,0,0,1,107.84,23.41Zm-2-20.53-.25.56a43,43,0,0,1-4.68,4.22q-2.53,2-4.94,3.94L94.67,10.2l4.18-4.08A24.66,24.66,0,0,0,102.27,2a2.21,2.21,0,0,0,.38-.56A.9.9,0,0,1,103,.91l1-.28,1,1.13A2.56,2.56,0,0,1,105.81,2.88Zm2,9.84q-.63,2-5.06,5.2t-6.58,4.36l-1-1.41q2.41-2.11,4.81-4.36a47.65,47.65,0,0,0,4.56-4.92.85.85,0,0,1,.25-.56,1,1,0,0,1,.76-.28,3,3,0,0,1,1.14.7A2.54,2.54,0,0,1,107.84,12.73Z"/>
    <path class="dd1d7d27-4bed-4e1e-9444-c234964cab9a" d="M147.83,15.54H117.45V14.13h9.11a21,21,0,0,0-1.27-3.23q-.76-1.41-1.52-2.67l1-1.12H120V5.41h11.39V2.88a4.73,4.73,0,0,1-.25-1,3.5,3.5,0,0,1-.25-1l.25-.28.51-.28a5.82,5.82,0,0,1,1.27.14,6.69,6.69,0,0,1,1.27.42V1.2A11.41,11.41,0,0,0,134,2.88a11.41,11.41,0,0,0-.13,1.69v.84h11.65V7.1h-5.32l2,1.41a1.8,1.8,0,0,1-.38.7,2.41,2.41,0,0,1-.63.7l-3,4.22h9.62Zm-4.56,20h-2.79V33.82H125v1.69h-2.79V18.63h21Zm-2.79-10.12V20.32H125v5.06Zm0,6.47V27.07H125v4.78ZM138.21,7.1H126.06q.89,1.27,1.77,2.67t2,2.67l-1.77,1.69h8.86l-.76-.84q.63-1.55,1.14-3.09T138.21,7.1Z"/>
    <path class="dd1d7d27-4bed-4e1e-9444-c234964cab9a" d="M173.9,18.91q-2.66,0-2.53-1.83t2.28-1.83q1.65.14,1.27,2.67a7.07,7.07,0,0,1-3,4.36l-.51-.84A5,5,0,0,0,173.9,18.91Z"/>
    <path class="dd1d7d27-4bed-4e1e-9444-c234964cab9a" d="M211.87,15.26H206V20h5.57v1.41h-4.3a27,27,0,0,0,1.77,3.94q1,2,2,3.66l-1.52.84a24.92,24.92,0,0,1-1.9-2.39A27.22,27.22,0,0,1,206,24.82V35.51h-2.53V24.82a17.77,17.77,0,0,1-1.77,3.09,16.28,16.28,0,0,1-2,2.81l-.25-2,1.77-3.66a33.52,33.52,0,0,0,1.52-3.66H198.7V20h4.81V15.26H198.7V13.57H202a16.2,16.2,0,0,0-1.14-2.11q-.63-1.12-1.14-2.11L201,7.66a23.56,23.56,0,0,1,1.77,2.25,20.5,20.5,0,0,0,1.77,2.25l-2,1.41h4.3L206,13q.51-1.27,1-2.67a21.81,21.81,0,0,1,1-2.67l1-.28,2,.56V9.07a13.43,13.43,0,0,0-1.77,2.11,12.72,12.72,0,0,0-1.27,2.39h3.8Zm-.76-8.16H199.71V5.7h3.8V3.16q-.13-.42-.25-1a1.87,1.87,0,0,1-.25-1l.25-.56,2.53.28a.41.41,0,0,1,.38.28l.38.84a5.39,5.39,0,0,0-.38,1.27A5.75,5.75,0,0,0,206,4.57V5.7h5.06Zm17.72,22.22q-.51,3.23-1.65,4.22t-3.92.84a5,5,0,0,1-2.66-.56q-.89-.56-.89-2.53v-9h-1.77A18.55,18.55,0,0,1,215.29,30a18.44,18.44,0,0,1-5.7,5.2l-1-1.12a15.29,15.29,0,0,0,4.81-4.92,18.55,18.55,0,0,0,1.77-6.89h-2.28V2H226.3V22.29h-3.8V32.41l.51.28h2a6.52,6.52,0,0,0,.89-2.11,15.43,15.43,0,0,1,.38-2.11ZM223.51,8.51V3.16h-8.1V8.51Zm0,5.63V10.2h-8.1v3.94Zm0,6.75V15.54h-8.1v5.34Z"/>
    <path class="dd1d7d27-4bed-4e1e-9444-c234964cab9a" d="M251.86,3.45h-4.05v8.44h3.29v11h-3.29v9.28h2.79v1.41h-8.35v1.69h-2.79V2h12.41Zm-6.58,8.44V3.45h-3v8.44Zm3,9.28V13.29h-6.08v7.88Zm-3,11V22.85h-3v9.28ZM268.82,6.82H255.66L251.61,11l-1.27-1.12a35,35,0,0,0,2.91-4.36q1.27-2.25,2.66-4.64l.51-.56a13.23,13.23,0,0,0,1.14.84A13.4,13.4,0,0,0,258.7,2l-2,3.09h12.15Zm-9.37,28.69h-2.79V33.82h-2.28v1.69h-2.79V20.88h7.85Zm-2.79-3.09V22.57h-2.28v9.84Zm9.62-13.5H254.9V9.63h11.39Zm-2.79-1.41V11h-5.82v6.47Zm5.06,18H266V33.82h-2.28v1.69h-2.53V20.88h7.34ZM266,32.41V22.57h-2.28v9.84Z"/>
    <path class="dd1d7d27-4bed-4e1e-9444-c234964cab9a" d="M290.84,24.26a52.49,52.49,0,0,0-5.19,1.83A15.38,15.38,0,0,0,281,28.76a1,1,0,0,0-.51.14A.68.68,0,0,0,280,29q-.63-.14-.89-1.12a6.55,6.55,0,0,1-.25-1.41l4.68-1.69V14.41h-3.8V13h3.8V2.88h-4.56V1.48h11.65V2.88h-4.3V13h4.05v1.41h-4.05V24l4.56-1.69Zm20,4.5a20.6,20.6,0,0,1-1.77,3,3.63,3.63,0,0,1-2.79,1.55h-4.05a2,2,0,0,1-1.65-1.12,3.31,3.31,0,0,1-.38-2V22.29h-1.77q-.38,6.33-3.8,9a20.78,20.78,0,0,1-8.86,3.66l-.51-2a14.28,14.28,0,0,0,7-3.23q2.53-2.53,3.16-7.45h-3.29V1.2h15.7V22.29H303v7.59q0,1.41.76,1.69a6,6,0,0,0,2,.28h.51a8,8,0,0,0,1.14-2.11q.38-1,.89-2.11ZM305,7.38V2.6H294.64V7.38Zm0,6.75V8.79H294.64v5.34Zm0,6.75V15.54H294.64v5.34Z"/>
    <path class="dd1d7d27-4bed-4e1e-9444-c234964cab9a" d="M331.85,12.16h-4.56V24.82l3.29-1.41V25.1L322,29a.5.5,0,0,0-.51.28l-.51.28h-.51a7.52,7.52,0,0,1-.63-1.12,5.92,5.92,0,0,1-.38-1.12l2.53-.84q1.14-.42,2.53-.84V12.16h-4.05V10.76h4.05V3.16l-.25-.84a1.23,1.23,0,0,1-.25-.84.61.61,0,0,1,.13-.42.48.48,0,0,1,.38-.14,3.4,3.4,0,0,1,1.39.28l1.39.28.25.56a4.53,4.53,0,0,0-.13,1,4.58,4.58,0,0,0-.13,1v6.75h4.56Zm19,6.19H338.43l-1,2.53h12.66A37,37,0,0,1,349.19,31q-1,3.66-7.72,3.94L341,33.54l.25-.56a2.07,2.07,0,0,1,1,.28,8,8,0,0,0,1,.28l1.27-.28q1.9-1,2.41-4.78t.63-5.91h-1.27a24.43,24.43,0,0,1-3.8,7.17,21.8,21.8,0,0,1-5.82,5.2l-1.27-1.41a13.94,13.94,0,0,0,4.94-4.64,28.56,28.56,0,0,0,3.17-6.33H342a21.11,21.11,0,0,1-5.19,6.75,29.84,29.84,0,0,1-7.21,4.22l-1.27-1.41a22.75,22.75,0,0,0,6-3.66,19.78,19.78,0,0,0,4.18-5.91h-1.77a46.86,46.86,0,0,1-3.54,3.8,25.69,25.69,0,0,1-4.05,3L327.8,28.2a23.69,23.69,0,0,0,4.43-4.5,31.52,31.52,0,0,0,3.17-5.34h-5.06V16.95h20.51Zm-2-3.94h-15.7V2.32h15.7ZM346,7.66V3.73H335.9V7.66ZM346,13V9.07H335.9V13Z"/>
  </g>
</svg>
