<svg id="74f304a2-abe3-4b94-b841-79e8bf4481d9" data-name="圖層 1" xmlns="http://www.w3.org/2000/svg" width="43.9" height="43.95" viewBox="0 0 43.9 43.95">
  <defs>
    <style>
      .\39 cfe8765-a3db-4336-8d6c-ec5c1b4c533d {
        opacity: 0.3;
      }

      .\38 dca7f81-0bef-41a7-8138-b4c77014bbbf {
        fill: #578ca9;
      }

      .\30 12c1e54-de2d-466a-9315-27e165fcfb66, .\32 2c89d2d-b0a1-4089-8c2f-21d7447f6af8 {
        fill: none;
        stroke: #578ca9;
        stroke-linecap: round;
        stroke-linejoin: round;
        stroke-width: 1.5px;
      }

      .\30 12c1e54-de2d-466a-9315-27e165fcfb66 {
        stroke-dasharray: 8.75 2.92;
      }
    </style>
  </defs>
  <title>checkStep</title>
  <g>
    <g class="9cfe8765-a3db-4336-8d6c-ec5c1b4c533d">
      <path class="8dca7f81-0bef-41a7-8138-b4c77014bbbf" d="M16.49,43.73a46.57,46.57,0,0,1,6.66-1c1.11-.12,2.22-.14,3.33-.21l3.33-.07c2.22,0,4.44.08,6.66.28a47.15,47.15,0,0,1,6.66,1h0a.07.07,0,0,1,0,.15L29.82,44l-13.33-.07a.07.07,0,0,1,0-.15Z"/>
    </g>
    <g>
      <g>
        <path class="22c89d2d-b0a1-4089-8c2f-21d7447f6af8" d="M31.86,12a4.84,4.84,0,0,1,0-6.84L27.41.75.75,27.41,5.2,31.86A4.84,4.84,0,1,1,12,38.7l4.45,4.45L43.15,16.49,38.7,12A4.84,4.84,0,0,1,31.86,12Z"/>
        <g>
          <line class="22c89d2d-b0a1-4089-8c2f-21d7447f6af8" x1="17.84" y1="10.31" x2="20.56" y2="13.03"/>
          <line class="012c1e54-de2d-466a-9315-27e165fcfb66" x1="22.62" y1="15.09" x2="29.84" y2="22.31"/>
          <line class="22c89d2d-b0a1-4089-8c2f-21d7447f6af8" x1="30.87" y1="23.34" x2="33.58" y2="26.06"/>
        </g>
      </g>
      <g>
        <line class="22c89d2d-b0a1-4089-8c2f-21d7447f6af8" x1="14.31" y1="29.59" x2="22.54" y2="21.36"/>
        <line class="22c89d2d-b0a1-4089-8c2f-21d7447f6af8" x1="26.05" y1="25.09" x2="26.15" y2="24.98"/>
        <line class="22c89d2d-b0a1-4089-8c2f-21d7447f6af8" x1="23.75" y1="27.38" x2="23.85" y2="27.28"/>
        <line class="22c89d2d-b0a1-4089-8c2f-21d7447f6af8" x1="17.93" y1="33.21" x2="21.43" y2="29.71"/>
        <line class="22c89d2d-b0a1-4089-8c2f-21d7447f6af8" x1="10.69" y1="25.97" x2="14.19" y2="22.47"/>
      </g>
    </g>
  </g>
</svg>
