<svg id="633d1b30-c43f-42e8-9564-62d3add6598c" data-name="圖層 1" xmlns="http://www.w3.org/2000/svg" width="43.9" height="43.95" viewBox="0 0 43.9 43.95">
  <defs>
    <style>
      .d58ebd1b-1d3d-465b-8008-9319d985eb61 {
        opacity: 0.3;
      }

      .\36 7969319-31ed-47d2-9de1-4ce84afce075 {
        fill: #88b04b;
      }

      .\30 0b3baa8-5ba7-4bba-9bf7-fb9b24eac8b4, .\30 5211c33-0614-49dd-9a10-d8fd9395a61e {
        fill: none;
        stroke: #88b04b;
        stroke-linecap: round;
        stroke-linejoin: round;
        stroke-width: 1.5px;
      }

      .\30 5211c33-0614-49dd-9a10-d8fd9395a61e {
        stroke-dasharray: 8.75 2.92;
      }
    </style>
  </defs>
  <title>checkStep</title>
  <g>
    <g class="d58ebd1b-1d3d-465b-8008-9319d985eb61">
      <path class="67969319-31ed-47d2-9de1-4ce84afce075" d="M16.49,43.73a46.57,46.57,0,0,1,6.66-1c1.11-.12,2.22-.14,3.33-.21l3.33-.07c2.22,0,4.44.08,6.66.28a47.15,47.15,0,0,1,6.66,1h0a.07.07,0,0,1,0,.15L29.82,44l-13.33-.07a.07.07,0,0,1,0-.15Z"/>
    </g>
    <g>
      <g>
        <path class="00b3baa8-5ba7-4bba-9bf7-fb9b24eac8b4" d="M31.86,12a4.84,4.84,0,0,1,0-6.84L27.41.75.75,27.41,5.2,31.86A4.84,4.84,0,1,1,12,38.7l4.45,4.45L43.15,16.49,38.7,12A4.84,4.84,0,0,1,31.86,12Z"/>
        <g>
          <line class="00b3baa8-5ba7-4bba-9bf7-fb9b24eac8b4" x1="17.84" y1="10.31" x2="20.56" y2="13.03"/>
          <line class="05211c33-0614-49dd-9a10-d8fd9395a61e" x1="22.62" y1="15.09" x2="29.84" y2="22.31"/>
          <line class="00b3baa8-5ba7-4bba-9bf7-fb9b24eac8b4" x1="30.87" y1="23.34" x2="33.58" y2="26.06"/>
        </g>
      </g>
      <g>
        <line class="00b3baa8-5ba7-4bba-9bf7-fb9b24eac8b4" x1="14.31" y1="29.59" x2="22.54" y2="21.36"/>
        <line class="00b3baa8-5ba7-4bba-9bf7-fb9b24eac8b4" x1="26.05" y1="25.09" x2="26.15" y2="24.98"/>
        <line class="00b3baa8-5ba7-4bba-9bf7-fb9b24eac8b4" x1="23.75" y1="27.38" x2="23.85" y2="27.28"/>
        <line class="00b3baa8-5ba7-4bba-9bf7-fb9b24eac8b4" x1="17.93" y1="33.21" x2="21.43" y2="29.71"/>
        <line class="00b3baa8-5ba7-4bba-9bf7-fb9b24eac8b4" x1="10.69" y1="25.97" x2="14.19" y2="22.47"/>
      </g>
    </g>
  </g>
</svg>
