<svg id="bf43f4c1-84b9-4261-aa18-61522f3272e0" data-name="圖層 1" xmlns="http://www.w3.org/2000/svg" width="47.9" height="43.9" viewBox="0 0 47.9 43.9">
  <defs>
    <style>
      .\33 90ca8c6-1593-45b3-8eb8-d970577f240a {
        fill: none;
        stroke: #88b04b;
        stroke-linecap: round;
        stroke-linejoin: round;
        stroke-width: 1.5px;
      }
    </style>
  </defs>
  <title>checkStep</title>
  <g>
    <path class="390ca8c6-1593-45b3-8eb8-d970577f240a" d="M43.6,35,36,31.16a2.92,2.92,0,0,1-1.61-2.61v-3c.21-.25.46-.56.72-.93a17.7,17.7,0,0,0,2.38-4.79,2.39,2.39,0,0,0,1.7-2.28v-3.2a2.39,2.39,0,0,0-.8-1.77V7.95s.95-7.2-8.8-7.2-8.8,7.2-8.8,7.2v4.63a2.38,2.38,0,0,0-.8,1.77v3.2a2.4,2.4,0,0,0,1.11,2,15.87,15.87,0,0,0,2.89,6v2.92A2.91,2.91,0,0,1,22.43,31l-7.14,3.89a6.41,6.41,0,0,0-3.34,5.63v2.59h35.2V40.71A6.41,6.41,0,0,0,43.6,35Z"/>
    <path class="390ca8c6-1593-45b3-8eb8-d970577f240a" d="M15.29,34.93l4.76-2.59s0,0,.05,0L22.43,31a2.9,2.9,0,0,0,1.52-2.56V25.55a15.33,15.33,0,0,1-1.67-2.66c-.11-.22-.21-.44-.32-.68l0-.1c-.11-.24-.21-.49-.31-.75l0-.05q-.13-.35-.25-.71l-.06-.2c-.08-.27-.16-.54-.22-.83a2.39,2.39,0,0,1-1.11-2v-3.2a2.38,2.38,0,0,1,.8-1.77V8.06a8.79,8.79,0,0,0-5.6-1.71c-7.65,0-8,6.4-8,6.4v4a2.17,2.17,0,0,0-.8,1.53V21a2.07,2.07,0,0,0,1,1.74,11.49,11.49,0,0,0,3,5.17v2.53A2.52,2.52,0,0,1,9,32.69L3.64,36A5.55,5.55,0,0,0,.75,40.91v2.23h11.2V40.56a6.41,6.41,0,0,1,3.34-5.63Z"/>
  </g>
</svg>
