<svg id="3a76922b-b4b7-4ae1-a31a-9c913bca7c06" data-name="圖層 1" xmlns="http://www.w3.org/2000/svg" width="34.4" height="43.9" viewBox="0 0 34.4 43.9">
  <defs>
    <style>
      .d7477247-1055-4380-b95f-cdb852319cec {
        fill: none;
        stroke: #ccc;
        stroke-linecap: round;
        stroke-linejoin: round;
        stroke-width: 1.5px;
      }
    </style>
  </defs>
  <title>checkStep</title>
  <g>
    <path class="d7477247-1055-4380-b95f-cdb852319cec" d="M33.65,11,23.41.75H.75v42.4h32.9Zm0,0"/>
    <polygon class="d7477247-1055-4380-b95f-cdb852319cec" points="23.41 0.75 23.41 10.98 33.65 10.98 23.41 0.75"/>
    <line class="d7477247-1055-4380-b95f-cdb852319cec" x1="7.12" y1="11.72" x2="14.12" y2="11.72"/>
    <line class="d7477247-1055-4380-b95f-cdb852319cec" x1="7.12" y1="17.57" x2="11.12" y2="17.57"/>
    <line class="d7477247-1055-4380-b95f-cdb852319cec" x1="18.18" y1="17.57" x2="23.52" y2="17.57"/>
    <line class="d7477247-1055-4380-b95f-cdb852319cec" x1="10.9" y1="22.69" x2="18.38" y2="22.69"/>
    <line class="d7477247-1055-4380-b95f-cdb852319cec" x1="7.12" y1="27.8" x2="19.86" y2="27.8"/>
    <line class="d7477247-1055-4380-b95f-cdb852319cec" x1="21.82" y1="22.69" x2="27.14" y2="22.69"/>
    <line class="d7477247-1055-4380-b95f-cdb852319cec" x1="14.57" y1="17.57" x2="14.71" y2="17.57"/>
    <line class="d7477247-1055-4380-b95f-cdb852319cec" x1="7.12" y1="22.69" x2="7.26" y2="22.69"/>
    <line class="d7477247-1055-4380-b95f-cdb852319cec" x1="10.9" y1="32.91" x2="18.38" y2="32.91"/>
    <line class="d7477247-1055-4380-b95f-cdb852319cec" x1="21.82" y1="32.91" x2="27.14" y2="32.91"/>
    <line class="d7477247-1055-4380-b95f-cdb852319cec" x1="7.12" y1="32.91" x2="7.26" y2="32.91"/>
    <line class="d7477247-1055-4380-b95f-cdb852319cec" x1="26.99" y1="17.57" x2="27.14" y2="17.57"/>
    <line class="d7477247-1055-4380-b95f-cdb852319cec" x1="26.99" y1="27.8" x2="27.14" y2="27.8"/>
    <line class="d7477247-1055-4380-b95f-cdb852319cec" x1="23.34" y1="27.8" x2="23.49" y2="27.8"/>
  </g>
</svg>
