<svg id="afc9b015-361b-4955-9b53-87005b9805f4" data-name="圖層 1" xmlns="http://www.w3.org/2000/svg" width="46" height="29" viewBox="0 0 46 29">
  <defs>
    <style>
      .aa65d79a-43ce-4314-87ac-c9bbe89a2301 {
        fill: #e6001f;
      }

      .ef4c06cc-2e31-4a4b-9ca0-1ca072e712e0 {
        fill: #f9b80e;
      }

      .e86cf614-1eab-4765-a128-b9e3545e71ce {
        fill: #002f75;
      }

      .bea3e445-d6de-4796-816b-68d21e05f7ad {
        fill: #fff;
      }
    </style>
  </defs>
  <title>CreditCard</title>
  <rect id="6f770ea5-5b03-4227-a289-a005f91ba8a3" data-name="&lt;路徑&gt;" width="46" height="29"/>
  <g>
    <g>
      <g>
        <circle class="aa65d79a-43ce-4314-87ac-c9bbe89a2301" cx="15.62" cy="14.5" r="11"/>
        <path class="ef4c06cc-2e31-4a4b-9ca0-1ca072e712e0" d="M30.38,3.5A11,11,0,0,0,23,6.35a11.23,11.23,0,0,0-1.11,1.16h2.22A11.25,11.25,0,0,1,25,8.68h-3.9a11.08,11.08,0,0,0-.63,1.16h5.17A11,11,0,0,1,26,11H20a10.89,10.89,0,0,0-.32,1.16h6.74A11.07,11.07,0,0,1,26,18H20a11,11,0,0,0,.47,1.16h5.17a11,11,0,0,1-.63,1.16h-3.9a11.07,11.07,0,0,0,.84,1.16h2.22A11,11,0,0,1,23,22.65,11,11,0,1,0,30.38,3.5Z"/>
      </g>
      <path class="ef4c06cc-2e31-4a4b-9ca0-1ca072e712e0" d="M39.92,20.63a.36.36,0,1,1,.36.36A.36.36,0,0,1,39.92,20.63Zm.36.27a.27.27,0,1,0-.27-.27A.27.27,0,0,0,40.27,20.9Zm0-.11h-.07v-.31h.13a.15.15,0,0,1,.08,0,.1.1,0,0,1,0,.08.08.08,0,0,1-.05.08l.06.14h-.08l0-.12h-.05Zm0-.18h.08a0,0,0,0,0,0,0,0,0,0,0,0,0,0h-.09Z"/>
    </g>
    <g>
      <g>
        <path class="e86cf614-1eab-4765-a128-b9e3545e71ce" d="M13,15.7l-.27,0c-.68,0-1,.23-1,.69a.42.42,0,0,0,.43.46C12.68,16.84,13,16.38,13,15.7Zm.87,2h-1l0-.47a1.5,1.5,0,0,1-1.25.55,1.12,1.12,0,0,1-1.09-1.24c0-1.11.77-1.75,2.1-1.75l.49,0a1.12,1.12,0,0,0,0-.29c0-.3-.21-.41-.77-.41a4,4,0,0,0-1.26.2l.17-1a4.74,4.74,0,0,1,1.43-.24c1,0,1.57.46,1.57,1.33a5.81,5.81,0,0,1-.1.9C14.17,16,13.95,17.38,13.92,17.73Z"/>
        <polygon class="e86cf614-1eab-4765-a128-b9e3545e71ce" points="10.11 17.73 8.91 17.73 9.6 13.44 8.07 17.73 7.25 17.73 7.16 13.46 6.44 17.73 5.32 17.73 6.25 12.15 7.97 12.15 8.07 15.27 9.12 12.15 11.03 12.15 10.11 17.73"/>
        <path class="e86cf614-1eab-4765-a128-b9e3545e71ce" d="M31.86,15.7l-.27,0c-.68,0-1,.23-1,.69a.42.42,0,0,0,.43.46C31.49,16.84,31.84,16.38,31.86,15.7Zm.87,2h-1l0-.47a1.5,1.5,0,0,1-1.25.55,1.12,1.12,0,0,1-1.09-1.24c0-1.11.77-1.75,2.1-1.75l.49,0a1.11,1.11,0,0,0,0-.29c0-.3-.21-.41-.77-.41a4,4,0,0,0-1.26.2l.17-1a4.74,4.74,0,0,1,1.43-.24c1,0,1.57.46,1.57,1.33a5.79,5.79,0,0,1-.1.9C33,16,32.76,17.38,32.73,17.73Z"/>
        <path class="e86cf614-1eab-4765-a128-b9e3545e71ce" d="M19.22,17.66a2.73,2.73,0,0,1-.86.15.87.87,0,0,1-.94-1,10.49,10.49,0,0,1,.16-1.21c.07-.42.52-3.1.52-3.1h1.19l-.14.69h.72l-.16,1.09H19c-.14.86-.33,1.94-.34,2.08s.12.34.41.34a1,1,0,0,0,.32,0Z"/>
        <path class="e86cf614-1eab-4765-a128-b9e3545e71ce" d="M22.86,17.62a4,4,0,0,1-1.22.18,1.8,1.8,0,0,1-2-2c0-1.55.88-2.69,2.08-2.69a1.52,1.52,0,0,1,1.6,1.64,4.86,4.86,0,0,1-.15,1.12H20.79c-.08.66.34.93,1,.93a2.82,2.82,0,0,0,1.23-.29Zm-.67-2.69c0-.09.13-.81-.55-.81-.38,0-.65.29-.76.81Z"/>
        <path class="e86cf614-1eab-4765-a128-b9e3545e71ce" d="M14.63,14.62a1.32,1.32,0,0,0,.91,1.27c.48.23.56.29.56.5s-.21.41-.69.41a3.35,3.35,0,0,1-1.07-.18l-.16,1a5.54,5.54,0,0,0,1.24.13c1.26,0,1.84-.48,1.84-1.52A1.24,1.24,0,0,0,16.42,15c-.5-.23-.56-.28-.56-.49s.2-.37.58-.37a6.6,6.6,0,0,1,.86.07l.17-1.05a8,8,0,0,0-1.05-.09C15.09,13.09,14.63,13.79,14.63,14.62Z"/>
        <path class="e86cf614-1eab-4765-a128-b9e3545e71ce" d="M28.67,13.21a2.27,2.27,0,0,1,1.07.3l.2-1.21a3.51,3.51,0,0,0-1.31-.47,2.38,2.38,0,0,0-1.95,1.05c-.69-.23-1,.23-1.33.7l-.31.07a2.3,2.3,0,0,0,0-.46H24c-.15,1.4-.41,2.83-.62,4.23l-.05.31h1.19c.2-1.3.31-2.12.38-2.69l.45-.25c.07-.25.28-.33.7-.32a5.1,5.1,0,0,0-.08.93c0,1.48.8,2.41,2.09,2.41a3.73,3.73,0,0,0,1.06-.16l.21-1.27a2.32,2.32,0,0,1-1,.29c-.69,0-1.11-.51-1.11-1.36C27.15,14.07,27.78,13.21,28.67,13.21Z"/>
        <path class="e86cf614-1eab-4765-a128-b9e3545e71ce" d="M38.78,12.15l-.27,1.61A1.49,1.49,0,0,0,37.38,13a1.85,1.85,0,0,0-1.51,1.13,9.79,9.79,0,0,1-1-.28h0a6.71,6.71,0,0,0,.05-.68H33.8c-.15,1.4-.41,2.83-.62,4.23l-.05.31h1.19c.16-1,.28-1.92.38-2.61.41-.37.61-.69,1-.67a3.89,3.89,0,0,0-.29,1.47c0,1.13.57,1.88,1.44,1.88a1.41,1.41,0,0,0,1.1-.5l-.06.42H39L40,12.15Zm-1.49,4.53c-.41,0-.61-.3-.61-.89,0-.89.38-1.52.93-1.52s.63.31.63.89C38.23,16,37.84,16.68,37.29,16.68Z"/>
      </g>
      <g>
        <polygon class="bea3e445-d6de-4796-816b-68d21e05f7ad" points="10.45 17.39 9.26 17.39 9.94 13.11 8.41 17.39 7.6 17.39 7.5 13.13 6.78 17.39 5.66 17.39 6.59 11.82 8.31 11.82 8.36 15.27 9.52 11.82 11.37 11.82 10.45 17.39"/>
        <path class="bea3e445-d6de-4796-816b-68d21e05f7ad" d="M13.39,15.37l-.27,0c-.68,0-1,.23-1,.69a.42.42,0,0,0,.43.46C13,16.51,13.37,16,13.39,15.37Zm.87,2h-1l0-.47a1.5,1.5,0,0,1-1.25.55A1.12,1.12,0,0,1,11,16.23c0-1.11.77-1.75,2.1-1.75a4,4,0,0,1,.49,0,1.12,1.12,0,0,0,0-.3c0-.3-.21-.41-.77-.41a4,4,0,0,0-1.26.2l.17-1a4.76,4.76,0,0,1,1.43-.24c1,0,1.57.46,1.57,1.33a5.8,5.8,0,0,1-.1.9C14.51,15.64,14.29,17.05,14.26,17.4Z"/>
        <path class="bea3e445-d6de-4796-816b-68d21e05f7ad" d="M30.28,12l-.2,1.21a2.28,2.28,0,0,0-1.07-.3c-.89,0-1.52.86-1.52,2.09,0,.85.42,1.36,1.11,1.36a2.31,2.31,0,0,0,1-.29l-.21,1.27a3.73,3.73,0,0,1-1.06.16c-1.29,0-2.09-.92-2.09-2.41,0-2,1.11-3.39,2.69-3.39A4.13,4.13,0,0,1,30.28,12Z"/>
        <path class="bea3e445-d6de-4796-816b-68d21e05f7ad" d="M32.2,15.37l-.27,0c-.68,0-1,.23-1,.69a.42.42,0,0,0,.43.46C31.83,16.51,32.18,16,32.2,15.37Zm.87,2h-1l0-.47a1.5,1.5,0,0,1-1.25.55,1.12,1.12,0,0,1-1.09-1.24c0-1.11.77-1.75,2.1-1.75a4,4,0,0,1,.49,0,1.13,1.13,0,0,0,0-.3c0-.3-.21-.41-.77-.41a4,4,0,0,0-1.26.2l.17-1A4.76,4.76,0,0,1,32,12.76c1,0,1.57.46,1.57,1.33a5.76,5.76,0,0,1-.1.9C33.33,15.64,33.1,17.05,33.07,17.4Z"/>
        <path class="bea3e445-d6de-4796-816b-68d21e05f7ad" d="M19.57,17.33a2.73,2.73,0,0,1-.86.15.87.87,0,0,1-.94-1,10.5,10.5,0,0,1,.16-1.21c.07-.42.52-3.1.52-3.1h1.19l-.14.69h.61l-.16,1.09h-.61c-.14.86-.33,1.94-.34,2.08s.13.34.41.34a1,1,0,0,0,.32,0Z"/>
        <path class="bea3e445-d6de-4796-816b-68d21e05f7ad" d="M23.21,17.29a4.07,4.07,0,0,1-1.22.18,1.8,1.8,0,0,1-2-2c0-1.55.88-2.69,2.08-2.69a1.52,1.52,0,0,1,1.6,1.64,4.91,4.91,0,0,1-.15,1.12H21.14c-.08.66.34.93,1,.93a2.81,2.81,0,0,0,1.23-.29Zm-.67-2.69c0-.09.13-.81-.55-.81-.38,0-.65.29-.76.81Z"/>
        <path class="bea3e445-d6de-4796-816b-68d21e05f7ad" d="M15,14.29a1.32,1.32,0,0,0,.91,1.27c.48.23.56.29.56.5s-.21.41-.69.41a3.37,3.37,0,0,1-1.07-.18l-.16,1a5.53,5.53,0,0,0,1.24.13c1.26,0,1.84-.48,1.84-1.52a1.24,1.24,0,0,0-.84-1.26c-.5-.23-.56-.28-.56-.49s.2-.37.58-.37a6.62,6.62,0,0,1,.86.07l.17-1.05a8.12,8.12,0,0,0-1.05-.09C15.43,12.76,15,13.45,15,14.29Z"/>
        <path class="bea3e445-d6de-4796-816b-68d21e05f7ad" d="M39.39,17.4H38.26l.06-.42a1.41,1.41,0,0,1-1.1.5c-.87,0-1.44-.75-1.44-1.88,0-1.51.89-2.78,1.94-2.78a1.35,1.35,0,0,1,1.14.62l.26-1.61H40.3Zm-1.76-1c.56,0,.95-.63.95-1.53,0-.58-.22-.89-.63-.89s-.93.63-.93,1.52C37,16,37.23,16.35,37.63,16.35Z"/>
        <path class="bea3e445-d6de-4796-816b-68d21e05f7ad" d="M34.15,12.86c-.15,1.4-.41,2.83-.62,4.23l-.05.31h1.19c.43-2.77.53-3.32,1.2-3.25a4.45,4.45,0,0,1,.45-1.32c-.5-.1-.78.18-1.15.72a4.15,4.15,0,0,0,.07-.69Z"/>
        <path class="bea3e445-d6de-4796-816b-68d21e05f7ad" d="M24.32,12.86c-.15,1.4-.42,2.83-.62,4.23l-.05.31h1.19c.43-2.77.53-3.32,1.2-3.25a4.48,4.48,0,0,1,.45-1.32c-.5-.1-.78.18-1.15.72a4.1,4.1,0,0,0,.07-.69Z"/>
        <path class="bea3e445-d6de-4796-816b-68d21e05f7ad" d="M39.92,17a.36.36,0,1,1,.36.36A.36.36,0,0,1,39.92,17Zm.36.27A.27.27,0,1,0,40,17,.27.27,0,0,0,40.27,17.31Zm0-.11h-.07v-.31h.13a.14.14,0,0,1,.08,0,.09.09,0,0,1,0,.08.09.09,0,0,1-.05.08l.06.14h-.08l0-.12h-.05Zm0-.18h.08a0,0,0,0,0,0,0,0,0,0,0,0,0,0h-.09Z"/>
      </g>
    </g>
  </g>
</svg>
