<svg id="c2cccfec-bdca-45aa-8e0e-e165162915b4" data-name="圖層 1" xmlns="http://www.w3.org/2000/svg" xmlns:xlink="http://www.w3.org/1999/xlink" width="46" height="29" viewBox="0 0 46 29">
  <defs>
    <style>
      .\33 2a9f10d-f6e3-4a33-993e-e18e86b44eb5 {
        fill: url(#e016358c-d9ba-4d01-b9d6-dd4b2b355fb1);
      }

      .\35 8ae6331-3b89-460d-8295-1e4ef5078ccd {
        fill: #fff;
      }
    </style>
    <linearGradient id="e016358c-d9ba-4d01-b9d6-dd4b2b355fb1" data-name="未命名漸層 14" x1="23" x2="23" y2="29" gradientUnits="userSpaceOnUse">
      <stop offset="0" stop-color="#6dc2ee"/>
      <stop offset="1" stop-color="#007bc2"/>
    </linearGradient>
  </defs>
  <title>CreditCard</title>
  <rect id="e573276f-52a3-4ff8-bb54-dc2de891dc81" data-name="&lt;路徑&gt;" class="32a9f10d-f6e3-4a33-993e-e18e86b44eb5" width="46" height="29"/>
  <g>
    <g>
      <path class="58ae6331-3b89-460d-8295-1e4ef5078ccd" d="M37.5,8.35h-1a.67.67,0,0,0-.67.66v.42l-.46-.76a.66.66,0,0,0-.57-.32H33.34a.67.67,0,0,0-.66.67v.57l-.36-.83a.67.67,0,0,0-.61-.4H30.27a.67.67,0,0,0-.4.13.65.65,0,0,0-.4-.13h-.93a2.65,2.65,0,0,0-1.81.57.66.66,0,0,0-.65-.57h-1a.66.66,0,0,0-.59.37l-.12-.09a2.84,2.84,0,0,0-1.5-.28H20.67a.64.64,0,0,0-.33.1.65.65,0,0,0-.33-.1H16.78a.63.63,0,0,0-.36.12.66.66,0,0,0-.36-.12H14.46a.66.66,0,0,0-.61.41l-.57,1.35-.63-1.37A.67.67,0,0,0,12,8.35H10.46A.66.66,0,0,0,9.8,9v.58l-.36-.84a.67.67,0,0,0-.61-.4H7.39a.67.67,0,0,0-.61.4l-1.72,4a.66.66,0,0,0,.06.63.67.67,0,0,0,.55.3h1a.66.66,0,0,0,.61-.41l.2-.49H8.65l.2.49a.67.67,0,0,0,.62.41h2a.66.66,0,0,0,.66-.66v0l.12.29a.66.66,0,0,0,.61.4h.85a.66.66,0,0,0,.61-.4l.13-.29v0a.66.66,0,0,0,.66.66h1a.67.67,0,0,0,.36-.12.67.67,0,0,0,.36.12H20a.65.65,0,0,0,.33-.1.64.64,0,0,0,.33.1h1A.66.66,0,0,0,22.3,13v-.8h.55c0,.07,0,.15,0,.2v.6a.66.66,0,0,0,.66.66h1a.64.64,0,0,0,.3-.08.64.64,0,0,0,.3.08h1a.66.66,0,0,0,.64-.54,2.79,2.79,0,0,0,1.74.54H29.6a.67.67,0,0,0,.62-.41l.19-.48h1.11l.2.49a.67.67,0,0,0,.62.41h2A.66.66,0,0,0,35,13v-.64l.59,1a.67.67,0,0,0,.57.32H37.5a.66.66,0,0,0,.66-.66V9A.66.66,0,0,0,37.5,8.35ZM16.06,13h-1V9.89L13.67,13h-.85l-1.4-3.16V13h-2l-.37-.9h-2l-.37.9h-1L7.39,9H8.82l1.64,3.82V9H12l1.26,2.73L14.46,9h1.61ZM20,9.85H17.75v.73h2.2v.83h-2.2v.8H20V13H16.78V9H20Zm4.34,1.66a1.17,1.17,0,0,1,.16.74V13h-1v-.51a1.23,1.23,0,0,0-.15-.79,1,1,0,0,0-.7-.17h-1V13h-1V9h2.22a2.27,2.27,0,0,1,1.17.19.94.94,0,0,1,.49.9,1.14,1.14,0,0,1-.68,1.07A1.15,1.15,0,0,1,24.34,11.51ZM26.08,13h-1V9h1ZM37.5,13H36.13L34.3,10v3h-2l-.38-.9H30l-.36.9H28.47a2,2,0,0,1-1.39-.45,2,2,0,0,1-.52-1.54,2.16,2.16,0,0,1,.52-1.58A2,2,0,0,1,28.54,9h.93v.86h-.91a.94.94,0,0,0-.74.24,1.36,1.36,0,0,0-.28.91,1.39,1.39,0,0,0,.26.95.93.93,0,0,0,.67.21h.43L30.27,9h1.44l1.63,3.81V9h1.47l1.7,2.81V9h1Zm-8.61-2.5-.42,1a.64.64,0,0,1-.19,0A1,1,0,0,1,28.2,11a1,1,0,0,1,.08-.44s.05,0,.28,0Z"/>
      <polygon class="58ae6331-3b89-460d-8295-1e4ef5078ccd" points="7.43 11.31 8.74 11.31 8.09 9.7 7.43 11.31"/>
      <path class="58ae6331-3b89-460d-8295-1e4ef5078ccd" d="M23.28,9.93a1,1,0,0,0-.46-.07H21.63v.9h1.17a.9.9,0,0,0,.48-.08.42.42,0,0,0,.2-.38A.37.37,0,0,0,23.28,9.93Z"/>
      <polygon class="58ae6331-3b89-460d-8295-1e4ef5078ccd" points="30.31 11.31 31.64 11.31 30.97 9.7 30.31 11.31"/>
    </g>
    <g>
      <path class="58ae6331-3b89-460d-8295-1e4ef5078ccd" d="M22.71,16.79H21.46v1H22.7c.37,0,.6-.18.6-.53S23.06,16.79,22.71,16.79Z"/>
      <path class="58ae6331-3b89-460d-8295-1e4ef5078ccd" d="M27.41,16.86a1,1,0,0,0-.46-.07H25.76v.91h1.17a.92.92,0,0,0,.48-.08.43.43,0,0,0,.2-.39A.38.38,0,0,0,27.41,16.86Z"/>
      <polygon class="58ae6331-3b89-460d-8295-1e4ef5078ccd" points="20.5 19.62 20.5 16.39 19.02 17.98 20.5 19.62"/>
      <polygon class="58ae6331-3b89-460d-8295-1e4ef5078ccd" points="14.31 16.79 14.31 17.52 16.42 17.52 16.42 18.35 14.31 18.35 14.31 19.15 16.67 19.15 17.77 17.96 16.72 16.79 14.31 16.79"/>
      <path class="58ae6331-3b89-460d-8295-1e4ef5078ccd" d="M40.52,17.4l0,0a.67.67,0,0,0,.3-.56V16a.66.66,0,0,0-.66-.66H38.2a2.13,2.13,0,0,0-1.38.44.66.66,0,0,0-.62-.44H34.27a2.25,2.25,0,0,0-1.27.34.66.66,0,0,0-.57-.34H29.21a.66.66,0,0,0-.59.37,1.25,1.25,0,0,0-.13-.1A3,3,0,0,0,27,15.29H24.79a.66.66,0,0,0-.59.37,2.65,2.65,0,0,0-1.49-.37H19.64a.66.66,0,0,0-.49.21l-.73.79-.7-.78a.67.67,0,0,0-.5-.22H13.34a.66.66,0,0,0-.66.66v4a.66.66,0,0,0,.66.66h3.82a.66.66,0,0,0,.49-.21l.74-.8.7.79a.66.66,0,0,0,.5.22h1.87a.67.67,0,0,0,.67-.67V19.3h.54A2.8,2.8,0,0,0,24.12,19v1a.67.67,0,0,0,.67.67h1a.66.66,0,0,0,.66-.67v-.81H27a2.08,2.08,0,0,1,0,.22V20a.67.67,0,0,0,.67.67h1a.6.6,0,0,0,.29-.08.62.62,0,0,0,.29.08h3.22a.64.64,0,0,0,.29-.07.63.63,0,0,0,.29.07h1.88a2.45,2.45,0,0,0,1.45-.41.67.67,0,0,0,.61.41h1.88c1.36,0,2.18-.72,2.18-1.94A1.77,1.77,0,0,0,40.52,17.4ZM22.66,18.64h-1.2V20H19.58l-1.19-1.34L17.16,20H13.34V16h3.88l1.19,1.32L19.64,16h3.08c.76,0,1.63.21,1.63,1.33S23.5,18.64,22.66,18.64Zm5.8-.18a1.18,1.18,0,0,1,.16.74V20h-1v-.51c0-.24,0-.6-.16-.79a.93.93,0,0,0-.7-.18h-1V20h-1V16H27a2.4,2.4,0,0,1,1.16.19.94.94,0,0,1,.5.9A1.13,1.13,0,0,1,28,18.11,1,1,0,0,1,28.46,18.45Zm4-1.66H30.17v.73h2.2v.82h-2.2v.8h2.26V20H29.21V16h3.22ZM34.88,20H33v-.86h1.87a.58.58,0,0,0,.39-.1.36.36,0,0,0,.11-.26.35.35,0,0,0-.12-.27.51.51,0,0,0-.34-.09c-.9,0-2,0-2-1.25A1.2,1.2,0,0,1,34.27,16H36.2v.86H34.43a.65.65,0,0,0-.39.07.31.31,0,0,0-.15.29.31.31,0,0,0,.21.3,1.07,1.07,0,0,0,.37,0l.52,0a1.55,1.55,0,0,1,1.1.32,1.11,1.11,0,0,1,.29.86C36.39,19.58,35.85,20,34.88,20Zm3.94,0H36.94v-.86h1.87a.58.58,0,0,0,.39-.1.36.36,0,0,0,.11-.26.35.35,0,0,0-.12-.27.51.51,0,0,0-.34-.09c-.9,0-2,0-2-1.25,0-.59.37-1.2,1.38-1.2h1.93v.86H38.37a.66.66,0,0,0-.39.07.31.31,0,0,0-.14.29.31.31,0,0,0,.21.3,1.09,1.09,0,0,0,.37,0l.52,0a1.56,1.56,0,0,1,1.1.32,1.13,1.13,0,0,1,.29.86C40.34,19.58,39.79,20,38.82,20Z"/>
    </g>
  </g>
</svg>
