<svg id="c778bfb8-d807-4c1c-a48c-d59d66f71733" data-name="圖層 1" xmlns="http://www.w3.org/2000/svg" width="46" height="29" viewBox="0 0 46 29">
  <defs>
    <style>
      .\36 3bba8db-2b64-486e-9ec4-90f93a7a82b9 {
        fill: #fff;
      }

      .\38 52e15ba-5551-4f4c-8e0b-905c3f0c14b3 {
        fill: #002c7d;
      }

      .ce26a24f-6ae5-4601-8925-8aa4925ad1c2 {
        fill: #f6aa00;
      }
    </style>
  </defs>
  <title>CreditCard</title>
  <rect class="63bba8db-2b64-486e-9ec4-90f93a7a82b9" width="46" height="29"/>
  <g>
    <polygon class="852e15ba-5551-4f4c-8e0b-905c3f0c14b3" points="17.09 20.46 19.12 8.57 22.36 8.57 20.33 20.46 17.09 20.46"/>
    <path class="852e15ba-5551-4f4c-8e0b-905c3f0c14b3" d="M32.07,8.87a8.36,8.36,0,0,0-2.9-.5c-3.2,0-5.45,1.61-5.47,3.92,0,1.71,1.61,2.66,2.84,3.23s1.68,1,1.68,1.47c0,.8-1,1.16-1.94,1.16a6.79,6.79,0,0,1-3-.62l-.42-.19L22.36,20a10.25,10.25,0,0,0,3.61.63c3.4,0,5.61-1.59,5.64-4.06,0-1.35-.85-2.38-2.72-3.23-1.13-.55-1.83-.92-1.82-1.47s.59-1,1.85-1a6,6,0,0,1,2.42.46l.29.14.44-2.58"/>
    <path class="852e15ba-5551-4f4c-8e0b-905c3f0c14b3" d="M40.38,8.59h-2.5a1.61,1.61,0,0,0-1.7,1L31.37,20.46h3.4l.68-1.79H39.6c.1.42.39,1.78.39,1.78h3L40.38,8.59m-4,7.66,1.29-3.32s.27-.69.43-1.13l.22,1,.75,3.43Z"/>
    <path class="852e15ba-5551-4f4c-8e0b-905c3f0c14b3" d="M14.38,8.58l-3.17,8.1L10.87,15a9.27,9.27,0,0,0-4.49-5l2.9,10.39h3.43l5.1-11.86H14.38"/>
    <path class="ce26a24f-6ae5-4601-8925-8aa4925ad1c2" d="M8.26,8.58H3l0,.25c4.06,1,6.75,3.36,7.87,6.22L9.73,9.58a1.36,1.36,0,0,0-1.47-1"/>
  </g>
</svg>
