<svg id="68d9896c-b593-4f27-9176-d2d485f2d942" data-name="圖層 1" xmlns="http://www.w3.org/2000/svg" xmlns:xlink="http://www.w3.org/1999/xlink" width="46" height="29" viewBox="0 0 46 29">
  <defs>
    <style>
      .aaeceb8c-a83d-44e7-89a0-ca5538cf62e5 {
        fill: #fff;
      }

      .\30 675e697-d592-44fa-a2b7-d69f6de0370b {
        fill: url(#a27f2786-5c80-48b8-8975-ea8474c0ebd7);
      }

      .\35 5880556-85fa-48d2-a7e6-cc227136d049 {
        fill: url(#e5a8f2e7-ee03-4c5b-bbc4-c6ab7466f54c);
      }

      .\33 d91bff7-fc42-4747-9704-84cec8a05439 {
        fill: url(#6a4501ba-67b5-450e-bd88-79d45bad8034);
      }

      .\31 9451e05-0d76-4a96-adeb-649df522fbed {
        fill: url(#b02759b1-026c-4bf5-87a3-08cf9dea8a02);
      }

      .df02c919-7861-4066-b522-41767a57a3b0 {
        fill: url(#a3f2368f-10a8-4c44-8d8b-d35fa3fb5e71);
      }

      .\38 34ff47a-9573-4f58-942d-849711a0f788 {
        fill: url(#5274c1e8-8acc-4b06-b323-8dfff6f47e97);
      }
    </style>
    <linearGradient id="a27f2786-5c80-48b8-8975-ea8474c0ebd7" x1="6.32" y1="14.5" x2="16.59" y2="14.5" gradientUnits="userSpaceOnUse">
      <stop offset="0" stop-color="#313578"/>
      <stop offset="1" stop-color="#0077bd"/>
    </linearGradient>
    <linearGradient id="e5a8f2e7-ee03-4c5b-bbc4-c6ab7466f54c" x1="6.32" y1="17.36" x2="6.32" y2="17.36" xlink:href="#a27f2786-5c80-48b8-8975-ea8474c0ebd7"/>
    <linearGradient id="6a4501ba-67b5-450e-bd88-79d45bad8034" x1="17.89" y1="14.5" x2="28.16" y2="14.5" gradientUnits="userSpaceOnUse">
      <stop offset="0" stop-color="#763137"/>
      <stop offset="1" stop-color="#ee1846"/>
    </linearGradient>
    <linearGradient id="b02759b1-026c-4bf5-87a3-08cf9dea8a02" x1="31.43" y1="16.12" x2="34.99" y2="16.12" gradientUnits="userSpaceOnUse">
      <stop offset="0" stop-color="#008149"/>
      <stop offset="1" stop-color="#62bb45"/>
    </linearGradient>
    <linearGradient id="a3f2368f-10a8-4c44-8d8b-d35fa3fb5e71" x1="31.42" y1="12.76" x2="34.69" y2="12.76" xlink:href="#b02759b1-026c-4bf5-87a3-08cf9dea8a02"/>
    <linearGradient id="5274c1e8-8acc-4b06-b323-8dfff6f47e97" x1="29.41" y1="14.5" x2="39.68" y2="14.5" xlink:href="#b02759b1-026c-4bf5-87a3-08cf9dea8a02"/>
  </defs>
  <title>CreditCard</title>
  <g>
    <rect id="df7af5e3-6709-4a28-aa5d-e0d698a18c17" data-name="&lt;路徑&gt;" class="aaeceb8c-a83d-44e7-89a0-ca5538cf62e5" width="46" height="29"/>
    <g>
      <g>
        <path class="0675e697-d592-44fa-a2b7-d69f6de0370b" d="M10.36,2a4.18,4.18,0,0,0-4,4c0,1.18,0,5.83,0,10.45a11.4,11.4,0,0,0,3,.89C11,17.5,12,17,12.13,15.59V10.52h3.62v5c-.19,2.84-2.68,3.42-6.47,3.23a17.55,17.55,0,0,1-3-.47c0,4.63,0,8.77,0,8.77h6.31a4.18,4.18,0,0,0,4-4.05V2Z"/>
        <path class="55880556-85fa-48d2-a7e6-cc227136d049" d="M6.32,16.48v1.75h0V16.49Z"/>
      </g>
      <path class="3d91bff7-fc42-4747-9704-84cec8a05439" d="M21.94,2a4.18,4.18,0,0,0-4,4c0,.74,0,2.88,0,5.53,1.27-1,3.31-1.47,5.9-1.27a16.58,16.58,0,0,1,3.17.5v1.75a9.29,9.29,0,0,0-3-.89c-2.45-.18-3.74,1-3.74,2.83,0,1.67,1,3.1,3.72,2.91a11,11,0,0,0,3-.89v1.7a15.83,15.83,0,0,1-3.86.56,8.34,8.34,0,0,1-5.21-1.33V27H24.2a4.18,4.18,0,0,0,4-4.05V2Z"/>
      <path class="19451e05-0d76-4a96-adeb-649df522fbed" d="M33.91,15H31.44v2.21H33.9A1.12,1.12,0,0,0,35,16.1,1.08,1.08,0,0,0,33.91,15Z"/>
      <path class="df02c919-7861-4066-b522-41767a57a3b0" d="M34.69,12.79a1,1,0,0,0-1-1c-.71,0-2,0-2.28,0v2l2.33,0A1,1,0,0,0,34.69,12.79Z"/>
      <path class="834ff47a-9573-4f58-942d-849711a0f788" d="M33.46,2a4.18,4.18,0,0,0-4,4c0,.64,0,2.31,0,4.44h6c1.19,0,2.6.51,2.6,2,0,.78-.41,1.66-1.91,1.94v0a2.21,2.21,0,0,1,2.38,2c0,1.59-1.63,2-2.51,2H29.42c0,4.51,0,8.49,0,8.49h6.31a4.18,4.18,0,0,0,4-4.05V2Z"/>
    </g>
  </g>
</svg>
