<svg id="1c88e629-2231-47a1-b12c-83328f2631a2" data-name="圖層 1" xmlns="http://www.w3.org/2000/svg" width="18" height="18" viewBox="0 0 18 18">
  <title>member</title>
  <path d="M18,9A9,9,0,1,0,2.92,15.63h0l.29.25.06,0,.48.37.16.11.54.34.12.07c.2.11.41.22.62.32l0,0a9.06,9.06,0,0,0,2.18.69h.06q.35.06.72.1h.09c.24,0,.49,0,.73,0s.49,0,.73,0h.09l.71-.09h.06a8.87,8.87,0,0,0,2.14-.67l.07,0,.59-.31.14-.08c.18-.1.35-.21.52-.33l.18-.13.42-.32.09-.07.3-.25h0A9,9,0,0,0,18,9ZM.66,9a8.34,8.34,0,1,1,13.88,6.24,2.37,2.37,0,0,0-.29-.18l-2.77-1.39a.73.73,0,0,1-.4-.65v-1l.2-.27a6.64,6.64,0,0,0,.86-1.68A1.19,1.19,0,0,0,12.81,9V7.88a1.2,1.2,0,0,0-.29-.78V5.57a2.65,2.65,0,0,0-.62-1.92,3.69,3.69,0,0,0-2.9-1,3.69,3.69,0,0,0-2.9,1,2.65,2.65,0,0,0-.62,1.92V7.1a1.19,1.19,0,0,0-.29.78V9a1.19,1.19,0,0,0,.44.92,6.1,6.1,0,0,0,1,2.09V13a.73.73,0,0,1-.38.64L3.67,15.05l-.25.16A8.33,8.33,0,0,1,.66,9Zm0,0" transform="translate(0 0)"/>
</svg>
