<svg id="7f4bddc4-0ece-4113-a9f9-a4d5c99bcce0" data-name="圖層 1" xmlns="http://www.w3.org/2000/svg" width="303.92" height="40.43" viewBox="0 0 303.92 40.43">
  <defs>
    <style>
      .\33 938e002-1425-4de2-8830-5c642d1370c8 {
        fill: #fff;
      }
    </style>
  </defs>
  <title>titleWord2</title>
  <g>
    <path class="3938e002-1425-4de2-8830-5c642d1370c8" d="M35.58,26.3a.46.46,0,0,0,.11.3.39.39,0,0,0,.32.13h2.06a1.82,1.82,0,0,1,1.33.56A1.85,1.85,0,0,1,40,28.64,1.77,1.77,0,0,1,39.4,30a1.85,1.85,0,0,1-1.33.54H1.89A1.85,1.85,0,0,1,.56,30,1.77,1.77,0,0,1,0,28.64a1.85,1.85,0,0,1,.56-1.35,1.82,1.82,0,0,1,1.33-.56H4a.38.38,0,0,0,.28-.11.44.44,0,0,0,.11-.32l-.69-21A1.53,1.53,0,0,1,4.3,4a1.66,1.66,0,0,1,1-.34,1.87,1.87,0,0,1,.49.06.68.68,0,0,0,.49-.06q2-1,3.57-2a2.79,2.79,0,0,1,1.5-.43h.21a2.8,2.8,0,0,1,1.63.69A1.48,1.48,0,0,1,13.66,3v.26a1.44,1.44,0,0,1-.86,1.12Q10.44,5.46,7.73,6.57a.61.61,0,0,0-.39.6l.13,3.09a.38.38,0,0,0,.43.43h3.44A1.69,1.69,0,0,1,13,12.38a1.68,1.68,0,0,1-.49,1.2,1.58,1.58,0,0,1-1.18.52H8a.46.46,0,0,0-.3.11.31.31,0,0,0-.09.32l.09,3.78a.38.38,0,0,0,.43.43H11.3a1.72,1.72,0,1,1,0,3.44H8.25A.35.35,0,0,0,8,22.3a.46.46,0,0,0-.11.3L8,26.3a.38.38,0,0,0,.43.43h6.06a.38.38,0,0,0,.43-.43V18.65a1.68,1.68,0,0,1,3.35,0V26.3a.38.38,0,0,0,.43.43h2.58a.38.38,0,0,0,.43-.43V15.64a.38.38,0,0,0-.43-.43H18.69A3.74,3.74,0,0,1,15,11.47V2.28A1.71,1.71,0,0,1,15.49,1,1.77,1.77,0,0,1,16.76.47,1.7,1.7,0,0,1,18,1a1.75,1.75,0,0,1,.52,1.29v2a.38.38,0,0,0,.43.43h5.11a1.58,1.58,0,0,1,1.18.52,1.69,1.69,0,0,1,.49,1.2,1.69,1.69,0,0,1-1.68,1.68H18.95a.38.38,0,0,0-.43.43v3a.38.38,0,0,0,.43.43h2.54a3.74,3.74,0,0,1,3.74,3.74V26.3a.38.38,0,0,0,.43.43h5.63a.42.42,0,0,0,.47-.43q.09-1.5.21-3.65a.46.46,0,0,0-.11-.3.35.35,0,0,0-.28-.13H28.79a1.65,1.65,0,0,1-1.2-.52,1.71,1.71,0,0,1,0-2.45,1.65,1.65,0,0,1,1.2-.52h2.92a.38.38,0,0,0,.43-.43q0-.6.06-1.87t.06-2a.26.26,0,0,0-.09-.28.46.46,0,0,0-.3-.11H28.83a1.58,1.58,0,0,1-1.18-.52,1.68,1.68,0,0,1-.49-1.2,1.69,1.69,0,0,1,1.68-1.68h3.09a.38.38,0,0,0,.43-.43q.09-2.32.09-3.61A.38.38,0,0,0,32,6.23H28.4a1.76,1.76,0,0,1-1.76-1.76A1.76,1.76,0,0,1,28.4,2.71h4a3.5,3.5,0,0,1,2.62,1.12A3.52,3.52,0,0,1,36.14,6.4Q36.14,16.71,35.58,26.3Zm-25,5.8a3.28,3.28,0,0,1,1.85-.64h.09a3,3,0,0,1,1.72.52A1.49,1.49,0,0,1,15,33.26a1.51,1.51,0,0,1-.64,1.29,80.33,80.33,0,0,1-8.94,5,2.76,2.76,0,0,1-1.25.3,3.44,3.44,0,0,1-.56,0A3.26,3.26,0,0,1,1.89,39a1.34,1.34,0,0,1,.34-2.19A53.38,53.38,0,0,0,10.61,32.1Zm14.74,2.15a1.3,1.3,0,0,1-.77-1.05A1.41,1.41,0,0,1,25,32a3.05,3.05,0,0,1,1.63-.73,2.21,2.21,0,0,1,.43,0,3.12,3.12,0,0,1,1.33.3q4.94,2.41,9.32,4.94a1.52,1.52,0,0,1,.77,1.38,1.49,1.49,0,0,1-.69,1.29,3.14,3.14,0,0,1-1.93.64h0a3.69,3.69,0,0,1-2-.56Q29.82,36.57,25.35,34.25Z"/>
    <path class="3938e002-1425-4de2-8830-5c642d1370c8" d="M77.3,26.47a2.05,2.05,0,0,1-2.06,2.06h-.39a1.65,1.65,0,0,1-1.18-.47,1.54,1.54,0,0,1-.49-1.16c0-.14-.06-.21-.17-.21H66.17a.19.19,0,0,0-.21.21,1.78,1.78,0,0,1-.54,1.31,1.73,1.73,0,0,1-1.27.54h-.26a1.94,1.94,0,0,1-1.42-.6,2,2,0,0,1-.6-1.46V15.13a.38.38,0,0,0-.43-.43H55.09a.38.38,0,0,0-.43.43V33a.38.38,0,0,0,.43.43H80.39a2,2,0,0,1,1.44.58,2,2,0,0,1,0,2.84,2,2,0,0,1-1.44.58H55q-.3,0-.3.34v.6a2.13,2.13,0,0,1-2.11,2.11,2,2,0,0,1-1.46-.62,2.06,2.06,0,0,1-.6-1.48V15.13a.38.38,0,0,0-.43-.43H46a2,2,0,0,1-2-2,1.84,1.84,0,0,1,.58-1.37,1.94,1.94,0,0,1,1.4-.56h4a.38.38,0,0,0,.43-.43v-7a2,2,0,0,1,.6-1.46,2,2,0,0,1,1.46-.6,2.06,2.06,0,0,1,1.48.6,2,2,0,0,1,.62,1.46v7a.38.38,0,0,0,.43.43h6.36a.38.38,0,0,0,.43-.43V2.41a2,2,0,0,1,.6-1.46,2,2,0,0,1,2.88,0A2,2,0,0,1,66,2.41v7.95a.38.38,0,0,0,.43.43h6.36a.38.38,0,0,0,.43-.43V2.88a2,2,0,0,1,.6-1.46,2.07,2.07,0,0,1,2.92,0,2,2,0,0,1,.6,1.46v7.48a.38.38,0,0,0,.43.43H82a1.94,1.94,0,0,1,1.4.56A1.84,1.84,0,0,1,84,12.72a2,2,0,0,1-2,2H77.73a.38.38,0,0,0-.43.43ZM66,22.43a.38.38,0,0,0,.43.43h6.36a.38.38,0,0,0,.43-.43v-7.3a.38.38,0,0,0-.43-.43H66.39a.38.38,0,0,0-.43.43Z"/>
    <path class="3938e002-1425-4de2-8830-5c642d1370c8" d="M123.23,15.68a3.74,3.74,0,0,1-3.74,3.74h-3.82a.17.17,0,0,0-.17.13c0,.09,0,.14,0,.17a28.27,28.27,0,0,0,10.57,6,1.32,1.32,0,0,1,.95.95,2.14,2.14,0,0,1,0,.43,1.43,1.43,0,0,1-.34.9A3.1,3.1,0,0,1,125.21,29a2.29,2.29,0,0,1-.86.17,2.26,2.26,0,0,1-.95-.21,31.91,31.91,0,0,1-5.8-3,.33.33,0,0,0-.26,0,.21.21,0,0,0-.13.19v12a2.11,2.11,0,0,1-4.21,0V28a2.75,2.75,0,0,1,.86-2,2.85,2.85,0,0,1,2.06-.84s.05,0,.06-.09a.13.13,0,0,0,0-.13,28.69,28.69,0,0,1-5.24-5.11.82.82,0,0,0-.69-.34h-3.82a.82.82,0,0,0-.69.34,29.4,29.4,0,0,1-5.29,5c-.06.06-.08.11-.06.15a.1.1,0,0,0,.11.06,3.23,3.23,0,0,1,2.36,1,3.06,3.06,0,0,1,.95,2.23,13.62,13.62,0,0,1-.34,3.05,13.37,13.37,0,0,1-1.07,3,10.08,10.08,0,0,1-2.36,3,17.06,17.06,0,0,1-4,2.6,2.67,2.67,0,0,1-1,.21A2.31,2.31,0,0,1,94.1,40a3.1,3.1,0,0,1-1.5-1,1.48,1.48,0,0,1-.34-.95,1.65,1.65,0,0,1,.86-1.42,15,15,0,0,0,3.33-2,7.25,7.25,0,0,0,2-2.34,8.91,8.91,0,0,0,.79-2.26,12.13,12.13,0,0,0,.19-2.23V25.87a.21.21,0,0,0-.11-.19.27.27,0,0,0-.24,0,38.2,38.2,0,0,1-6.36,3.52,3.1,3.1,0,0,1-1,.17,2.84,2.84,0,0,1-.82-.13,3.54,3.54,0,0,1-1.5-1,1.55,1.55,0,0,1-.3-.9,2.22,2.22,0,0,1,0-.43,1.21,1.21,0,0,1,.86-.95,31.38,31.38,0,0,0,10.48-6.19.17.17,0,0,0-.13-.3H96.55a3.74,3.74,0,0,1-3.74-3.74V5.24a3.6,3.6,0,0,1,1.1-2.64,3.6,3.6,0,0,1,2.64-1.1H119.5a3.6,3.6,0,0,1,2.64,1.1,3.6,3.6,0,0,1,1.1,2.64Zm-26-10.87a.38.38,0,0,0-.43.43V8.42a.38.38,0,0,0,.43.43h8.12a.38.38,0,0,0,.43-.43V5.24a.38.38,0,0,0-.43-.43Zm0,7.18a.38.38,0,0,0-.43.43v3.27a.38.38,0,0,0,.43.43h8.12a.38.38,0,0,0,.43-.43V12.42a.38.38,0,0,0-.43-.43Zm21.31-3.14a.38.38,0,0,0,.43-.43V5.24a.38.38,0,0,0-.43-.43h-8.21a.38.38,0,0,0-.43.43V8.42a.38.38,0,0,0,.43.43Zm0,7.26a.38.38,0,0,0,.43-.43V12.42a.38.38,0,0,0-.43-.43h-8.21a.38.38,0,0,0-.43.43v3.27a.38.38,0,0,0,.43.43Z"/>
    <path class="3938e002-1425-4de2-8830-5c642d1370c8" d="M164.7,24.15c-.06-.06-.13-.06-.21,0a.25.25,0,0,0-.13.21V31a3.74,3.74,0,0,1-3.74,3.74h-.47a0,0,0,0,0,0,0,.12.12,0,0,0,0,.09q4.43,1.25,8.64,2.62a1,1,0,0,1,.69.84.93.93,0,0,1-.43,1,4,4,0,0,1-2.19.69,4.74,4.74,0,0,1-1.5-.26q-4.17-1.5-8.94-3a1,1,0,0,1-.77-.82,1,1,0,0,1,.39-1.07s0,0,0-.06,0-.06-.06-.06h-8.42a.07.07,0,0,0,0,.13,1.14,1.14,0,0,1,.56,1.1,1.12,1.12,0,0,1-.69,1A57.45,57.45,0,0,1,136.64,40a2.7,2.7,0,0,1-.64.09A3.1,3.1,0,0,1,133.68,39a1,1,0,0,1,.56-1.59,54,54,0,0,0,9.67-2.58s0,0,0-.06,0-.06-.06-.06h-.56A3.74,3.74,0,0,1,139.56,31V24.66a.25.25,0,0,0-.13-.21.22.22,0,0,0-.26,0,31.13,31.13,0,0,1-3.57,1.72,2.85,2.85,0,0,1-.82.13,2.43,2.43,0,0,1-.77-.13,2.62,2.62,0,0,1-1.29-.95,1.09,1.09,0,0,1-.3-.73,1.57,1.57,0,0,1,0-.39,1.29,1.29,0,0,1,.82-.86,28.47,28.47,0,0,0,8.25-4.08.17.17,0,0,0,0-.15c0-.07-.05-.11-.11-.11h-7.26a1.42,1.42,0,1,1,0-2.84h8.72a.38.38,0,0,0,.43-.43v-.86a.38.38,0,0,0-.43-.43H139a1.07,1.07,0,0,1-.77-.34,1.09,1.09,0,0,1,0-1.59,1.07,1.07,0,0,1,.77-.34h3.91a.38.38,0,0,0,.43-.43v-.73a.38.38,0,0,0-.43-.43h-4.43a1.15,1.15,0,0,1-.84-.37,1.19,1.19,0,0,1,0-1.72,1.15,1.15,0,0,1,.84-.37h4.68a.15.15,0,0,0,.17-.17,1.54,1.54,0,0,1,1.5-1.5h.73a1.42,1.42,0,0,1,1.07.45,1.48,1.48,0,0,1,.43,1.05.15.15,0,0,0,.17.17h9.32a.15.15,0,0,0,.17-.17,1.48,1.48,0,0,1,.43-1.05,1.42,1.42,0,0,1,1.07-.45H159a1.54,1.54,0,0,1,1.5,1.5.15.15,0,0,0,.17.17h4.73a1.13,1.13,0,0,1,.86.37,1.25,1.25,0,0,1,0,1.72,1.13,1.13,0,0,1-.86.37H161a.38.38,0,0,0-.43.43v.73a.38.38,0,0,0,.43.43h4.13a1.07,1.07,0,0,1,.77.34,1.09,1.09,0,0,1,0,1.59,1.07,1.07,0,0,1-.77.34H161a.38.38,0,0,0-.43.43v.86a.38.38,0,0,0,.43.43h8.85a1.45,1.45,0,0,1,1,.41,1.4,1.4,0,0,1,0,2,1.45,1.45,0,0,1-1,.41h-6.66c-.06,0-.1,0-.13.11s0,.12,0,.15a25.71,25.71,0,0,0,7.61,3.7,1.18,1.18,0,0,1,.82.86,1.07,1.07,0,0,1,.09.39,1.31,1.31,0,0,1-.3.82,3.44,3.44,0,0,1-1.42,1,2.43,2.43,0,0,1-.77.13,2.28,2.28,0,0,1-.86-.17A32.91,32.91,0,0,1,164.7,24.15ZM137.29,5.71a.34.34,0,0,0-.39.39V7.78a1.75,1.75,0,0,1-.56,1.31,1.85,1.85,0,0,1-1.33.54,1.83,1.83,0,0,1-1.85-1.85V6.1a3.4,3.4,0,0,1,1-2.49,3.39,3.39,0,0,1,2.49-1h12.93a.23.23,0,0,0,.26-.26V2a1.94,1.94,0,0,1,.6-1.42,2,2,0,0,1,2.88,0A1.94,1.94,0,0,1,154,2v.3a.23.23,0,0,0,.26.26h13.11a3.4,3.4,0,0,1,2.49,1,3.4,3.4,0,0,1,1,2.49V7.69a1.87,1.87,0,0,1-.56,1.38,1.84,1.84,0,0,1-1.35.56,1.91,1.91,0,0,1-1.37-.56A1.83,1.83,0,0,1,167,7.69V6.1a.34.34,0,0,0-.39-.39Zm22.73,19a.38.38,0,0,0,.43-.43v-.9a.38.38,0,0,0-.43-.43H143.73a.38.38,0,0,0-.43.43v.9a.38.38,0,0,0,.43.43Zm0,3.87a.38.38,0,0,0,.43-.43v-.9a.38.38,0,0,0-.43-.43H143.73a.38.38,0,0,0-.43.43v.9a.38.38,0,0,0,.43.43Zm0,4a.38.38,0,0,0,.43-.43v-.95a.38.38,0,0,0-.43-.43H143.73a.38.38,0,0,0-.43.43v.95a.38.38,0,0,0,.43.43Zm-1.59-13.28a.94.94,0,0,0-.73-.34H146.87a1,1,0,0,0-.73.3q-.77.77-1.33,1.29c-.06,0-.07.08,0,.15a.17.17,0,0,0,.17.11h14.61a.17.17,0,0,0,.17-.11c0-.07,0-.12,0-.15Q159,19.85,158.43,19.25Zm-10.91-8.77a.38.38,0,0,0-.43.43v.73a.38.38,0,0,0,.43.43h8.81a.38.38,0,0,0,.43-.43v-.73a.38.38,0,0,0-.43-.43Zm0,3.87a.38.38,0,0,0-.43.43v.86a.38.38,0,0,0,.43.43h8.81a.38.38,0,0,0,.43-.43v-.86a.38.38,0,0,0-.43-.43Z"/>
    <path class="3938e002-1425-4de2-8830-5c642d1370c8" d="M201,36.44h9.11a2.46,2.46,0,0,0,1.93-.64,5,5,0,0,0,.77-2.58,1.09,1.09,0,0,1,.6-.95,1.38,1.38,0,0,1,1.16-.09,2.75,2.75,0,0,1,1.2,1,2,2,0,0,1,.34,1.12v.3a7.06,7.06,0,0,1-1.72,4.15,6,6,0,0,1-4.08,1.14h-9.58q-3.87,0-5.2-1.18t-1.33-4.58V14.48a0,0,0,0,0,0,0,.59.59,0,0,1-.52.24.63.63,0,0,1-.47-.24q-.69-.82-1.42-1.59c-.06-.06-.11-.07-.15,0a.15.15,0,0,0-.06.13,2.54,2.54,0,0,1-.79,1.89,2.65,2.65,0,0,1-1.91.77h-1.5a.38.38,0,0,0-.43.43v4.64a.38.38,0,0,0,.43.43h2.28a1.83,1.83,0,0,1,1.8,1.8,1.67,1.67,0,0,1-.54,1.25,1.77,1.77,0,0,1-1.27.52H187.3a.38.38,0,0,0-.43.43v6.36a.35.35,0,0,0,.13.28.32.32,0,0,0,.3.06l2.84-.82a1.58,1.58,0,0,1,1.29.21,1.6,1.6,0,0,1,.73,1.12v.3a2.18,2.18,0,0,1-.3,1.12,2.05,2.05,0,0,1-1.16.86q-6.83,1.89-12.33,3.48a2.07,2.07,0,0,1-.56.09,2,2,0,0,1-.95-.26,1.85,1.85,0,0,1-.9-1.2v0a1.49,1.49,0,0,1-.09-.47,1.61,1.61,0,0,1,.3-.95,1.7,1.7,0,0,1,1.16-.86.26.26,0,0,0,.21-.3V21a1.68,1.68,0,0,1,3.35,0V33a.35.35,0,0,0,.13.28.26.26,0,0,0,.26.06l1.55-.43a.48.48,0,0,0,.43-.52V16a.38.38,0,0,0-.43-.43h-1.42a3.74,3.74,0,0,1-3.74-3.74V5.59a3.6,3.6,0,0,1,1.1-2.64,3.6,3.6,0,0,1,2.64-1.1h6.36a3.6,3.6,0,0,1,2.64,1.1,3.6,3.6,0,0,1,1.1,2.64v5.54a.17.17,0,0,0,.09.17.14.14,0,0,0,.17,0,29.72,29.72,0,0,0,5.07-9.32,2,2,0,0,1,.95-1.16,1.8,1.8,0,0,1,.95-.26,1.51,1.51,0,0,1,.47.09,1.69,1.69,0,0,1,1.12.86,1.59,1.59,0,0,1,.21.77,1.51,1.51,0,0,1-.13.6l-.64,1.68a.28.28,0,0,0,0,.3.29.29,0,0,0,.26.13h10.05A3.64,3.64,0,0,1,212.72,6a3.53,3.53,0,0,1,1.1,2.62q0,10.14-.26,14.48-.17,3.87-.82,4.9a3.93,3.93,0,0,1-2.88,1.63q-.69.09-1.68.13h-.13a3.31,3.31,0,0,1-2.23-.86,6.46,6.46,0,0,1-1.72-2.32.5.5,0,0,0-.52-.34h-5.37a.38.38,0,0,0-.43.43v7.43q0,1.46.58,1.89A5,5,0,0,0,201,36.44ZM187.34,12.12a.38.38,0,0,0,.43-.43V5.8a.38.38,0,0,0-.43-.43h-5.76a.38.38,0,0,0-.43.43v5.89a.38.38,0,0,0,.43.43ZM210,8.89a.38.38,0,0,0-.43-.43H198.39a.69.69,0,0,0-.64.39,40.8,40.8,0,0,1-2.06,3.52.23.23,0,0,0,0,.21.21.21,0,0,0,.19.13h7a3.74,3.74,0,0,1,3.74,3.74v9.37a.38.38,0,0,1-.43.43q.77,0,1.8,0a1.37,1.37,0,0,0,1.25-.6q.43-.64.58-4.06T210,8.89Zm-7.3,14.05a.38.38,0,0,0,.43-.43v-6a.38.38,0,0,0-.43-.43h-4.47a.38.38,0,0,0-.43.43v6a.38.38,0,0,0,.43.43Z"/>
    <path class="3938e002-1425-4de2-8830-5c642d1370c8" d="M246.25,6.45a.36.36,0,0,0,0,.3.25.25,0,0,0,.21.13h8.59a3.57,3.57,0,0,1,2.62,1.07,3.49,3.49,0,0,1,1,2.49,198.67,198.67,0,0,1-1,20q-.56,5.63-1.8,7.18a5.27,5.27,0,0,1-1.65,1.46,7.4,7.4,0,0,1-2.17.64q-1,.08-2.71.09h-1.85a2.45,2.45,0,0,1-1.57-.64,3.46,3.46,0,0,1-1-1.5,1.4,1.4,0,0,1,.15-1.25,1.09,1.09,0,0,1,1.05-.52q2.41.09,4.38.09a2.26,2.26,0,0,0,1.85-.73q1-1,1.57-6.38T255,11a.44.44,0,0,0-.43-.43h-9.5a.69.69,0,0,0-.64.39q-.95,2.15-1.93,4a2.78,2.78,0,0,1-2.11,1.42,2.82,2.82,0,0,1-.69.09,3.42,3.42,0,0,1-1.93-.6.27.27,0,0,0-.24,0,.21.21,0,0,0-.11.19v16a3.74,3.74,0,0,1-3.74,3.74H225.8a.3.3,0,0,0-.34.34v1.16a1.83,1.83,0,0,1-1.85,1.85,1.86,1.86,0,0,1-1.33-.54,1.75,1.75,0,0,1-.56-1.31V10.83a3.74,3.74,0,0,1,3.74-3.74h.77a.48.48,0,0,0,.52-.43q.64-2.23,1.07-4.51a2.12,2.12,0,0,1,.95-1.42A2,2,0,0,1,230,.3a1.62,1.62,0,0,1,.39,0,1.72,1.72,0,0,1,1.33.9,1.62,1.62,0,0,1,.3.95,1.84,1.84,0,0,1-.13.64q-.73,2.06-1.42,3.82a.36.36,0,0,0,0,.3.29.29,0,0,0,.26.13h2.88a3.74,3.74,0,0,1,3.74,3.74V15c0,.09,0,.14.09.15a.18.18,0,0,0,.17-.06,39.54,39.54,0,0,0,5.8-13.11,2.14,2.14,0,0,1,.95-1.29,1.88,1.88,0,0,1,1-.3,1.27,1.27,0,0,1,.47.09,1.83,1.83,0,0,1,1.25.9,1.75,1.75,0,0,1,.3.95,1.77,1.77,0,0,1-.09.56Q246.81,4.86,246.25,6.45Zm-12.59,4.64a.38.38,0,0,0-.43-.43h-7.35a.38.38,0,0,0-.43.43v7.48a.38.38,0,0,0,.43.43h7.35a.38.38,0,0,0,.43-.43Zm-8.21,20.75a.38.38,0,0,0,.43.43h7.35a.38.38,0,0,0,.43-.43V23a.38.38,0,0,0-.43-.43h-7.35a.38.38,0,0,0-.43.43Zm25.27-6.92a2,2,0,0,1,.3,1,2.07,2.07,0,0,1-.09.56,2,2,0,0,1-.95,1.25,1.62,1.62,0,0,1-1.46.21,1.84,1.84,0,0,1-1.16-.9q-1.68-3-4.43-6.87a1.61,1.61,0,0,1-.3-.95,2,2,0,0,1,0-.39,1.6,1.6,0,0,1,.77-1.07,2.29,2.29,0,0,1,1-.26,2.94,2.94,0,0,1,.47,0,1.88,1.88,0,0,1,1.25.77Q249.09,22.21,250.72,24.92Z"/>
    <path class="3938e002-1425-4de2-8830-5c642d1370c8" d="M272.46,2.11A2.35,2.35,0,0,1,273.54.95a2.27,2.27,0,0,1,.95-.21,2.68,2.68,0,0,1,.64.09,1.82,1.82,0,0,1,1.12,1,1.9,1.9,0,0,1,.17.77,1.94,1.94,0,0,1-.13.69q-1.46,3.44-3.39,7a1.65,1.65,0,0,0-.21.82V38.46a1.86,1.86,0,0,1-.58,1.35,1.88,1.88,0,0,1-1.37.58,1.81,1.81,0,0,1-1.35-.58,1.89,1.89,0,0,1-.56-1.35V17.14c0-.06,0-.1-.11-.13s-.12,0-.15,0q-.95,1.29-2,2.49a1.42,1.42,0,0,1-1.12.56.79.79,0,0,1-.26,0,1.5,1.5,0,0,1-1.22-.84,3.24,3.24,0,0,1-.41-1.57,1.57,1.57,0,0,1,0-.39,3,3,0,0,1,.77-1.8A48.44,48.44,0,0,0,272.46,2.11Zm27.07,10.31a.32.32,0,0,0-.06-.3.35.35,0,0,0-.28-.13h-6.32a.38.38,0,0,0-.43.43V35.66a6.49,6.49,0,0,1-.41,2.56,3,3,0,0,1-1.35,1.44,10.26,10.26,0,0,1-3.91.77h-.13a2.39,2.39,0,0,1-1.55-.56,3.23,3.23,0,0,1-1.07-1.5,1.61,1.61,0,0,1-.09-.52,1.45,1.45,0,0,1,.26-.82,1.23,1.23,0,0,1,1.12-.64h2.28a.92.92,0,0,0,.6-.15.76.76,0,0,0,.17-.58V12.42a.38.38,0,0,0-.43-.43h-5.07a.61.61,0,0,0-.6.39,44.51,44.51,0,0,1-2.84,5.07,1.6,1.6,0,0,1-1.29.82h-.26a1.93,1.93,0,0,1-1.29-.47,2.09,2.09,0,0,1-.77-1.37,1.38,1.38,0,0,1,0-.34,2.14,2.14,0,0,1,.39-1.25,41.28,41.28,0,0,0,5.5-12.55A2,2,0,0,1,282.61,1a2.12,2.12,0,0,1,1.12-.34,2.44,2.44,0,0,1,.47,0,1.85,1.85,0,0,1,1.29.9,1.82,1.82,0,0,1,.3,1,1.77,1.77,0,0,1-.09.56q-.73,2.41-1.55,4.68a.21.21,0,0,0,0,.26.29.29,0,0,0,.26.13H300.7a2.64,2.64,0,0,1,1.16,0l.86.17a1.52,1.52,0,0,1,.95.6,1.45,1.45,0,0,1,.26.82,1,1,0,0,1,0,.3q-.6,3.27-1.29,6.53a1.91,1.91,0,0,1-.77,1.12,1.81,1.81,0,0,1-1,.3,1.38,1.38,0,0,1-.34,0,1.74,1.74,0,0,1-1.16-.73,1.81,1.81,0,0,1-.3-1v-.34Q299.28,14.39,299.54,12.42Zm-18.82,8.64a2.39,2.39,0,0,1,.95-1.29,2.19,2.19,0,0,1,1.16-.34,2.07,2.07,0,0,1,1.68.9,1.82,1.82,0,0,1,.3,1,2,2,0,0,1-.09.52A44.7,44.7,0,0,1,280.16,33a1.88,1.88,0,0,1-1.29.86h-.39a2,2,0,0,1-1.16-.34,1.71,1.71,0,0,1-.86-1.2,2.13,2.13,0,0,1,0-.43,2.1,2.1,0,0,1,.3-1.07A33.83,33.83,0,0,0,280.71,21.05Zm15,.56a1.6,1.6,0,0,1-.17-.73,1.44,1.44,0,0,1,.17-.64,1.54,1.54,0,0,1,1-.95,2.19,2.19,0,0,1,1.59,0,2.16,2.16,0,0,1,1.12,1.07,57.77,57.77,0,0,1,3.91,10.7,3.44,3.44,0,0,1,0,.56,2.1,2.1,0,0,1-.3,1.07,2.29,2.29,0,0,1-1.29,1.07,1.52,1.52,0,0,1-.6.13,1.66,1.66,0,0,1-.86-.26,1.85,1.85,0,0,1-.9-1.2A57.43,57.43,0,0,0,295.71,21.61Z"/>
  </g>
</svg>
