<svg id="cb2590b1-2076-4d12-a22d-45799e7527ba" data-name="圖層 1" xmlns="http://www.w3.org/2000/svg" width="142.05" height="29.7" viewBox="0 0 142.05 29.7">
  <defs>
    <style>
      .d61e2941-aba9-4a34-bc46-205884d5679f {
        fill: #434a5d;
      }
    </style>
  </defs>
  <title>titleWord</title>
  <g>
    <path class="d61e2941-aba9-4a34-bc46-205884d5679f" d="M21.69,2.17c.93.63,1.41,1.08,1.41,1.38s-.21.45-.63.69a2.32,2.32,0,0,0-.78.66v19c0,2.1-1.14,3.39-3.42,3.9-.33,0-.54-.24-.63-.69a3.51,3.51,0,0,0-1.77-1.89,14.43,14.43,0,0,0-2.43-.84,1.41,1.41,0,0,0,.06-.57,36.76,36.76,0,0,0,4.56.21.69.69,0,0,0,.78-.75V17H7.2a16.51,16.51,0,0,1-.6,3.42,10.24,10.24,0,0,1-2,3.81,11.12,11.12,0,0,1-4.14,3.6.56.56,0,0,1-.45-.3,16,16,0,0,0,3.24-5.28q1.08-2.52,1.17-8.55c0-4.86,0-7.89-.06-9,0-1-.06-2.1-.12-3.39L7.68,2.83H18.42A5.46,5.46,0,0,1,20,1.36,4,4,0,0,1,21.69,2.17ZM7.32,13.6c0,1,0,1.86-.06,2.64H18.84V10.18H7.32Zm0-4.2H18.84V3.61H7.29Z"/>
    <path class="d61e2941-aba9-4a34-bc46-205884d5679f" d="M40.89,2.89c0,.27-.69.48-2,.66a36.4,36.4,0,0,1-2.61,5.31c1.23.36,1.86.63,1.86.81s-.21.3-.63.42-.57.3-.57.39v9.63Q37,24,37,27.49c-.06.48-.69.75-1.83.81q-1.08,0-1.08-.54c.06-2.49.09-5,.09-7.59V12.1A23.5,23.5,0,0,1,30,16.66c-.06-.06-.15-.21-.33-.39C33.42,11,35.7,6,36.48,1Q40.89,2.31,40.89,2.89Zm12.39-.57a.3.3,0,0,1-.24.33q-.36.14-.81.36c-.3.12-.42.24-.42.36V8.2h.33a9.44,9.44,0,0,1,2-2.07h.24a4.75,4.75,0,0,1,.75.51C56.34,7.72,57,8.38,57,8.68s-.12.42-.3.42H51.81V23.59c0,2.88-1.2,4.32-3.54,4.32-.54,0-.81-.21-.81-.57a2.6,2.6,0,0,0-1.53-1.71,7.36,7.36,0,0,0-2.67-.84,1.25,1.25,0,0,0,.09-.54c.84.06,2.61.06,5.25.06.33,0,.51-.3.51-.93V9.1h-5.4a17.31,17.31,0,0,0-4.41.33Q39,8.67,38.58,7.9a23.66,23.66,0,0,0,4.65.3h5.88V4.78a21.09,21.09,0,0,0-.24-3.66C51.57,1.6,53,2,53.28,2.32ZM45.87,17.65a1.72,1.72,0,0,1-.6,1.5,1.63,1.63,0,0,1-1,.36c-.78,0-1.35-.81-1.65-2.49a9.1,9.1,0,0,0-2.25-4.38l.36-.36C44.13,14.17,45.87,16,45.87,17.65Z"/>
    <path class="d61e2941-aba9-4a34-bc46-205884d5679f" d="M62.82,25.33V24.22h1.8a1.66,1.66,0,0,0,1.86-1.89V9.52a1.52,1.52,0,0,0-.33-1.14,1.79,1.79,0,0,0-1.08-.27H62.82V7a7,7,0,0,0,4.89-2.07h1.35v17.4q0,1.89,1.8,1.89h1.86v1.11Z"/>
    <path class="d61e2941-aba9-4a34-bc46-205884d5679f" d="M90.72,24.16a7.93,7.93,0,0,1-5,1.62,7.56,7.56,0,0,1-4.53-1.35A4.92,4.92,0,0,1,79,20.14a4.9,4.9,0,0,1,1.29-3.33,6.55,6.55,0,0,1,3.21-1.92c-2.43-1.05-3.63-2.73-3.63-5A4.68,4.68,0,0,1,81.69,6,6.61,6.61,0,0,1,85.92,4.6,7,7,0,0,1,90,5.8a4.55,4.55,0,0,1,1.92,3.84,4.21,4.21,0,0,1-.9,2.79A7,7,0,0,1,88.83,14c2.7,1.17,4,3.06,4,5.7A5.4,5.4,0,0,1,90.72,24.16Zm-1.86-6.84A20.6,20.6,0,0,0,85,15.52c-2.34,1.08-3.51,2.67-3.51,4.71a4,4,0,0,0,1.23,3.06,3.92,3.92,0,0,0,2.94,1.23,5.27,5.27,0,0,0,3.42-1.11,3.77,3.77,0,0,0,1.35-3.12A3.57,3.57,0,0,0,88.86,17.32ZM88.56,7a3.43,3.43,0,0,0-2.64-1.14,3.73,3.73,0,0,0-2.61.9,3.51,3.51,0,0,0-1.08,2.73c0,1.32,1.68,2.58,5,3.84q2.34-1.53,2.34-3.51A4,4,0,0,0,88.56,7Z"/>
    <path class="d61e2941-aba9-4a34-bc46-205884d5679f" d="M109.62,22.66a6.5,6.5,0,0,1-11.1,0,13.64,13.64,0,0,1-1.77-7.47,14,14,0,0,1,1.77-7.5,6.53,6.53,0,0,1,11.1,0,14.23,14.23,0,0,1,1.77,7.5A13.9,13.9,0,0,1,109.62,22.66Zm-1.77-13.5q-1.08-3.24-3.78-3.24t-3.78,3.24a20.91,20.91,0,0,0-.66,6,20.54,20.54,0,0,0,.66,6q1,3.24,3.78,3.24t3.78-3.24a21.64,21.64,0,0,0,.66-6A22,22,0,0,0,107.85,9.16Z"/>
    <path class="d61e2941-aba9-4a34-bc46-205884d5679f" d="M139.5,9.43c1.38,1.14,2.07,1.89,2.07,2.22s-.12.39-.33.39h-8.37V23.26c.18.81.57,1.2,1.23,1.2h3.51c.93,0,1.47-.66,1.59-2a37.23,37.23,0,0,0,.72-4,1.83,1.83,0,0,0,.57.06v4a1.33,1.33,0,0,0,.6,1.29c.63.33,1,.69,1,1.08,0,.72-.6,1.26-1.74,1.62a21.18,21.18,0,0,1-4.11.42,28.08,28.08,0,0,1-2.91-.09c-2.16-.15-3.24-1.17-3.27-3.06V12h-4.2c0,.6,0,1.38-.06,2.28q0,11.16-10.32,13.71s-.06-.18-.15-.48c5-2.28,7.59-6.57,7.59-12.87,0-.54,0-1.44.09-2.64h-.42a32.37,32.37,0,0,0-6.39.36,13.86,13.86,0,0,0-.69-1.56,55.7,55.7,0,0,0,7.14.3h13.71a10.39,10.39,0,0,1,2.13-2.25c.06,0,.15,0,.27,0A6.84,6.84,0,0,1,139.5,9.43ZM136.65,2.2c1.38,1.14,2.07,1.89,2.07,2.19s-.12.42-.3.42h-14.7a20.19,20.19,0,0,0-5,.36A13.8,13.8,0,0,0,118,3.61a30.81,30.81,0,0,0,5.31.3h10.2a11.88,11.88,0,0,1,2.1-2.28c.06,0,.15,0,.27,0A9.05,9.05,0,0,1,136.65,2.2Z"/>
  </g>
</svg>
