<svg id="1bd6e505-cccd-470c-97af-1b8d4c0cf03a" data-name="圖層 1" xmlns="http://www.w3.org/2000/svg" width="219.97" height="41.42" viewBox="0 0 219.97 41.42">
  <defs>
    <style>
      .\32 9723092-2756-4f96-9138-4453ecfc2201 {
        fill: #373737;
      }
    </style>
  </defs>
  <title>titleWord2</title>
  <g>
    <path class="29723092-2756-4f96-9138-4453ecfc2201" d="M11,17.57a1.38,1.38,0,0,1-.06-1.1,1.23,1.23,0,0,1,.75-.79,1.59,1.59,0,0,1,1.2,0,1.79,1.79,0,0,1,.95.77,35,35,0,0,1,2.79,6.23,1.69,1.69,0,0,1-.09,1.29,1.88,1.88,0,0,1-1,.95,1.27,1.27,0,0,1-1.14,0,1.35,1.35,0,0,1-.75-.88q-.09-.26-.21-.56a.34.34,0,0,0-.34-.26l-2.15.13a.43.43,0,0,0-.43.47V39.57a1.78,1.78,0,0,1-.54,1.31,1.82,1.82,0,0,1-2.58,0,1.78,1.78,0,0,1-.54-1.31V24a.41.41,0,0,0-.13-.3.3.3,0,0,0-.3-.09L2,23.85H1.85a1.72,1.72,0,0,1-1.2-.47A1.79,1.79,0,0,1,0,22a1.56,1.56,0,0,1,.43-1.07,1.64,1.64,0,0,1,1.2-.6h.95a.69.69,0,0,0,.52-.3q1.25-1.63,2.06-2.84a.58.58,0,0,0,0-.73,41.47,41.47,0,0,0-4-4.64,1.93,1.93,0,0,1-.58-1.22A1.75,1.75,0,0,1,.95,9.28l.17-.21A1.26,1.26,0,0,1,2,8.53a1.21,1.21,0,0,1,1,.32.14.14,0,0,0,.21,0,57.72,57.72,0,0,0,2.84-6,2,2,0,0,1,1-1.07,1.9,1.9,0,0,1,.77-.17,2,2,0,0,1,.69.13,1.84,1.84,0,0,1,1,1,2.17,2.17,0,0,1,.09.6,2.2,2.2,0,0,1-.17.82Q7.22,8.29,5.59,10.79a.53.53,0,0,0,.09.69q.94,1,1.55,1.76a.23.23,0,0,0,.24.11.33.33,0,0,0,.24-.15q1.76-2.88,3.14-5.5a2,2,0,0,1,1.72-1.07,1.66,1.66,0,0,1,.82.21,1.56,1.56,0,0,1,.86,1,1.61,1.61,0,0,1,.09.52,1.45,1.45,0,0,1-.26.82q-3.91,6.23-7.22,10.57a.21.21,0,0,0,0,.24.21.21,0,0,0,.19.11q2.28-.09,4.64-.21a.25.25,0,0,0,.21-.13.28.28,0,0,0,0-.3Q11.43,18.43,11,17.57ZM1.85,27.89a1.59,1.59,0,0,1,.67-1.12,1.64,1.64,0,0,1,1.31-.3A1.89,1.89,0,0,1,5,27.2a1.82,1.82,0,0,1,.3,1v.34a40.49,40.49,0,0,1-2,7.86,1.3,1.3,0,0,1-.9.86,1.56,1.56,0,0,1-1.29-.13,1.71,1.71,0,0,1-.9-1,1.73,1.73,0,0,1,0-1.31A37.66,37.66,0,0,0,1.85,27.89Zm10.05.3a1.27,1.27,0,0,1,0-1.14,1.35,1.35,0,0,1,.84-.75,1.63,1.63,0,0,1,1.25.06,1.67,1.67,0,0,1,.86.88,44.62,44.62,0,0,1,1.72,4.94,1.52,1.52,0,0,1-.13,1.27,1.72,1.72,0,0,1-1,.84,1.41,1.41,0,0,1-1.2-.11,1.52,1.52,0,0,1-.73-1Q12.85,30.72,11.9,28.19Zm12.59-25a3.2,3.2,0,0,1,2.88-1.72,3.51,3.51,0,0,1,3.05,1.63,46,46,0,0,0,9.11,10.18,2.35,2.35,0,0,1,.86,1.55,1.43,1.43,0,0,1,0,.34A2.24,2.24,0,0,1,40,16.5a2,2,0,0,1-1.37.9,1.4,1.4,0,0,1-.34,0,1.65,1.65,0,0,1-1.2-.52A53.26,53.26,0,0,1,32,11.62,59.32,59.32,0,0,1,27.76,6a.24.24,0,0,0-.43,0,47.42,47.42,0,0,1-4.08,5.82A46.29,46.29,0,0,1,18,17.32a1.71,1.71,0,0,1-1.12.43h-.34a2,2,0,0,1-1.29-.86,2.34,2.34,0,0,1-.39-1.29v-.34a2.36,2.36,0,0,1,.82-1.46,40.36,40.36,0,0,0,4.83-5A42.25,42.25,0,0,0,24.49,3.18Zm-2.66,37.6a1.89,1.89,0,0,1-3.22-1.33V27.29a3.74,3.74,0,0,1,3.74-3.74H33.86a3.74,3.74,0,0,1,3.74,3.74v11.9a1.94,1.94,0,0,1-.56,1.4,1.83,1.83,0,0,1-1.37.58,2,2,0,0,1-2-2v0a.19.19,0,0,0-.21-.21H22.64c-.17,0-.26.07-.26.21v.3A1.82,1.82,0,0,1,21.83,40.78Zm-.64-22.43A1.82,1.82,0,0,1,20.63,17a1.75,1.75,0,0,1,.56-1.31,1.86,1.86,0,0,1,1.33-.54h10.7A1.83,1.83,0,0,1,35.06,17a1.85,1.85,0,0,1-.54,1.33,1.75,1.75,0,0,1-1.31.56H22.52A1.82,1.82,0,0,1,21.18,18.35Zm12.5,9.28a.38.38,0,0,0-.43-.43H22.82a.38.38,0,0,0-.43.43v7.22a.38.38,0,0,0,.43.43H33.26a.38.38,0,0,0,.43-.43Z"/>
    <path class="29723092-2756-4f96-9138-4453ecfc2201" d="M80,16a3.5,3.5,0,0,1,2.62,1.12,3.4,3.4,0,0,1,1,2.49q0,1.93-.3,8.72-.17,3.35-.39,5.78a27.06,27.06,0,0,1-.52,3.67,5.63,5.63,0,0,1-.69,1.8,3.84,3.84,0,0,1-1.16,1.12,4.29,4.29,0,0,1-1.55.47,15.47,15.47,0,0,1-2.28.13h-.13a2,2,0,0,1-1.37-.54,2.69,2.69,0,0,1-.82-1.35A11,11,0,0,0,74,38a.27.27,0,0,1,0-.24.15.15,0,0,1,.19-.06,0,0,0,0,0,0,0l-.13-.34a.45.45,0,0,0-.52-.34q-2.92.34-14.18,1.42A1.6,1.6,0,0,1,58.16,38a1.72,1.72,0,0,1-.62-1.14,1.53,1.53,0,0,1,.37-1.22A1.56,1.56,0,0,1,59,35.11l6.66-.52a.43.43,0,0,0,.43-.47V31.58a.38.38,0,0,0-.43-.43H62.86a3.74,3.74,0,0,1-3.74-3.74V22.73a.09.09,0,0,0,0-.06s0,0-.06,0a1.2,1.2,0,0,1-.82.3,1.11,1.11,0,0,1-.82-.34l-1.33-1.07a.18.18,0,0,0-.17,0,.14.14,0,0,0-.09.13v2.92q0,11.77-2.23,14.91A3.9,3.9,0,0,1,51.09,41a14.88,14.88,0,0,1-2.79.3h0a1.94,1.94,0,0,1-1.42-.6,3.23,3.23,0,0,1-.9-1.46A1.47,1.47,0,0,1,46.15,38a1.24,1.24,0,0,1,1.07-.56h.6q.9,0,1.5,0a1.83,1.83,0,0,0,1.29-.73q1.33-1.63,1.33-12.16a.1.1,0,0,0-.09-.11.18.18,0,0,0-.17.06,32,32,0,0,1-4,4.73,1.6,1.6,0,0,1-1.16.52.7.7,0,0,1-.21,0A2.08,2.08,0,0,1,45,29a1.93,1.93,0,0,1-.47-1.29,1.85,1.85,0,0,1,.6-1.42,28.8,28.8,0,0,0,6.27-7.82,1.37,1.37,0,0,0,.17-.82,30.78,30.78,0,0,0-.95-4.43.26.26,0,0,0-.19-.17.2.2,0,0,0-.24.09q-1.07,1.07-2.32,2.19a1.88,1.88,0,0,1-1.25.47h-.13a2.15,2.15,0,0,1-1.37-.6A1.64,1.64,0,0,1,44.56,14a1.51,1.51,0,0,1,.56-1.2,33.85,33.85,0,0,0,3.39-3.35.53.53,0,0,0,.09-.69,21.11,21.11,0,0,0-3-4,1.47,1.47,0,0,1-.45-1.22,1.49,1.49,0,0,1,.62-1.12A2.06,2.06,0,0,1,47,1.93h.17a1.83,1.83,0,0,1,1.29.6A26.5,26.5,0,0,1,51,5.59a.32.32,0,0,0,.52,0Q52.42,4.34,53.2,3A2.08,2.08,0,0,1,55,2a2,2,0,0,1,1.89,1.38,1.61,1.61,0,0,1,.09.52,1.75,1.75,0,0,1-.3.95,48.38,48.38,0,0,1-3.09,4.47.68.68,0,0,0-.09.73,30.64,30.64,0,0,1,2.23,10.23.17.17,0,0,0,.13.17.19.19,0,0,0,.21,0,22.28,22.28,0,0,0,5.37-6.7.22.22,0,0,0,0-.21.19.19,0,0,0-.15-.09,2.93,2.93,0,0,1-2.92-2.92v-4a3.6,3.6,0,0,1,1.1-2.64,3.6,3.6,0,0,1,2.64-1.1H79a3.6,3.6,0,0,1,2.64,1.1,3.6,3.6,0,0,1,1.1,2.64V9.63A3.74,3.74,0,0,1,79,13.36H66.13a.61.61,0,0,0-.6.39q-.47.9-.95,1.85a.21.21,0,0,0,0,.26.25.25,0,0,0,.21.13ZM77,37.86h.13a1.34,1.34,0,0,0,1.25-.64q.56-.77.9-4.68t.6-12.8a.46.46,0,0,0-.11-.3.35.35,0,0,0-.28-.13H62.56a.82.82,0,0,0-.69.34q-1,1.2-2.23,2.45a.17.17,0,0,0,0,.21c0,.09.09.13.15.13h6.1a.23.23,0,0,0,.26-.26V21.7a1.58,1.58,0,0,1,.47-1.16,1.61,1.61,0,0,1,2.28,0,1.58,1.58,0,0,1,.47,1.16v.47c0,.17.07.26.21.26H72.7a3.74,3.74,0,0,1,3.74,3.74v1.25a3.74,3.74,0,0,1-3.74,3.74H69.78a.38.38,0,0,0-.43.43v2.28a.35.35,0,0,0,.13.28.46.46,0,0,0,.3.11L72.57,34c.14,0,.17-.07.09-.21a1.91,1.91,0,0,0-.17-.34,1.24,1.24,0,0,1-.06-1,1.09,1.09,0,0,1,.71-.69,1.74,1.74,0,0,1,1.2,0,1.6,1.6,0,0,1,.9.77,24.22,24.22,0,0,1,2.11,4.73A.48.48,0,0,1,77,37.86Zm-14.74-32a.38.38,0,0,0-.43.43V9.8a.38.38,0,0,0,.43.43h2.79a.38.38,0,0,0,.43-.43V6.27a.38.38,0,0,0-.43-.43Zm0,22.21a.38.38,0,0,0,.43.43h3a.38.38,0,0,0,.43-.43V25.52a.38.38,0,0,0-.43-.43h-3a.38.38,0,0,0-.43.43ZM68.88,5.84a.38.38,0,0,0-.43.43V9.8a.38.38,0,0,0,.43.43H71.8a.38.38,0,0,0,.43-.43V6.27a.38.38,0,0,0-.43-.43Zm.9,19.25a.38.38,0,0,0-.43.43v2.54a.38.38,0,0,0,.43.43h3a.38.38,0,0,0,.43-.43V25.52a.38.38,0,0,0-.43-.43ZM75.67,5.84a.38.38,0,0,0-.43.43V9.8a.38.38,0,0,0,.43.43h3a.38.38,0,0,0,.43-.43V6.27a.38.38,0,0,0-.43-.43Z"/>
    <path class="29723092-2756-4f96-9138-4453ecfc2201" d="M115.16,34.12a.22.22,0,0,0,0,.26.29.29,0,0,0,.26.13H126a1.94,1.94,0,0,1,1.42.6,2,2,0,0,1,0,2.88,1.94,1.94,0,0,1-1.42.6H90.75a2,2,0,0,1-1.46-.6,2,2,0,0,1,0-2.88,2,2,0,0,1,1.46-.6h19.46a.61.61,0,0,0,.6-.39q1.46-4,2.92-9.45,1.2-4.47,2-8.38a2.43,2.43,0,0,1,1-1.55,2.18,2.18,0,0,1,1.29-.43,2.43,2.43,0,0,1,.47,0,2.28,2.28,0,0,1,1.5,1,2,2,0,0,1,.3,1.76A158,158,0,0,1,115.16,34.12Zm9.45-26a2,2,0,0,1,1.46.6,2,2,0,0,1,0,2.88,2,2,0,0,1-1.46.6H92.13a1.94,1.94,0,0,1-1.42-.6,2,2,0,0,1,0-2.88,1.94,1.94,0,0,1,1.42-.6h13.49a.38.38,0,0,0,.43-.43V2.15a2.08,2.08,0,0,1,.62-1.53,2.13,2.13,0,0,1,3,0,2.08,2.08,0,0,1,.62,1.53V7.69a.38.38,0,0,0,.43.43ZM103.73,29.43a1.43,1.43,0,0,1,0,.34,2.24,2.24,0,0,1-.43,1.33,2.66,2.66,0,0,1-1.46,1,1.49,1.49,0,0,1-.47.09,1.72,1.72,0,0,1-1-.34,2,2,0,0,1-.82-1.33,57.14,57.14,0,0,0-1.07-6.32,64.11,64.11,0,0,0-1.93-7.13,1.62,1.62,0,0,1-.13-.64,1.9,1.9,0,0,1,.21-.86,1.85,1.85,0,0,1,1.16-.9,2.19,2.19,0,0,1,.6-.09,2,2,0,0,1,1,.26,2,2,0,0,1,1,1.2,65.89,65.89,0,0,1,2.11,7Q103.34,26.56,103.73,29.43Z"/>
    <path class="29723092-2756-4f96-9138-4453ecfc2201" d="M137.16,37.3a2,2,0,0,1-1.29.95,2.05,2.05,0,0,1-.56.09,2.1,2.1,0,0,1-1.07-.3,1.69,1.69,0,0,1-.9-1.2,2.82,2.82,0,0,1,0-.47,1.88,1.88,0,0,1,.3-1,31.7,31.7,0,0,0,3-6.75,1.67,1.67,0,0,1,.95-1.07,1.58,1.58,0,0,1,.77-.21,1.62,1.62,0,0,1,.64.13,2,2,0,0,1,1.16,1,1.92,1.92,0,0,1,.21.86,1.62,1.62,0,0,1-.13.64A41.9,41.9,0,0,1,137.16,37.3ZM163.8,2.92A3.6,3.6,0,0,1,166.44,4a3.6,3.6,0,0,1,1.1,2.64V19.25A3.74,3.74,0,0,1,163.8,23H140.38a3.74,3.74,0,0,1-3.74-3.74V6.66A3.6,3.6,0,0,1,137.74,4a3.6,3.6,0,0,1,2.64-1.1ZM141,6.49a.38.38,0,0,0-.43.43v3.87a.38.38,0,0,0,.43.43h8.77a.38.38,0,0,0,.43-.43V6.92a.38.38,0,0,0-.43-.43Zm0,8.08a.38.38,0,0,0-.43.43v4a.38.38,0,0,0,.43.43h8.77a.38.38,0,0,0,.43-.43V15a.38.38,0,0,0-.43-.43Zm8.81,22.21h7.48a2.1,2.1,0,0,0,1.76-.62,6.07,6.07,0,0,0,.69-2.69,1.2,1.2,0,0,1,.67-1,1.42,1.42,0,0,1,1.27-.09A2.77,2.77,0,0,1,163,33.43a2.14,2.14,0,0,1,.39,1.25V35q-.47,3.27-1.72,4.38a6,6,0,0,1-4.08,1.12h-8.21q-3.82,0-5.13-1.05t-1.31-4.06v-6a2.06,2.06,0,1,1,4.13,0v6q0,.9.52,1.16A6,6,0,0,0,149.79,36.78ZM157.31,28a1.79,1.79,0,0,1,.64,1.42,1.82,1.82,0,0,1-.56,1.33,2,2,0,0,1-1.44.6,2.2,2.2,0,0,1-1.48-.56,39.06,39.06,0,0,0-5.76-4,1.42,1.42,0,0,1-.69-1.05,1.3,1.3,0,0,1,.39-1.14,2.48,2.48,0,0,1,1.46-.69,1.42,1.42,0,0,1,.34,0,2.5,2.5,0,0,1,1.2.3A45.62,45.62,0,0,1,157.31,28Zm5.76-16.8a.38.38,0,0,0,.43-.43V6.92a.38.38,0,0,0-.43-.43h-8.51a.38.38,0,0,0-.43.43v3.87a.38.38,0,0,0,.43.43Zm0,8.21a.38.38,0,0,0,.43-.43V15a.38.38,0,0,0-.43-.43h-8.51a.38.38,0,0,0-.43.43v4a.38.38,0,0,0,.43.43Zm.64,10.1a1.54,1.54,0,0,1-.3-.9,1.26,1.26,0,0,1,.09-.47,1.55,1.55,0,0,1,.9-1,2.36,2.36,0,0,1,1-.21A2.68,2.68,0,0,1,166,27a2.4,2.4,0,0,1,1.33.95A41.75,41.75,0,0,1,171.45,35a2,2,0,0,1,0,1.63,2.08,2.08,0,0,1-1.2,1.2,1.9,1.9,0,0,1-.77.17,1.83,1.83,0,0,1-.82-.21,2.11,2.11,0,0,1-1.12-1.16A41.79,41.79,0,0,0,163.71,29.52Z"/>
    <path class="29723092-2756-4f96-9138-4453ecfc2201" d="M214.46,14.09a1.76,1.76,0,0,1-1.25,3h-12.8a1.25,1.25,0,0,0-.77.26Q197.27,19,194,21.05a.1.1,0,0,0-.06.13c0,.06.06.09.15.09h15.38a1.59,1.59,0,0,1,0,3.18H191.34a.47.47,0,0,0-.52.39l-.32,1.25q-.24.9-.37,1.42a.32.32,0,0,0,.06.3.35.35,0,0,0,.28.13h15.77A3.19,3.19,0,0,1,208.74,29a2.82,2.82,0,0,1,.77,1.93,5.27,5.27,0,0,1,0,.64q-1.25,6.7-3.18,8.42a5.77,5.77,0,0,1-3.74,1.29q-1.2,0-2.41,0t-2.19,0a2.32,2.32,0,0,1-1.46-.62,3.42,3.42,0,0,1-.95-1.44,1.3,1.3,0,0,1,.19-1.14,1.06,1.06,0,0,1,1-.49q2.28.13,4.51.13a3.45,3.45,0,0,0,1.89-.39q1.25-1,2.15-5.67a.32.32,0,0,0-.06-.3.35.35,0,0,0-.28-.13h-15.6a.24.24,0,0,0-.26.21,2.19,2.19,0,0,1-.9,1.29,2.25,2.25,0,0,1-1.2.34,1.4,1.4,0,0,1-.34,0h-.13a1.72,1.72,0,0,1-1.25-.82,1.62,1.62,0,0,1-.21-1.46q.64-2.06,1.42-5.24a.18.18,0,0,0-.06-.21.18.18,0,0,0-.19,0q-3.14,1.55-6.4,2.88a2.75,2.75,0,0,1-.95.17,3.35,3.35,0,0,1-.73-.09,2.73,2.73,0,0,1-1.42-1,1.26,1.26,0,0,1-.34-.86.85.85,0,0,1,.09-.39,1.31,1.31,0,0,1,.86-1,82.63,82.63,0,0,0,10.23-4.55.28.28,0,0,0,.13-.13.71.71,0,0,1,.32-.49.8.8,0,0,1,.58-.15l.26,0a.48.48,0,0,0,.21,0q1.55-.82,4.13-2.41a.11.11,0,0,0,.06-.13.1.1,0,0,0-.11-.09H179.05a1.76,1.76,0,1,1,0-3.52h11.73a.38.38,0,0,0,.43-.43V9.67a.38.38,0,0,0-.43-.43h-8.51a1.68,1.68,0,0,1-1.2-.49,1.61,1.61,0,0,1,0-2.36,1.68,1.68,0,0,1,1.2-.49h8.51a.38.38,0,0,0,.43-.43V3a1.92,1.92,0,0,1,.6-1.44A2,2,0,0,1,193.25,1a1.93,1.93,0,0,1,1.42.58A2,2,0,0,1,195.25,3V5.46a.38.38,0,0,0,.43.43h7.61a1.91,1.91,0,0,1,1.93,1.93s0,.05.06.06a.1.1,0,0,0,.11,0q1.8-1.85,3.27-3.52A2.23,2.23,0,0,1,210,3.57a2.2,2.2,0,0,1,.43,0,2.37,2.37,0,0,1,1.07.26,1.55,1.55,0,0,1,.82,1.12,1.28,1.28,0,0,1,0,.3,1.43,1.43,0,0,1-.39,1,67.9,67.9,0,0,1-7.22,7.09.17.17,0,0,0,0,.19c0,.07.07.11.13.11h8.34A1.7,1.7,0,0,1,214.46,14.09Zm-19.21-.95a.38.38,0,0,0,.43.43h2.58a1.26,1.26,0,0,0,.77-.26q2.45-1.89,4.55-3.78a.17.17,0,0,0-.13-.3h-7.78a.38.38,0,0,0-.43.43Z"/>
  </g>
</svg>
