<svg id="91b7d46c-d3e5-4254-9133-08f017d722c0" data-name="圖層 1" xmlns="http://www.w3.org/2000/svg" width="321.33" height="29.7" viewBox="0 0 321.33 29.7">
  <defs>
    <style>
      .b1f66199-b941-4be4-a96d-705b2da1be3c {
        fill: #434a5d;
      }
    </style>
  </defs>
  <title>titleWord</title>
  <g>
    <path class="b1f66199-b941-4be4-a96d-705b2da1be3c" d="M1.8,1.8v13H0V0H8.61V1.8Z"/>
    <path class="b1f66199-b941-4be4-a96d-705b2da1be3c" d="M25.59,4.59a25,25,0,0,0-5.31.33q-.31-.77-.72-1.53a43,43,0,0,0,5.85.27H36.63a11.23,11.23,0,0,1,2-2.07c.09,0,.18,0,.27,0a5,5,0,0,1,.72.48c1.26,1.08,1.92,1.77,1.92,2.07s-.12.42-.33.42H31.65c0,.9-.06,2.07-.09,3.54A31.19,31.19,0,0,1,31.17,13h7.5a12.91,12.91,0,0,1,2.1-2.28c.09,0,.18,0,.3,0,.24.15.48.33.78.54,1.38,1.14,2.07,1.89,2.07,2.19s-.12.42-.33.42H32.4a14.39,14.39,0,0,0,8.55,9.51,14.87,14.87,0,0,0,3.45,1.2,1.24,1.24,0,0,1-.15.57,2.44,2.44,0,0,0-.9.33,2.91,2.91,0,0,0-.81,1.23c-.27.51-.51.78-.75.78a4.11,4.11,0,0,1-1.56-.72c-4.62-2.4-7.5-6.72-8.58-12.9H31c-1.44,7.47-5.94,12.18-13.5,14.19a2.52,2.52,0,0,0-.18-.54A17.63,17.63,0,0,0,28,13.95H24.81a32.74,32.74,0,0,0-6.42.36,13.75,13.75,0,0,0-.69-1.56,56,56,0,0,0,7.17.3h3.24a28.87,28.87,0,0,0,.33-4.38c0-.84.06-2.19.12-4.08Z"/>
    <path class="b1f66199-b941-4be4-a96d-705b2da1be3c" d="M73,2.28c1.35,1.14,2,1.89,2,2.22s-.12.39-.3.39H62.07V11a26.59,26.59,0,0,1,6.51,2.19c2.52,1.26,3.81,2.58,3.81,4a2.1,2.1,0,0,1-.33,1.35A1,1,0,0,1,71,19c-.48,0-1.44-.84-2.91-2.55a19.71,19.71,0,0,0-6.06-4.71V23.22c.06,1.29.09,2.82.09,4.62q0,.63-1.71.72-1.35,0-1.35-.45c.06-1,.09-2.61.09-5V4.89H55.35a34.91,34.91,0,0,0-6.63.36c-.21-.51-.45-1-.72-1.56a61.21,61.21,0,0,0,7.5.3H69.87A10.51,10.51,0,0,1,72,1.74c.09,0,.18,0,.27,0A6.94,6.94,0,0,1,73,2.28Z"/>
    <path class="b1f66199-b941-4be4-a96d-705b2da1be3c" d="M92.91,4.86q-3.73,6.43-13.65,9.6a4.38,4.38,0,0,0-.33-.39,26.51,26.51,0,0,0,6.72-4.38A18.23,18.23,0,0,0,90,3.81H86.76A34.44,34.44,0,0,0,83.22,4c-.18-.42-.36-.84-.51-1.26a20.5,20.5,0,0,0,4,.3h3c1-1.32,1.65-2,2-2a6.21,6.21,0,0,1,1.89,1.35,3.57,3.57,0,0,1,1,1.2q0,.41-.72.63a.4.4,0,0,1-.21.09A15.34,15.34,0,0,0,99.24,8.7a16.14,16.14,0,0,0,7.11,1.68c0,.24-.06.45-.09.63a3,3,0,0,0-.81.54,6.85,6.85,0,0,0-.66,1.29c-.12.45-.36.66-.66.66-1.17,0-3.12-.93-5.82-2.79a14.67,14.67,0,0,1-5.22-6C93,4.77,92.91,4.83,92.91,4.86ZM98,11.7c1.05.93,1.59,1.53,1.59,1.77s-.12.39-.3.39H93.66v5.28h3.15a9.43,9.43,0,0,1,1.95-2.07l.27,0a5,5,0,0,1,.72.48c1.26,1.08,1.92,1.77,1.92,2.07s-.12.39-.33.39H93.66v6.33h6.12a10.52,10.52,0,0,1,2.1-2.25c.06,0,.15,0,.27,0a4.9,4.9,0,0,1,.78.51c1.38,1.14,2.07,1.86,2.07,2.22s-.12.42-.3.42H86.22a32.6,32.6,0,0,0-6.3.33,10.22,10.22,0,0,0-.69-1.56,60.29,60.29,0,0,0,7,.3h4.5V20H88.11a16.42,16.42,0,0,0-4.53.36,13.87,13.87,0,0,0-.69-1.56,25,25,0,0,0,4.77.3h3.09V13.86H88.83a10.31,10.31,0,0,0-3.57.36c-.21-.51-.45-1-.69-1.56a15.32,15.32,0,0,0,3.75.3h7.2a8.41,8.41,0,0,1,1.68-1.68c.06,0,.12,0,.21,0S97.8,11.55,98,11.7Z"/>
    <path class="b1f66199-b941-4be4-a96d-705b2da1be3c" d="M113,2.58h5.76c.72-.78,1.2-1.2,1.5-1.23a4.6,4.6,0,0,1,1.5.84c.66.51,1,.87,1,1.11s-.15.33-.45.51a2.91,2.91,0,0,0-.78.63V7.5c.09,1.2.15,2,.15,2.31,0,.6-.51.93-1.47.93-.72,0-1.11-.15-1.14-.51V9.45h-5.58V27.21c-.12.6-.69.9-1.65.9-.6,0-1-.12-1.08-.3,0-4.14,0-8.16.09-12.12v-8a58,58,0,0,0-.21-6Zm6.09,3V3.36h-5.58V5.55Zm0,3.09V6.33h-5.58V8.64Zm8.67,3.72c0,.24-.54.39-1.53.42a7.85,7.85,0,0,1-2,2h1.68c.66-.6,1.11-.9,1.38-.9a3.67,3.67,0,0,1,1.38.75c.6.48.93.84.93,1.05s-.12.33-.36.45a3.15,3.15,0,0,0-.69.6V18.3c.09.6.15,1,.15,1.17,0,.57-.45.87-1.35.87-.66,0-1-.15-1-.48v-.24h-.9v3.21c.12.69.45,1,.93,1h1.29a1.17,1.17,0,0,0,1.32-1.14,19.28,19.28,0,0,0,.63-2.22,2.45,2.45,0,0,0,.48,0v2.34a.77.77,0,0,0,.36.75q.54.31.54.63a1,1,0,0,1-.21.63c.3,0,.6,0,.9,0s.69-.21.69-.63V9.39h-5.55v.12q-.18.9-1.62.9c-.6,0-1-.09-1.11-.3,0-1.32,0-2.64.12-3.9V3.66a6.69,6.69,0,0,0-.24-1.92l2.34.9h5.67a4.58,4.58,0,0,1,1.53-1.32,4.1,4.1,0,0,1,1.53.75c.87.57,1.32,1,1.32,1.29s-.21.42-.6.63a2.05,2.05,0,0,0-.69.63V24.81c0,1.8-1.11,2.91-3.3,3.33-.18,0-.3-.21-.36-.57a2.82,2.82,0,0,0-1-1.62c-.27-.18-.51-.3-.69-.42a.42.42,0,0,1-.18.06,7.35,7.35,0,0,1-2.19.36,14.6,14.6,0,0,1-1.56-.06c-1.71-.12-2.58-1-2.58-2.58V19.62h-.9a8.16,8.16,0,0,1-.66,2.52c-1.14,2.58-3.66,4.17-7.56,4.86a.51.51,0,0,0-.24-.36,8.64,8.64,0,0,0,5.46-4.92,9.45,9.45,0,0,0,.45-2.1h-.9c-.15.48-.6.72-1.38.72-.51,0-.81-.09-.93-.27,0-1,0-1.92.09-2.85V15.39a4.37,4.37,0,0,0-.18-1.41l2.13.81h4.68a12.68,12.68,0,0,0,1.2-4Q127.71,12,127.71,12.36Zm-6.06.93c0,.93-.39,1.41-1.17,1.41a1,1,0,0,1-1.08-1.08,2.51,2.51,0,0,0-.18-.78q-.18-.5-.45-1.08a3.81,3.81,0,0,0-.51-.72,2.16,2.16,0,0,1,.36-.24C120.63,11.64,121.65,12.48,121.65,13.29Zm4.62,2.28H118.8v3.24h7.47Zm6-10.11v-2h-5.55v2Zm0,3.12V6.24h-5.55V8.58Z"/>
    <path class="b1f66199-b941-4be4-a96d-705b2da1be3c" d="M149.07,4.59a9.62,9.62,0,0,1,2,2c0,.27-.09.39-.24.39h-7.2a13.69,13.69,0,0,0-2.88.24c-.12-.36-.24-.75-.42-1.23a19.51,19.51,0,0,0,3.3.21h3.18a21.69,21.69,0,0,1,1.38-1.68c.15-.15.27-.24.36-.24S148.8,4.38,149.07,4.59Zm-.63,4.08a9.05,9.05,0,0,1,1.65,1.71c0,.27-.09.39-.21.39h-5.37a13.7,13.7,0,0,0-2.88.24c-.12-.36-.24-.75-.42-1.23a19.84,19.84,0,0,0,3.3.21h1.92c.42-.54.81-1,1.2-1.41a.67.67,0,0,1,.3-.21A1.38,1.38,0,0,1,148.44,8.67Zm-.09,4.08A8,8,0,0,1,150,14.49c0,.24-.09.36-.21.36H144.6a13.69,13.69,0,0,0-2.88.24c-.12-.33-.24-.72-.42-1.2a19.5,19.5,0,0,0,3.3.21h1.74c.42-.54.81-1,1.2-1.41a.66.66,0,0,1,.3-.21A1.17,1.17,0,0,1,148.35,12.75Zm-4.29,5.73h2c.72-1.08,1.2-1.62,1.5-1.65a4,4,0,0,1,1.5.81c.66.54,1,.9,1,1.14a.77.77,0,0,1-.3.51,2.51,2.51,0,0,0-.6.63v3.57c.09,1.41.15,2.28.15,2.7,0,.6-.48.93-1.44,1-.72,0-1.11-.18-1.14-.51v-.72h-2.43v1.5c-.12.54-.6.84-1.5.84-.57,0-.9-.09-1-.27,0-1.68,0-3.27.09-4.86V19.95a11.92,11.92,0,0,0-.18-2.4Zm.81-16.59a2.84,2.84,0,0,1,1.62,2.37A1.64,1.64,0,0,1,146,5.52a1.3,1.3,0,0,1-.87.24c-.51,0-.84-.45-1-1.41a7.55,7.55,0,0,0-.66-1.86,10.07,10.07,0,0,0-.81-1.08c.06-.06.12-.18.24-.3A6.54,6.54,0,0,1,144.87,1.89Zm1.8,23.22V19.23h-2.43v5.88ZM157.26,25c.75.54,1.14.84,1.14,1s-.12.3-.33.33c-.81-.09-1.32-.12-1.5-.12-1.59,1.17-4.08,2-7.47,2.4,0-.27-.06-.39-.12-.39a13.75,13.75,0,0,0,6.6-4.35C155.88,24.06,156.42,24.45,157.26,25Zm8.61-22.47c1,.9,1.59,1.5,1.59,1.74s-.12.42-.3.42h-7.68V6.6h2.91a8.91,8.91,0,0,1,1.5-1.47h.21l.57.39c.93.84,1.41,1.35,1.41,1.59s-.12.39-.3.39h-10a9.25,9.25,0,0,0-3.42.36c-.21-.51-.45-1-.72-1.56a15.06,15.06,0,0,0,3.69.3H157V4.68H154.8a15.88,15.88,0,0,0-4.23.33c-.21-.51-.45-1-.69-1.56a23.38,23.38,0,0,0,4.62.3H157c0-1.08-.09-2-.18-2.67,2.64.39,4,.72,4,1s-.18.39-.48.45c-.57.24-.84.42-.84.6v.6h3.9a8.42,8.42,0,0,1,1.68-1.68c.06,0,.12,0,.21,0A5.44,5.44,0,0,1,165.87,2.52ZM152.76,9h10.53c.66-.81,1.11-1.23,1.38-1.23a4.17,4.17,0,0,1,1.38.75c.6.48.93.84.93,1s-.15.3-.39.45a2.54,2.54,0,0,0-.69.6v1.53c.06.6.12,1,.12,1.17,0,.57-.45.87-1.32.87-.69,0-1-.15-1-.48v-.12H153.06c-.15.48-.6.69-1.38.69-.51,0-.81-.06-.93-.24,0-.93,0-1.83.09-2.73V9.51a4,4,0,0,0-.18-1.35Zm1.32,6.3h7.44c.72-.75,1.23-1.14,1.5-1.14a4.06,4.06,0,0,1,1.5.84c.66.51,1,.87,1,1.11s-.12.33-.36.51a2.62,2.62,0,0,0-.66.63v3.39c.09,1.32.15,2.16.15,2.55,0,.6-.48.93-1.44.93-.75,0-1.14-.15-1.14-.51h-7.71v.36c-.12.57-.63.84-1.5.84-.57,0-.9-.09-1-.3q0-2.38.09-4.68V16.71a8.74,8.74,0,0,0-.21-2.34Zm1.23-5.55h-2.22v3h2.22Zm6.78,7.92V16h-7.71v1.62Zm0,2.52V18.45h-7.71v1.71Zm0,2.61V21h-7.71v1.8Zm-2.76-13h-2v3h2ZM166.56,26a1.74,1.74,0,0,1,.54,1.35c-.06.75-.39,1.14-1,1.14a3.6,3.6,0,0,1-1.8-1,17.13,17.13,0,0,0-4.68-2.61,4.44,4.44,0,0,1,.09-.48,24.33,24.33,0,0,1,3.33.36C164.88,25.08,166.08,25.5,166.56,26ZM163.65,9.72h-2.28v3h2.28Z"/>
    <path class="b1f66199-b941-4be4-a96d-705b2da1be3c" d="M175.86,29.7V27.9h6.81v-13h1.8V29.7Z"/>
    <path class="b1f66199-b941-4be4-a96d-705b2da1be3c" d="M204.39,20.22a14.1,14.1,0,0,1,.3,2.58q0,4.32-1.71,4.41c-1,0-1.44-.33-1.47-1a1.72,1.72,0,0,1,.21-.93,5.42,5.42,0,0,1,1-1.26,7.52,7.52,0,0,0,1.26-3.87A4,4,0,0,0,204.39,20.22Zm7.56-3.6a4.33,4.33,0,0,0,1.35.18h1.8c.69-.84,1.11-1.26,1.29-1.26a3.54,3.54,0,0,1,1.2.75c.45.48.69.72.72.78a.29.29,0,0,1-.12.27,1.34,1.34,0,0,0-.51.27c-1.14,4.86-4,7.86-8.4,9a1.08,1.08,0,0,1-.18-.33,14.64,14.64,0,0,0,3.12-2.58,11.1,11.1,0,0,0,2.94-6.12H213.6a2.59,2.59,0,0,0-1.2.18c-.18-.3-.3-.6-.42-.84-.06.87-.45,1.32-1.17,1.32s-1-.36-1-1.08a4.76,4.76,0,0,0-.09-.84,35.22,35.22,0,0,1-6,1.92c-.15.81-.33,1.2-.54,1.2s-.39-.36-.63-1.11-.54-1.62-.84-2.73a11.62,11.62,0,0,0,2.37.18,29.7,29.7,0,0,0,3.78-5.91,29.29,29.29,0,0,1-4.11,1.41c-.12.75-.3,1.11-.48,1.11s-.36-.33-.57-1-.51-1.47-.78-2.49a11.14,11.14,0,0,0,2,.12,19.59,19.59,0,0,0,2.49-7.8c2.58.69,3.87,1.17,3.87,1.41s-.3.42-.87.48a1.93,1.93,0,0,0-.63.18,18.82,18.82,0,0,1-4,5.73c1.5-.06,2.7-.12,3.6-.24.36-.9.69-1.83,1-2.73,2.25.84,3.39,1.41,3.39,1.68s-.51.39-1.35.48a29.49,29.49,0,0,1-6.15,7.56c1.8-.06,3.27-.15,4.35-.27-.09-.36-.18-.72-.27-1.11s-.3-.87-.39-1.08a1.45,1.45,0,0,1,.33-.24Q211.86,14.82,211.95,16.62Zm-3.18,7.68c0,1.38-.54,2.07-1.56,2.07q-.9,0-.9-1.08a14.88,14.88,0,0,1,.27-2q.09-.85.09-2.52c0-.51-.06-1-.09-1.32a.71.71,0,0,0,.42-.15A9.84,9.84,0,0,1,208.77,24.3ZM212,21.84c0,.84-.36,1.29-1.08,1.29a.88.88,0,0,1-1-1,4.86,4.86,0,0,0-.18-1.11c-.12-.45-.27-1-.45-1.5s-.36-.81-.48-1a2.16,2.16,0,0,1,.33-.21C211.05,19.5,212,20.67,212,21.84Zm5.61-17.13A18.78,18.78,0,0,0,218.34,1c2.43.72,3.66,1.2,3.66,1.47s-.51.54-1.47.6a7.42,7.42,0,0,1-1.68,1.68h4.29c.78-1,1.32-1.56,1.62-1.59a5.35,5.35,0,0,1,1.59.9c.72.54,1.11,1,1.11,1.2s-.15.36-.45.54a3.57,3.57,0,0,0-.75.69v4.11c.09,1.62.15,2.64.15,3.12,0,.66-.54,1-1.56,1-.78,0-1.2-.18-1.23-.57v-.24h-2.13a12.05,12.05,0,0,0,1.71,5.49,10.35,10.35,0,0,0,2.19-4c.48.3,1.23.75,2.28,1.35.54.36.84.6.84.72s-.18.27-.45.27c-.54.06-.9.09-1.08.12a11.28,11.28,0,0,1-1.74,1.26,12.47,12.47,0,0,1-1.68.81,10.33,10.33,0,0,0,1.08,1.41,10,10,0,0,0,4.44,3.18,1.35,1.35,0,0,1-.12.57c-.42,0-.63.09-.66.18a2,2,0,0,0-.87.75c-.3.6-.6.93-.84,1-.51,0-1.41-1-2.73-2.85a16.78,16.78,0,0,1-2.7-8.19V25.2q0,2.93-3.15,3.42c-.18,0-.33-.3-.45-.87a2,2,0,0,0-1.32-1.44,7.14,7.14,0,0,0-1.74-.72,1.31,1.31,0,0,1,.06-.45c.75.06,1.86.15,3.33.24.54,0,.81-.21.81-.69V13.89h-2.85v.42c-.15.6-.69.9-1.65.9-.6,0-1-.09-1.08-.3,0-1.77,0-3.51.09-5.19V6.33A10.42,10.42,0,0,0,213,3.78l2.46.93Zm6,.75h-7.77V8.85h7.77Zm-7.77,7.65h7.77V9.66h-7.77Z"/>
    <path class="b1f66199-b941-4be4-a96d-705b2da1be3c" d="M257.52,24c1.47,1.26,2.22,2,2.22,2.37s-.12.42-.3.42H239.79a35.66,35.66,0,0,0-6.72.36,12.32,12.32,0,0,0-.72-1.56,67.59,67.59,0,0,0,7.47.3h3.42V4.77a26.22,26.22,0,0,0-.18-3.45c3,.45,4.53.84,4.53,1.17s-.18.48-.54.54c-.66.27-1,.48-1,.66v8.19h5.79a10.76,10.76,0,0,1,1.86-2.28.44.44,0,0,1,.21-.06,5.52,5.52,0,0,1,1.38,1,6.94,6.94,0,0,1,1.5,1.68c0,.3-.09.48-.21.51H246.06V25.86h8.07a11.26,11.26,0,0,1,2.25-2.46c.09,0,.18,0,.3,0A3.88,3.88,0,0,1,257.52,24Z"/>
    <path class="b1f66199-b941-4be4-a96d-705b2da1be3c" d="M266.79,11.88a3.19,3.19,0,0,1-.15,1,1.14,1.14,0,0,1-1.14.84q-.45,0-1.17-1.35a8,8,0,0,0-1.68-2.22.67.67,0,0,0,.21-.36C265.38,10,266.7,10.74,266.79,11.88Zm2.46-3.66c-.3,2.07-.72,4.77-1.2,8.13s-.72,5.16-.72,5.64a14.74,14.74,0,0,0,.3,2.76,17.25,17.25,0,0,1,.36,2.34c0,.78-.45,1.2-1.29,1.2-1.08,0-1.62-.51-1.62-1.5,0-.63.06-1.89.24-3.84a1.65,1.65,0,0,0-.75-1.62,7.78,7.78,0,0,0-1.65-.51,1.85,1.85,0,0,1,.06-.45c.42,0,.81,0,1.2,0q1.22,0,1.71-1.8l3-10.53C268.86,8.16,269,8.22,269.25,8.22Zm-.39-3.54a3.19,3.19,0,0,1-.15,1,1.2,1.2,0,0,1-1.17.84c-.3,0-.75-.54-1.29-1.62a8.87,8.87,0,0,0-1.89-2.61.79.79,0,0,0,.21-.39C267.33,2.25,268.74,3.18,268.86,4.68Zm8.76,6.6c0,.21-.42.39-1.23.54,3.66.54,5.52,1.5,5.52,2.91a1.15,1.15,0,0,1-.24.87c-.09.27-.45.39-1,.39-.36,0-.78-.45-1.29-1.41a8.51,8.51,0,0,0-3.3-2.37,11.43,11.43,0,0,1-2.82,3.48c.57.06,1.26.06,2,.06h1.35a13.06,13.06,0,0,1,1-1.14c.12-.12.21-.18.27-.18a1.28,1.28,0,0,1,.42.24,7.26,7.26,0,0,1,1.38,1.44c0,.27-.09.39-.24.39h-2.67V19h1.62a16.47,16.47,0,0,1,1.11-1.29q.18-.18.27-.18a1.13,1.13,0,0,1,.48.27,6.7,6.7,0,0,1,1.5,1.59c0,.24-.09.36-.21.36h-4.77v5.1c.3,0,.63,0,.93-.06a15.47,15.47,0,0,0,1.17-4.29c1.92.57,2.88,1,2.88,1.29s-.45.33-1.29.39a8.61,8.61,0,0,1-2.07,2.55,13.5,13.5,0,0,0,3.63-.69,1.58,1.58,0,0,0,.18.42,28.11,28.11,0,0,1-11,2.7c-.18.84-.39,1.26-.69,1.32s-.42-.51-.66-1.5-.45-1.68-.57-2.28a22.24,22.24,0,0,0,3.87.33c.48,0,1,0,1.41-.06V19.8h-.84a13.7,13.7,0,0,0-2.88.24c-.12-.33-.24-.72-.42-1.2a19.84,19.84,0,0,0,3.3.21h.84V16.5a15.56,15.56,0,0,0-2.16.24,1.45,1.45,0,0,1-.12-.33,14.27,14.27,0,0,1-3.3,1.68c-.06,0-.09-.12-.15-.24a14.09,14.09,0,0,0,5.49-7.47Q277.62,10.83,277.62,11.28Zm-2.49-8.85q.72.45.72.63c0,.18-.15.24-.39.24-.45,0-.75.06-.93.09a10.68,10.68,0,0,1-1.56.72,10.19,10.19,0,0,1-1,.33l.45,4.41a12.78,12.78,0,0,0,1.41-.45,7.85,7.85,0,0,0-.72-2.28l.3-.21q2.12,1.35,2.16,2.43a1.78,1.78,0,0,1-.33,1.23.93.93,0,0,1-.87.42c-.18,0-.33-.21-.39-.69a12.75,12.75,0,0,1-2.31,1.89,2.17,2.17,0,0,0-.21,1c-.06.24-.15.33-.3.33s-.57-.54-1-1.65a11.55,11.55,0,0,0-.6-1.41,7.6,7.6,0,0,0,.81-.12l-.42-5.1a8.25,8.25,0,0,0-.42-1.44l2.13.9a6.37,6.37,0,0,0,1.56-2.4Q273.78,1.66,275.13,2.43Zm-1.65,20.52a2.54,2.54,0,0,1-.15.9,1,1,0,0,1-1,.72c-.18,0-.39-.45-.69-1.35a7.81,7.81,0,0,0-1-2.19.8.8,0,0,0,.18-.33C272.52,21,273.42,21.72,273.48,22.95Zm8.7-20.76c.57.48.87.78.9.93a.4.4,0,0,1-.21.39,5.67,5.67,0,0,0-.6.42c-.06,3.45-.42,5.52-1.05,6.21a2.68,2.68,0,0,1-1.8,1c-.15,0-.24-.12-.27-.42a2.12,2.12,0,0,0-.54-1.17,4.08,4.08,0,0,0-.87-.63,1.33,1.33,0,0,1,.09-.42,3.82,3.82,0,0,0,1.08.21c.6,0,.93-.21,1-.63a25.16,25.16,0,0,0,.39-4.68h-1.47c-.06,1.11-.15,1.86-.21,2.28-.42,2.25-1.32,3.66-2.73,4.26a2.34,2.34,0,0,0-.18-.24,9.25,9.25,0,0,0,1.26-4.35c.06-.66.09-1.32.12-1.92-.48.06-.78.12-.87.24a13.59,13.59,0,0,1-.45-1.32,3.52,3.52,0,0,0,1.77.33H280c.6-.78,1-1.2,1.11-1.2A4.61,4.61,0,0,1,282.18,2.19ZM286,5.76c0,.21-.15.36-.45.45s-.63.36-.63.42V21c0,.42-.45.63-1.29.66-.54,0-.78-.12-.78-.36q.09-6.57.09-15a7.82,7.82,0,0,1-.12-1.38C284.76,5.16,285.81,5.43,286,5.76Zm4.23-3.57a.24.24,0,0,1-.18.27,5,5,0,0,0-.63.27c-.24.12-.36.21-.36.3V24.75q0,3.78-3,3.78c-.33,0-.48-.18-.48-.51a2.58,2.58,0,0,0-.9-1.5,3.27,3.27,0,0,0-1.59-.72,1,1,0,0,0,.09-.48c.54.06,1.62.06,3.3.06.27,0,.42-.27.42-.81V5.07a28.3,28.3,0,0,0-.21-3.84C288.93,1.59,290.1,1.92,290.28,2.19Z"/>
    <path class="b1f66199-b941-4be4-a96d-705b2da1be3c" d="M312.9,14.67q1.17-1.26,1.62-1.26a4.19,4.19,0,0,1,1.59.9c.72.54,1.11,1,1.11,1.2s-.18.36-.48.54a3.21,3.21,0,0,0-.87.69v3.57c.09,1.38.15,2.28.15,2.7,0,.66-.54,1-1.56,1-.78,0-1.2-.18-1.23-.54v-.33h-2v2a1,1,0,0,0,1.11.9h5.43c.72,0,1.11-.48,1.23-1.44a25.61,25.61,0,0,0,.54-2.85,1.16,1.16,0,0,0,.45.06v2.88a1,1,0,0,0,.54.93c.54.24.81.48.81.78,0,.54-.45,1-1.32,1.23a38,38,0,0,1-4.95.33c-1.8,0-2.94,0-3.48-.06-2-.12-3-.9-3-2.34V23.13h-1.92A4.1,4.1,0,0,1,305.7,25c-1.65,2-5.34,3.21-11,3.75a1.09,1.09,0,0,0-.27-.36c4.41-.78,7.35-2,8.79-3.75a3.8,3.8,0,0,0,.72-1.5h-2.13v.21c-.12.6-.69.9-1.65.9-.6,0-1-.09-1.08-.3,0-1.59,0-3.15.09-4.71V16.17a8.78,8.78,0,0,0-.21-2.34l2.22.84ZM297.45,2.85h6.12a7.32,7.32,0,0,1,1.35-1.56c.06,0,.09,0,.15,0a4,4,0,0,1,1,.72,5.24,5.24,0,0,1,1,1.23c0,.3-.09.45-.21.48H302.4V6.12h.87q.9-1,1.26-1a3.27,3.27,0,0,1,1.26.69c.57.42.87.75.87,1s-.12.3-.36.42a3.76,3.76,0,0,0-.69.54v1c.06.42.12.66.12.78,0,.51-.42.78-1.23.78-.6,0-.93-.12-1-.42v0h-1.2v2.37h1.71a6.75,6.75,0,0,1,1.26-1.38s.06,0,.12,0a3.59,3.59,0,0,1,.93.66,4.76,4.76,0,0,1,.93,1.08c0,.3-.09.48-.21.51h-9.21v.78c-.12.57-.63.84-1.53.84-.57,0-.9-.09-1-.3q0-2.93.09-5.76V4.86A17.17,17.17,0,0,0,295.23,2Zm2.73.84h-2.31V6.12h2.31ZM303.54,9V6.9h-5.67V9Zm-3.42,3.18V9.84h-2.25v2.37Zm13.11,3.21H301.77V17.1h11.46Zm-11.46,4.23h11.46V17.88H301.77Zm11.46.78H301.77v1.89h11.46ZM306.9,7.95a2.83,2.83,0,0,1-.42,0c2-2.7,3.15-5.07,3.39-7.14,2.49.75,3.75,1.32,3.75,1.68s-.57.39-1.68.48c-.21.36-.42.66-.6.93h5.91c.75-1.2,1.26-1.86,1.5-1.92s.57.42,1.29,1.2a4.09,4.09,0,0,1,.87,1.14c0,.3-.09.42-.24.42h-6.06c1,.36,1.53.87,1.59,1.53a3.4,3.4,0,0,1-.12.87,1,1,0,0,1-.54.63h2c.6-.66,1-1,1.26-1a5,5,0,0,1,1.26.72c.57.42.87.75.87.93s-.12.3-.36.45a2.33,2.33,0,0,0-.66.54v2c.09.78.15,1.29.15,1.5,0,.54-.42.78-1.23.78-.63,0-1-.12-1-.42v-.42H310v.12c-.12.48-.54.69-1.29.69-.48,0-.75-.06-.84-.21,0-1,0-2,.09-2.91V8.55c-.06-.63-.09-1.05-.12-1.26C307.53,7.53,307.2,7.74,306.9,7.95Zm7-1.35a7.6,7.6,0,0,0-1.59-1.89h-1.59A18,18,0,0,1,308,7.2l1.41.54h5.37A4.09,4.09,0,0,1,313.86,6.6Zm-2.22,1.89H310V12h1.62Zm3,0H313.2V12h1.44Zm3.24,0H316.2V12h1.68Z"/>
  </g>
</svg>
