<svg id="e418934f-cdbe-4395-94ca-5c5a628ca249" data-name="圖層 1" xmlns="http://www.w3.org/2000/svg" width="360.92" height="44.45" viewBox="0 0 360.92 44.45">
  <defs>
    <style>
      .ee6e5b7f-3c03-4127-a130-bab14be42848 {
        fill: #434a5d;
      }
    </style>
  </defs>
  <title>titleWord</title>
  <g>
    <path class="ee6e5b7f-3c03-4127-a130-bab14be42848" d="M42.77,28.37a10.76,10.76,0,0,1,1.15,2.5c0,.48-.19.77-.58.77H8c-4.66.1-7,.24-7,.43a21.35,21.35,0,0,1-1-2.5,25,25,0,0,0,4.61.48L3.94,9C3.74,7,3.5,5.14,3.26,3.5L7.54,5.33a14.45,14.45,0,0,0,4.9-4.7c.67.43,1.82,1.1,3.41,2,.77.58,1.2.91,1.2,1.1s-.24.38-.62.38c-.82.1-1.34.14-1.63.19-1.1.48-2.35,1-3.7,1.39a21.62,21.62,0,0,1-3.26.82L8,13.06H9.6c1.2-1.92,2-3,2.4-3.07s.91.67,2.06,1.92a6.52,6.52,0,0,1,1.39,1.82c0,.43-.14.62-.38.62h-7l.24,7.1h1.1c1.2-1.92,2-3,2.45-3.07q.29,0,2,1.87a7.12,7.12,0,0,1,1.39,1.87c0,.43-.14.62-.38.62H8.35l.29,7.44h6.77a96.59,96.59,0,0,0,1.3-12c3.55.58,5.38,1.1,5.38,1.58,0,.29-.19.48-.58.48a4.06,4.06,0,0,0-1.34.58l-.77,9.36h3.89l.86-14.88H20c-.24,1-.48,1.54-.67,1.54a12,12,0,0,1-2.16.14c-1.06,0-1.58-.14-1.58-.53C17,8.88,17.81,3.5,17.81.34q5.76,1.15,5.9,1.73t-.58.58A10.62,10.62,0,0,0,21.6,3c0,.24-.19,1.63-.48,4.18h2.35a13,13,0,0,1,2.21-2.5,2.08,2.08,0,0,1,.24,0,6.47,6.47,0,0,1,1.58,1.15,8.41,8.41,0,0,1,1.68,2c0,.48-.14.72-.34.77H20.93c-.1.67-.14,1.39-.24,2.06C20.5,12,20.35,13.1,20.26,14h3.31c1.39-1.63,2.26-2.5,2.59-2.5a6.51,6.51,0,0,1,2.16,1.39c1.15,1,1.78,1.73,1.78,2.11s-.72,1-2.16,1.34l-.58,13.87h7.34l.48-7.39h-.48a19.16,19.16,0,0,0-3.94.43A10.21,10.21,0,0,1,30,21.17a22.33,22.33,0,0,0,4.75.34h.53l.48-7.3h-.82a20.62,20.62,0,0,0-4.18.43A9.25,9.25,0,0,1,30,12.58a25.16,25.16,0,0,0,5,.34h.86L36.29,6H33.51a9.83,9.83,0,0,0-3,.24c-.24-.67-.48-1.34-.72-2.11A6.11,6.11,0,0,0,33,4.66h2.74C37.2,3.12,38,2.3,38.26,2.3a5.26,5.26,0,0,1,2.5,1.44c1.2,1,1.82,1.68,1.82,2s-.48.77-1.25,1-1,.43-1,.53l-1.58,22.9h.72c1.06-2.5,1.73-3.74,2-3.79S42.1,27.07,42.77,28.37ZM21.22,36c0,.38-1,.67-2.83.82C14.64,39.7,8.88,42.1,1.1,44.07a4.09,4.09,0,0,0-.77-.82c6.43-2.88,11.28-6.34,14.55-10.42Q21.22,35,21.22,36Zm15.17.53c3.94,1.49,5.9,3,5.9,4.75a3.13,3.13,0,0,1-.48,1.87,1.58,1.58,0,0,1-1.44.77q-1.08,0-4.61-3.17a29.46,29.46,0,0,0-11-6.24V33.7A53.21,53.21,0,0,1,36.39,36.53Z"/>
    <path class="ee6e5b7f-3c03-4127-a130-bab14be42848" d="M64.8,4.13c1.3.29,2,.62,2,1s-.29.58-.86.67c-1,.34-1.39.58-1.39.72v8.3h7.2V4.42a15.63,15.63,0,0,1-.29-2.78c3.89.48,6,1,6.53,1.68,0,.43-.34.72-.91.91q-1.3.65-1.3.86v9.74h7.44V4.75a17.66,17.66,0,0,1-.29-3c4.13.48,6.48,1.1,7,1.82,0,.43-.34.77-1,1-1,.48-1.39.77-1.39.91v9.36h1.87a29.07,29.07,0,0,1,3-3.5,1.18,1.18,0,0,1,.34,0c.38.1,1.3.91,2.83,2.54.77.77,1.2,1.34,1.2,1.73s-.29.58-.77.58h-8.5V31c0,.91-1,1.39-2.83,1.44-1.15,0-1.68-.24-1.68-.82,0-.91,0-1.82,0-2.74h-7.3v2.54c0,.86-.91,1.3-2.64,1.39-1.06,0-1.58-.24-1.58-.82.1-4.85.14-10.13.19-15.79h-7.2V31.35c0,3.12.1,5.66.14,7.68H88a18.77,18.77,0,0,1,3-3.65.7.7,0,0,1,.34-.1,8.84,8.84,0,0,1,2.21,1.58A11,11,0,0,1,96,39.6c0,.43-.14.67-.34.77H64.71c0,1,0,1.78,0,2.45s-1.1,1.25-3.26,1.25c-1.06,0-1.58-.34-1.58-1,.1-1.92.14-5.86.14-11.9v-15c-2.16,0-4.22.14-6.24.29a8.73,8.73,0,0,1-1.06-2.26,44.11,44.11,0,0,0,7.3.58V8q-.15-2.38-.43-4.61Q62.06,3.7,64.8,4.13ZM83,27.65c0-3.65.1-7.49.14-11.43H75.75V27.65Z"/>
    <path class="ee6e5b7f-3c03-4127-a130-bab14be42848" d="M143,2.11q2,1.51,2,2c0,.29-.24.58-.62.86-.67.58-1.06,1-1.15,1.06v8.21c0,2.83.14,4.7.24,5.66s-1.06,1.54-3.17,1.54c-.86,0-1.3-.34-1.3-1.06V19.35h-6a20.77,20.77,0,0,0,7.44,5.81,23.08,23.08,0,0,0,9.5,2.21,7.19,7.19,0,0,0-.1.82,3.19,3.19,0,0,0-1.15.82,9.35,9.35,0,0,0-.91,1.78c-.19.58-.48.86-.91.86-1.54,0-4.13-1.2-7.73-3.65a3,3,0,0,1-.58-.43c0,.38-.34.67-.91.86-.86.43-1.25.72-1.25.86V43.11c0,.77-.91,1.25-2.69,1.34-1.06,0-1.58-.29-1.58-.82.1-4.37.19-9.36.19-15a15.63,15.63,0,0,1-.29-2.78,25.46,25.46,0,0,1,5.86,1.2,21,21,0,0,1-6-7.68h-5.57a12.77,12.77,0,0,1-1.58,2.11,16.78,16.78,0,0,1-4.32,4.32c3.65.58,5.47,1.06,5.47,1.54s-.77.77-2.21.86a14.48,14.48,0,0,1-.86,5.76c-1.63,4.42-6.38,7.73-14.21,10.08a2.1,2.1,0,0,0-.43-.53c7.34-3.5,11-7.92,11.14-13.35,0-1.63,0-2.78-.1-3.55a47.92,47.92,0,0,1-12.43,5.23c-.19,0-.38-.24-.53-.72,7.2-3.17,11.91-6.62,14.11-10.32a10.56,10.56,0,0,0,1-1.44H116.4v1c-.19,1-1.1,1.44-2.64,1.44-1,0-1.54-.14-1.73-.48,0-3.07,0-6,.19-9V6.38a22.15,22.15,0,0,0-.38-4.46l3.7,1.39h22.61C139.59,1.78,140.5,1,140.88,1A8.77,8.77,0,0,1,143,2.11Zm-17.62,8.45v-6h-9v6Zm0,7.54V11.86h-9V18.1ZM139,10.56v-6H129.7v6Zm0,7.54V11.86H129.7V18.1Z"/>
    <path class="ee6e5b7f-3c03-4127-a130-bab14be42848" d="M194.74,8.16a12.61,12.61,0,0,0,1-2.21H165.26v.29c0,3.36-1.25,5.09-3.7,5.18q-2.09,0-2.16-1.44a2.67,2.67,0,0,1,.29-1.34,11.6,11.6,0,0,1,1.92-1.58,7,7,0,0,0,2.54-4.66,5.39,5.39,0,0,0,.67,0c.14.77.24,1.49.34,2.26h14.74a7.33,7.33,0,0,1-.58-.62,10.14,10.14,0,0,0-4-3.22c.1-.29.14-.58.24-.86.48,0,2,0,4.46,0,2.21.19,3.36,1.1,3.36,2.74a3.67,3.67,0,0,1-.53,1.92h12.48c1.3-1.39,2.16-2.16,2.64-2.26A14.88,14.88,0,0,1,200.21,4c1.25,1.2,1.87,2,1.87,2.26s-.43.62-1.25.62a7.29,7.29,0,0,0-1.2.24,26.72,26.72,0,0,1-3.74,2.06c.77.77,1.2,1.3,1.2,1.54,0,.48-.19.67-.53.67h-8.4v2.74h2.78a8.58,8.58,0,0,1,2.16-2.06h.29c.24.14.53.34.82.53,1.34,1.2,2.06,2,2.06,2.3s-.19.67-.53.67h-7.58v2.69h7.2A12.94,12.94,0,0,1,198,15.65h.34c.29.19.62.38,1,.67,1.68,1.44,2.54,2.4,2.54,2.78s-.19.67-.53.67h-13.2a17,17,0,0,0,6,3.55,24.16,24.16,0,0,0,8.3,1.54,3.35,3.35,0,0,1-.1.77,5.06,5.06,0,0,0-1.06.72A12.35,12.35,0,0,0,200.5,28c-.19.58-.48.82-.86.82-1.3,0-3.36-.82-6.14-2.5a2.76,2.76,0,0,0-.72.91v5c.19,2,.29,3.26.29,3.84,0,1.06-.86,1.63-2.5,1.63-1.25,0-1.92-.29-2-.86v-.24H172.08c0,.19,0,.38,0,.48-.29.82-1.3,1.2-3.07,1.2-.91,0-1.34-.24-1.34-.77,0-2.35.1-4.94.1-7.82V25.87a56.16,56.16,0,0,1-8.88,3.65,4.37,4.37,0,0,1-.53-.72c5.76-2.74,9.79-5.62,12.1-8.59a2.59,2.59,0,0,0,.34-.43h-.24c-5.67,0-9.17.19-10.51.53q-.5-1.22-1.15-2.45a121.53,121.53,0,0,0,12.48.43h1.15V15.6a25.09,25.09,0,0,0-5.57.53,18.27,18.27,0,0,0-1.1-2.45,39.61,39.61,0,0,0,6.67.48V11.42a26.22,26.22,0,0,0-6.14.53q-.5-1.22-1.15-2.45a42,42,0,0,0,7.3.48c0-1.34-.14-2.45-.24-3.36,4.18.58,6.29,1.15,6.29,1.63s-.29.62-.77.72c-.86.38-1.34.67-1.34.91V10h7.73c0-1.34-.14-2.45-.24-3.36,4.18.58,6.29,1.15,6.29,1.63s-.29.62-.77.72c-.86.38-1.34.67-1.34.91V10h3a10.74,10.74,0,0,1,2.4-2.4c.1,0,.19,0,.34,0A7.75,7.75,0,0,1,194.74,8.16ZM177.46,38.84c1.2.86,1.82,1.39,1.82,1.63s-.19.43-.53.53c-1.34-.14-2.11-.19-2.4-.19q-5,2.59-15.84,3.46,0-.58-.14-.58,9.07-2.09,14.4-6.62C175.2,37.35,176.11,38,177.46,38.84Zm11.14-12V24H171.89v2.83Zm0,4.08V28.13H171.89v2.78Zm0,4.46V32.21H171.94c0,1.06,0,2.11.1,3.17ZM187.25,22.8a13.75,13.75,0,0,1,1.3-.58,13.83,13.83,0,0,1-1.68-2.45H176A6.14,6.14,0,0,1,174.72,21a21.85,21.85,0,0,1-2.11,1.78Zm-3-11.38H176.5v2.74h7.73Zm0,4.18H176.5v2.69h7.73ZM198.1,42.44c0,.91-.34,1.49-.91,1.68a2.37,2.37,0,0,1-.72.14,9.82,9.82,0,0,1-4-1.63,26.8,26.8,0,0,0-9.55-4,4.48,4.48,0,0,1,.19-.62c.29,0,1.3,0,3,0C194.07,38.36,198.1,39.75,198.1,42.44Z"/>
    <path class="ee6e5b7f-3c03-4127-a130-bab14be42848" d="M217.2,3.94h7.2c1.15-1.3,1.92-2,2.4-2a7.39,7.39,0,0,1,2.4,1.34c1.06.86,1.63,1.44,1.63,1.78s-.34.58-.91.82a6.26,6.26,0,0,0-1.58,1v5.57c.14,2.16.24,3.55.24,4.18,0,1-.77,1.54-2.3,1.54-1.15,0-1.78-.24-1.82-.82V17h-.58V25.2h1.73c1.2-2.11,2-3.26,2.4-3.36s.91.72,2.06,2.06a6.55,6.55,0,0,1,1.34,2c0,.43-.14.62-.34.62h-7.2V36a49.9,49.9,0,0,0,7.2-2.11,1.72,1.72,0,0,0,.19.53c-3.65,3.17-9,5.57-16.18,7.25-.14,1.63-.43,2.45-.91,2.45-.29,0-.91-1.15-1.87-3.36a15.31,15.31,0,0,1-1.06-3.22,14.24,14.24,0,0,0,2-.1V26.11c0-1.82-.1-3.31-.19-4.42,3.84.58,5.81,1.06,5.81,1.49s-.24.58-.72.67c-.82.38-1.25.67-1.25.86V37.16a28.94,28.94,0,0,0,3-.38V17h-2.06v.24c-.19.91-1,1.34-2.45,1.34-.91,0-1.44-.14-1.63-.43,0-2.45,0-4.85.14-7.25V6.19a17.15,17.15,0,0,0-.29-3.6Zm7.25,11.86V5.14h-6.58V15.79Zm17-13.2c0,.48-.82.82-2.35,1-.62,1.49-1.25,2.83-1.92,4.08H248.4C249.65,6,250.47,5,250.95,5a6.47,6.47,0,0,1,2.35,1.34c1.25,1,1.87,1.63,1.87,2s-.48,1-1.44,1.54a1.44,1.44,0,0,0-.58,1.34,156.83,156.83,0,0,1-1.44,17c-.72,3.84-2.64,5.71-5.81,5.71q-.72,0-.86-1.3A4.66,4.66,0,0,0,244,31.11a6.89,6.89,0,0,0-3.6-1.49c0-.1,0-.38,0-.91,1.39.1,2.59.19,3.55.24q3.74,0,4-3.89a117.3,117.3,0,0,0,1-16H236.45a22.9,22.9,0,0,1-3.17,4.32L236.83,15h3.5c1.25-1.78,2.06-2.69,2.54-2.74a8,8,0,0,1,2.59,1.44c1.15.91,1.78,1.54,1.78,1.92a1.26,1.26,0,0,1-.67.91,5.26,5.26,0,0,0-1.15,1.06v4.8c.19,1.82.29,3,.29,3.55,0,1.06-.86,1.63-2.5,1.63-1.25,0-1.92-.29-2-.86V26h-4.42V36.24c0,1.82,1.34,2.69,4.08,2.69,1,.1,2,.14,3.07.19s2-.14,3.07-.24c2,0,3.07-.67,3.36-2.11a44.92,44.92,0,0,0,1.49-6c.58,0,.86,0,.91,0-.1,1.63-.14,3.6-.14,5.81,0,.58.48,1,1.34,1.25.77.43,1.15.91,1.15,1.39Q255.1,41,252,41.91a20.62,20.62,0,0,1-6.29.82c-2.5,0-4.32-.1-5.47-.19-5.18-.1-7.78-1.73-7.78-4.94V18c0-1.34,0-2.54-.1-3.6a20.46,20.46,0,0,1-2.93,2.3,2,2,0,0,1-.24-.53C232,12.24,233.91,7,235,.34,239.33,1.2,241.49,2,241.49,2.59Zm-.24,22.08v-8.5h-4.42v8.5Z"/>
    <path class="ee6e5b7f-3c03-4127-a130-bab14be42848" d="M271.73,10.27h.82A56.41,56.41,0,0,0,274.18.48c3.89,1.15,5.86,2,5.86,2.35,0,.58-.82.91-2.35,1a23.13,23.13,0,0,1-3.6,6.43H278C279.46,8.78,280.37,8,280.75,8a7.25,7.25,0,0,1,2.16,1.2q2,1.51,2,2t-.72.86A7.39,7.39,0,0,0,283,13.15V29.09c.1,5.47.14,9.17.24,11,0,1-1.06,1.49-3.17,1.49-.86,0-1.25-.34-1.25-1V37.92h-7v3.65Q271.49,43,269.18,43c-1,0-1.58-.19-1.78-.48,0-5.38,0-10.66.19-15.79V16.42c-.1-4.42-.19-7-.34-7.82ZM278.79,23V11.52h-7V23Zm0,13.63V24.24h-7V36.63ZM296.5,2.74c0,.48-.82.82-2.35,1C293.47,6,292.75,8,292,9.89h8.88c1.3-1.63,2.21-2.45,2.74-2.5A8.24,8.24,0,0,1,306.29,9Q308,10.61,308,11t-1.15,1a3,3,0,0,0-1.06.86c-.67,13.15-1.54,21.65-2.59,25.54-1,3.36-3,5.33-6.24,5.81-.53,0-.91-.48-1.2-1.44a4.36,4.36,0,0,0-2.11-2.74,34.69,34.69,0,0,0-4.42-1.73,4.32,4.32,0,0,1,.1-1.06,52.23,52.23,0,0,0,7.2.67c1.73-.14,2.64-.91,2.64-2.35.82-1.44,1.63-9.6,2.45-24.39H291.41c-2.21,4.9-4.7,8.64-7.58,11.14a2,2,0,0,1-.24-.53c3.07-5.28,5.23-12.43,6.38-21.36C294.29,1.34,296.5,2.11,296.5,2.74Zm.43,23.91a4.62,4.62,0,0,1-.77,3,2.36,2.36,0,0,1-2.11,1c-.82,0-1.34-1-1.54-3a23.15,23.15,0,0,0-3.07-8.45l.72-.53C294.63,21.6,296.88,24.24,296.93,26.64Z"/>
    <path class="ee6e5b7f-3c03-4127-a130-bab14be42848" d="M333.36,3.36q0,.65-3,1a52.89,52.89,0,0,1-4.08,8.06c2.06.58,3.12,1.06,3.12,1.34s-.34.43-1,.62-.91.48-.91.67V30.82c.1,4.32.19,8.35.19,12.15-.14.77-1.1,1.2-2.93,1.3-1.2,0-1.78-.29-1.78-.86.1-4.08.19-8.21.19-12.43V17.14A34.41,34.41,0,0,1,317.52,23a2.76,2.76,0,0,0-.48-.58q8.06-11.16,9.7-21.84C331.15,1.87,333.36,2.78,333.36,3.36Zm7.73,19c0,.67-.91,1.06-2.64,1.25-2.21,6.43-4.94,11.18-8.3,14.26a2.8,2.8,0,0,0-.86-.53c2.45-4.61,4.18-10.46,5.14-17.62C338.83,21.17,341.09,22,341.09,22.37Zm-4-11c-.19.29-.38.48-.48.67a30.31,30.31,0,0,1-6.62,7.1c-.1-.1-.24-.29-.48-.58q6.55-9.22,7.92-18c4.37,1.3,6.58,2.21,6.58,2.78s-1,.77-3,1a36.44,36.44,0,0,1-3.12,5.76h15.75c1.39-1.54,2.35-2.35,2.83-2.45a11.88,11.88,0,0,1,2.4,1.73c1.34,1.25,2,2.06,2,2.4s-.48.72-1.34.72a10.75,10.75,0,0,0-1.3.24,32.27,32.27,0,0,1-6.19,4.42,1.1,1.1,0,0,1-.58-.38,19.76,19.76,0,0,0,2.59-5.42h-6.67V38.16c0,3.41-1.92,5.38-5.71,5.9-.34,0-.62-.53-.82-1.49a3.28,3.28,0,0,0-2.16-2.5,17.36,17.36,0,0,0-2.88-1.25,4.41,4.41,0,0,1,0-.77c1.34.14,3.31.29,6,.43.91,0,1.39-.38,1.39-1.2V11.38Zm22.23,22.27a4.08,4.08,0,0,1-.62,2.54,2.2,2.2,0,0,1-1.87.86c-1.15,0-1.92-1.39-2.26-4.18C353.52,27.7,352,23.76,350.07,21l.62-.43Q359.26,27.75,359.33,33.65Z"/>
  </g>
</svg>
