<svg id="90fb2cc5-1028-4f53-9284-6acb8df7a33a" data-name="圖層 1" xmlns="http://www.w3.org/2000/svg" width="263.2" height="44.45" viewBox="0 0 263.2 44.45">
  <defs>
    <style>
      .\37 c4d4329-1300-4e7d-a524-87f6e44532f3 {
        fill: #434a5d;
      }
    </style>
  </defs>
  <title>titleWord</title>
  <g>
    <path class="7c4d4329-1300-4e7d-a524-87f6e44532f3" d="M5,31a36.16,36.16,0,0,1,.48,4.13c0,5.28-1.06,8-3.17,8.11C.82,43.27,0,42.75,0,41.74A2.46,2.46,0,0,1,.34,40.3a9.76,9.76,0,0,1,1.73-2.35C3.22,36.46,4,34.15,4.32,31A6.54,6.54,0,0,0,5,31Zm13.34-5.38c0,1.39-.58,2.11-1.73,2.11s-1.58-.53-1.58-1.63a8.75,8.75,0,0,0-.24-1.68A60.12,60.12,0,0,1,3.7,27.53c-.24,1.3-.53,1.92-.86,1.92s-.62-.58-1-1.78S1,25.08.48,23.31a15,15,0,0,0,3.36.29,44.2,44.2,0,0,0,7.39-9.22,50.39,50.39,0,0,1-7.92,2.11,3.4,3.4,0,0,1-.43,1.1c0,.14-.14.19-.34.19S1.78,16.06,1,12.6c.91.1,1.87.19,2.88.24A28.43,28.43,0,0,0,8.35.12c4.13,1.1,6.24,1.87,6.24,2.26s-.48.67-1.44.77c-.67.14-1,.24-1,.29a30.28,30.28,0,0,1-7.06,9.5c2.11.14,4.42.19,6.82.19A32.24,32.24,0,0,0,14.31,8c3.6,1.34,5.42,2.26,5.42,2.69s-.82.62-2.16.77c-2.5,3.84-6.48,7.87-12,12.1,3.94,0,6.91-.14,9-.24-.14-.58-.34-1.2-.53-1.87a19.88,19.88,0,0,0-.82-1.82,3.44,3.44,0,0,1,.53-.34C16.8,21.43,18.39,23.54,18.39,25.66ZM12.34,38c-.1,2.5-1.06,3.79-2.88,3.79-1.1,0-1.63-.72-1.63-2a11.94,11.94,0,0,1,.77-3,20.11,20.11,0,0,0,.34-4c0-.91-.1-1.73-.19-2.4a1.84,1.84,0,0,0,.82-.29C11.38,33.19,12.34,35.83,12.34,38Zm6-1.2c-.1,1.92-.86,2.88-2.35,2.88-1.06,0-1.63-.58-1.63-1.82a5.24,5.24,0,0,1,0-.86c0-.48,0-1,.1-1.68a15.12,15.12,0,0,0-1.39-5.66c.38-.1.62-.24.62-.34Q18.39,33,18.39,36.84ZM33.75,2.66c0,.38-.53.72-1.58,1a14.92,14.92,0,0,0,5.18,7,18.15,18.15,0,0,0,6.91,3.94,5,5,0,0,1-.19.82,2.53,2.53,0,0,0-1.58.82,8.47,8.47,0,0,0-.91,1.54c-.24.38-.48.62-.77.62-.77,0-2.26-1.15-4.42-3.31A23.43,23.43,0,0,1,31,4c-2.78,6.14-7.54,11.33-14.16,15.55-.38,0-.53-.19-.53-.62A41,41,0,0,0,27.07.21C31.49,1.22,33.75,2,33.75,2.66ZM23.86,26H34.42c1.25-1.39,2.11-2.11,2.59-2.11a6.69,6.69,0,0,1,2.54,1.44c1.15.86,1.78,1.54,1.78,1.92s-.24.58-.67.86a5,5,0,0,0-1.15,1.1v7.34c.14,2.88.24,4.7.24,5.57,0,1.06-.86,1.58-2.5,1.63-1.25,0-1.92-.29-2-.86V40.11H24.58v2.64c-.19,1-1.1,1.44-2.64,1.44-1,0-1.54-.19-1.73-.48,0-3.07,0-6,.14-8.93V29A19.59,19.59,0,0,0,20,24.55ZM34.37,15.34a15.9,15.9,0,0,1,2.88,2.93c0,.43-.14.62-.38.62H26.64a22.58,22.58,0,0,0-4.61.38,14.67,14.67,0,0,0-.62-1.92,30.59,30.59,0,0,0,5.23.34h4.27A22.88,22.88,0,0,1,33,15.19c.19-.24.38-.38.53-.38A2.3,2.3,0,0,1,34.37,15.34Zm.91,23.47V27.19H24.58V38.81Z"/>
    <path class="7c4d4329-1300-4e7d-a524-87f6e44532f3" d="M59.86,13.18a24.67,24.67,0,0,1-6.24,3.94,1.24,1.24,0,0,1-.43-.48,28.5,28.5,0,0,0,5.47-6.48A29.29,29.29,0,0,0,53.23,2a3.11,3.11,0,0,0,.38-.43,24.88,24.88,0,0,1,6.58,5.62A27.16,27.16,0,0,0,62.06,1C66,2.09,68,2.9,68,3.43c-.24.48-1.06.82-2.5,1a18.75,18.75,0,0,1-3.12,6,33.6,33.6,0,0,1,3.89,14.31,30.88,30.88,0,0,0,7.63-11.62h-1.3v.82c-.19.86-1,1.25-2.26,1.25-.86,0-1.34-.14-1.49-.43,0-2.11,0-4.22.14-6.24V4.44a23,23,0,0,0-.29-3.12l3.55,1.39H89c1.15-1.25,2-1.92,2.4-2a7.37,7.37,0,0,1,2.4,1.34c1.06.82,1.63,1.39,1.63,1.78s-.24.53-.62.82a4.39,4.39,0,0,0-1.15,1V9.86c.14,1.63.24,2.69.24,3.17,0,1-.77,1.49-2.3,1.49-1.15,0-1.78-.24-1.82-.82v-.58H78.39a23.58,23.58,0,0,1-2.5,4.13H90.34c1.15-1.39,2.06-2.11,2.74-2.21a9.69,9.69,0,0,1,3.6,3,.79.79,0,0,1-.48.82,5.45,5.45,0,0,1-1.39,1q-.58,15.55-2.45,20.59Q90.84,44.33,88,44.33c-.29,0-.53-.34-.72-.91a3.55,3.55,0,0,0-2.06-2.59,13.06,13.06,0,0,0-2.5-1.1,3.35,3.35,0,0,1,.24-.86,29.58,29.58,0,0,0,4.37.67c1,0,1.68-.67,2-2.11a112.34,112.34,0,0,0,1.54-18.77H74.79A31.28,31.28,0,0,1,70.37,23l2.35.86h4c0-1.82-.1-3.26-.19-4.42,3.84.58,5.81,1.06,5.81,1.49s-.24.58-.72.67c-.82.38-1.25.67-1.25.91v1.34h2.74c1.06-1.1,1.78-1.68,2.21-1.73a7.27,7.27,0,0,1,2.21,1.25c1,.77,1.49,1.3,1.49,1.63s-.19.53-.58.77a7.55,7.55,0,0,0-1,.91v2.64c.14,1,.24,1.63.24,1.92,0,.91-.72,1.39-2.16,1.39-1.06,0-1.63-.24-1.68-.72v-.48H80.35v4.75a35.19,35.19,0,0,0,4.18-.43A6.32,6.32,0,0,0,84,34.59a11.65,11.65,0,0,0-1.1-1.44,4.85,4.85,0,0,0,.34-.43A11.3,11.3,0,0,1,86,33.77c1.49.91,2.26,2,2.26,3.17a2,2,0,0,1-.67,1.73,1.74,1.74,0,0,1-1.15.34c-.77,0-1.3-.62-1.54-1.92a.9.9,0,0,1-.1-.38,43.14,43.14,0,0,1-14.4,3.17c-.29,1.34-.62,2.06-1.06,2.11s-.72-.82-1.06-2.4-.72-2.69-.91-3.6a29.73,29.73,0,0,0,5.57.48c1.34,0,2.59,0,3.75-.1V31.42H73.06v1.1c-.19.86-.91,1.25-2.21,1.25-.86,0-1.34-.1-1.54-.38,0-1.73,0-3.41.19-5.09V25c0-.48-.1-.86-.1-1.25-1,.77-2,1.44-2.93,2.06l-.19,0c0,1,.1,1.92.1,2.83-.1,8.06-1.49,12.82-4.13,14.35A3.85,3.85,0,0,1,59.76,44c-.58,0-1-.43-1.34-1.3A4.29,4.29,0,0,0,56.69,40a13,13,0,0,0-3.22-1.49,2.71,2.71,0,0,0,.14-.86,16.67,16.67,0,0,0,5.28.86c2.11,0,3.22-3.31,3.22-9.94,0-1.73-.1-3.41-.19-5a27.84,27.84,0,0,1-9,8.59,3,3,0,0,1-.43-.58c3.41-3.26,6.29-8,8.59-14.07A36.16,36.16,0,0,0,59.86,13.18ZM75.75,4H72.58v7.92h3.17Zm1,26.21V25H73.06v5.14ZM82.71,4H79.35v7.92h3.36ZM80.35,30.17h3.46V25H80.35ZM89.76,4H86.31v7.92h3.46Z"/>
    <path class="7c4d4329-1300-4e7d-a524-87f6e44532f3" d="M145.92,36.94c2.21,1.82,3.31,3,3.31,3.5s-.19.67-.53.67H117.26c-5.76,0-9.31.19-10.71.58a19.72,19.72,0,0,0-1.15-2.5,112.84,112.84,0,0,0,12.15.48h11.81q3.67-9.79,4.8-24.91,8.06,1.58,8.06,2.59c0,.29-.29.53-.82.72a12.36,12.36,0,0,0-2.45.62q-2.88,14.18-8.45,21h10.32A18.91,18.91,0,0,1,144.2,36c.14,0,.29,0,.43,0Q145.2,36.43,145.92,36.94ZM144.24,8.23c2.16,1.82,3.26,3,3.26,3.55s-.19.62-.48.62H118.51c-5.18,0-8.45.19-9.7.58-.34-.82-.72-1.63-1.15-2.5a79.87,79.87,0,0,0,10.8.48h20.69a16.85,16.85,0,0,1,3.36-3.6c.1,0,.24,0,.43,0A10.92,10.92,0,0,1,144.24,8.23ZM123.36,31.8a4.9,4.9,0,0,1-.77,3.12,2.66,2.66,0,0,1-2.3,1.06c-1,0-1.54-1.68-1.78-5.14-.86-6.34-2.06-11.23-3.6-14.64l.77-.53C120.77,21.53,123.31,26.91,123.36,31.8Zm4.94-29a4.81,4.81,0,0,1,2,4.13c0,1.63-1,2.4-2.83,2.4-1.49,0-2.5-1-3-2.93a6.5,6.5,0,0,0-4.18-4.46.9.9,0,0,0,.19-.48h1.58A12.68,12.68,0,0,1,128.31,2.76Z"/>
    <path class="7c4d4329-1300-4e7d-a524-87f6e44532f3" d="M166.75,28.83a38.88,38.88,0,0,1,.14,3.94q-.07,7.78-5.62,7.92c-1.49,0-2.3-.53-2.4-1.49a3.45,3.45,0,0,1,1.54-2.59,11,11,0,0,0,3.46-3.17,11.7,11.7,0,0,0,2.06-4.66A5.48,5.48,0,0,1,166.75,28.83ZM168.38,3h23.33C193,1.66,193.83.93,194.31.89a8,8,0,0,1,2.59,1.44c1.15.86,1.73,1.54,1.73,1.92s-.24.58-.72.86a11,11,0,0,0-1.39,1.1V16.3c.19,3.89.29,6.38.29,7.54s-.86,1.63-2.5,1.63c-1.25,0-1.92-.29-2-.86V23H168.48v1.44c-.19,1-1.1,1.44-2.64,1.44-1,0-1.54-.14-1.73-.48,0-3.79,0-7.54.19-11.19V6.84a34,34,0,0,0-.38-5.57Zm9.6,9.07V4.2h-9.5v7.87Zm0,9.65v-8.4h-9.5v8.4Zm-.82,6.34c0,.58-.86,1.1-2.59,1.68v6.72a2.15,2.15,0,0,0,2.3,2.4h8.06c1.92,0,3.22-.58,3.89-1.63a16.89,16.89,0,0,0,1.87-4.9,4.87,4.87,0,0,0,.91.1v4.85c0,.38.29.72.86.91.62.38,1,.77,1,1.15-.1,1.58-1.63,2.64-4.56,3.17a46.84,46.84,0,0,1-6.34.43,69.16,69.16,0,0,1-8.26-.29c-2.59-.19-3.84-2.59-3.84-7.1V31.13a28,28,0,0,0-.29-4.94C174.82,27,177.17,27.67,177.17,28.06Zm9.36,1.78a5.11,5.11,0,0,1-.24,1.63,1.83,1.83,0,0,1-1.82,1.34c-.58,0-1.39-.91-2.4-2.78a15.33,15.33,0,0,0-3.5-4.51,1.26,1.26,0,0,0,.34-.62C183.79,25.47,186.34,27.15,186.53,29.83Zm-4.22-17.76h10V4.2h-10Zm0,9.65h10v-8.4h-10Zm19.3,14.64q0,2.38-1.3,3a2.44,2.44,0,0,1-1.54.43c-.67,0-1.25-.91-1.73-2.78a21.49,21.49,0,0,0-4.27-7.68s.19-.24.67-.53C198.82,31.61,201.56,34.15,201.6,36.36Z"/>
    <path class="7c4d4329-1300-4e7d-a524-87f6e44532f3" d="M252.2,12.79c2,1.73,3,2.78,3,3.26s-.19.67-.48.67h-16.8c-2.35,1.73-4.85,3.36-7.44,4.9h15a18.19,18.19,0,0,1,2.78-3.36.69.69,0,0,1,.34-.1,8.19,8.19,0,0,1,2.06,1.49,11.82,11.82,0,0,1,2.21,2.5c0,.48-.14.77-.34.82h-20c-.67,1.92-1.34,3.7-1.92,5.28h13.44c1.3-1.49,2.11-2.26,2.5-2.26A6.58,6.58,0,0,1,249,27.53c1.15,1.06,1.78,1.73,1.78,2.06s-.29.62-.77.82a6.63,6.63,0,0,0-1.15.67c-.58,4.75-1.44,7.82-2.54,9.22-.67,1.92-2.83,3.07-6.38,3.55a1.28,1.28,0,0,1-1.39-1,4.59,4.59,0,0,0-2.5-2.78,15.26,15.26,0,0,0-4.37-1.54s.1-.38.19-1a61.87,61.87,0,0,0,7.63,1.06c1.54,0,2.5-.29,2.88-1q1.15-1.37,2.3-8.06h-14.5q-.58,1.44-1,2.59c0,.72-.91,1.06-2.69,1.06-1.54,0-2.3-.34-2.3-1.1A57.84,57.84,0,0,0,228,23a109.12,109.12,0,0,1-16.37,7.1,2,2,0,0,1-.38-.58,101.27,101.27,0,0,0,20.93-12.82h-8.54c-5.66,0-9.22.19-10.61.58a22,22,0,0,0-1.1-2.5,101.07,101.07,0,0,0,12.19.48h3.55V8.38h-4.18q-4.54,0-5.62.58c-.34-.82-.72-1.63-1.1-2.5a23.4,23.4,0,0,0,5.86.48h5V5.5a48,48,0,0,0-.24-5.14c4.51.67,6.77,1.25,6.77,1.78s-.29.67-.82.77q-1.44.58-1.44,1v3h1.92a13.62,13.62,0,0,1,2.64-2.69c.1,0,.19,0,.34,0,.29.19.62.38,1,.62,1.68,1.49,2.54,2.45,2.54,2.83s-.19.62-.53.62h-7.92v6.91h2a59.73,59.73,0,0,0,12-13.73c4.32,2,6.48,3.26,6.48,3.84a.51.51,0,0,1-.43.43,2.53,2.53,0,0,1-1.1.19c-.82,0-1.39,0-1.78,0a59.77,59.77,0,0,1-9.22,9.22h7.68A14,14,0,0,1,250.61,12c.1,0,.24,0,.38,0A12.12,12.12,0,0,1,252.2,12.79Z"/>
  </g>
</svg>
