<?xml version="1.0" encoding="utf-8"?>
<!-- Generator: Adobe Illustrator 21.1.0, SVG Export Plug-In . SVG Version: 6.00 Build 0)  -->
<svg version="1.1" id="圖層_1" xmlns="http://www.w3.org/2000/svg" xmlns:xlink="http://www.w3.org/1999/xlink" x="0px" y="0px"
	 viewBox="0 0 18 29.7" style="enable-background:new 0 0 18 29.7;" xml:space="preserve">
<style type="text/css">
	.st0{fill:none;stroke:#666666;stroke-width:2;stroke-linecap:round;stroke-linejoin:round;stroke-miterlimit:10;}
	.st1{display:none;}
	.st2{display:inline;fill:none;}
	.st3{display:inline;}
	.st4{fill:#FFFFFF;}
</style>
<polyline class="st0" points="15.8,28.7 1.4,14.9 15.8,1 "/>
<g id="圖層_7" class="st1">
	<rect x="-5508.6" y="-2878.3" class="st2" width="708.4" height="52.2"/>
	
		<text transform="matrix(1 0 0 1 -5508.5854 -2851.8809)" style="display:inline;fill:#4D4D4D; font-family:'NotoSansCJKtc-Regular-B5pc-H'; font-size:30px;">大標大標大標</text>
	<circle class="st3" cx="-6460.6" cy="-2715.5" r="9.7"/>
	
		<text transform="matrix(1 0 0 1 -6465.7051 -2710.978)" style="display:inline;fill:#FFFFFF; font-family:'NotoSansCJKtc-Regular-B5pc-H'; font-size:18px;">a</text>
	<circle class="st3" cx="-5018.6" cy="-2799.5" r="9.7"/>
	
		<text transform="matrix(1 0 0 1 -5023.7051 -2794.978)" style="display:inline;fill:#FFFFFF; font-family:'NotoSansCJKtc-Regular-B5pc-H'; font-size:18px;">a</text>
	<circle class="st3" cx="-6022.6" cy="-2583.5" r="10.2"/>
	
		<text transform="matrix(1 0 0 1 -6028.1909 -2576.9783)" style="display:inline;fill:#FFFFFF; font-family:'NotoSansCJKtc-Regular-B5pc-H'; font-size:18px;">b</text>
	<circle class="st3" cx="-4515.6" cy="-2707.5" r="10.2"/>
	
		<text transform="matrix(1 0 0 1 -4521.1909 -2700.9783)" style="display:inline;fill:#FFFFFF; font-family:'NotoSansCJKtc-Regular-B5pc-H'; font-size:18px;">b</text>
	<circle class="st3" cx="-1550.6" cy="-2811.5" r="9.7"/>
	
		<text transform="matrix(1 0 0 1 -1555.7046 -2806.978)" style="display:inline;fill:#FFFFFF; font-family:'NotoSansCJKtc-Regular-B5pc-H'; font-size:18px;">a</text>
	<circle class="st3" cx="-1550.6" cy="-2714.5" r="10.2"/>
	
		<text transform="matrix(1 0 0 1 -1556.1907 -2707.978)" style="display:inline;fill:#FFFFFF; font-family:'NotoSansCJKtc-Regular-B5pc-H'; font-size:18px;">b</text>
	<circle class="st3" cx="-1550.6" cy="-2292.5" r="10.2"/>
	
		<text transform="matrix(1 0 0 1 -1556.2095 -2286.978)" style="display:inline;fill:#FFFFFF; font-family:'NotoSansCJKtc-Regular-B5pc-H'; font-size:18px;">c</text>
	<circle class="st3" cx="-66.6" cy="-2804.5" r="9.7"/>
	
		<text transform="matrix(1 0 0 1 -71.7046 -2799.978)" style="display:inline;fill:#FFFFFF; font-family:'NotoSansCJKtc-Regular-B5pc-H'; font-size:18px;">a</text>
	<circle class="st3" cx="-873.6" cy="-2657.5" r="10.2"/>
	
		<text transform="matrix(1 0 0 1 -879.1907 -2650.9783)" style="display:inline;fill:#FFFFFF; font-family:'NotoSansCJKtc-Regular-B5pc-H'; font-size:18px;">b</text>
	<circle class="st3" cx="-643.6" cy="-1697.5" r="10.2"/>
	
		<text transform="matrix(1 0 0 1 -649.1907 -1690.978)" style="display:inline;fill:#FFFFFF; font-family:'NotoSansCJKtc-Regular-B5pc-H'; font-size:18px;">b</text>
	<circle class="st3" cx="-880.6" cy="-763.5" r="10.2"/>
	
		<text transform="matrix(1 0 0 1 -886.1907 -756.978)" style="display:inline;fill:#FFFFFF; font-family:'NotoSansCJKtc-Regular-B5pc-H'; font-size:18px;">b</text>
	<circle class="st3" cx="-2018.6" cy="-2261.5" r="10.2"/>
	
		<text transform="matrix(1 0 0 1 -2025.2087 -2255.978)" style="display:inline;fill:#FFFFFF; font-family:'NotoSansCJKtc-Regular-B5pc-H'; font-size:18px;">d</text>
	<circle class="st3" cx="-1550.6" cy="-744.5" r="9.7"/>
	
		<text transform="matrix(1 0 0 1 -1555.7046 -739.978)" style="display:inline;fill:#FFFFFF; font-family:'NotoSansCJKtc-Regular-B5pc-H'; font-size:18px;">a</text>
	<circle class="st3" cx="-1550.6" cy="-647.5" r="10.2"/>
	
		<text transform="matrix(1 0 0 1 -1556.1907 -640.978)" style="display:inline;fill:#FFFFFF; font-family:'NotoSansCJKtc-Regular-B5pc-H'; font-size:18px;">b</text>
	<circle class="st3" cx="-1550.6" cy="-225.5" r="10.2"/>
	
		<text transform="matrix(1 0 0 1 -1556.2095 -219.9781)" style="display:inline;fill:#FFFFFF; font-family:'NotoSansCJKtc-Regular-B5pc-H'; font-size:18px;">c</text>
	<circle class="st3" cx="-2018.6" cy="-194.5" r="10.2"/>
	
		<text transform="matrix(1 0 0 1 -2025.2087 -188.9781)" style="display:inline;fill:#FFFFFF; font-family:'NotoSansCJKtc-Regular-B5pc-H'; font-size:18px;">d</text>
	<circle class="st3" cx="-1546.6" cy="-1196.5" r="10.2"/>
	
		<text transform="matrix(1 0 0 1 -1552.2095 -1190.9781)" style="display:inline;fill:#FFFFFF; font-family:'NotoSansCJKtc-Regular-B5pc-H'; font-size:18px;">c</text>
	<circle class="st3" cx="-2018.6" cy="-1165.5" r="10.2"/>
	
		<text transform="matrix(1 0 0 1 -2025.2087 -1159.9781)" style="display:inline;fill:#FFFFFF; font-family:'NotoSansCJKtc-Regular-B5pc-H'; font-size:18px;">d</text>
	<circle class="st3" cx="-3028.6" cy="-2707.5" r="10.2"/>
	
		<text transform="matrix(1 0 0 1 -3034.1907 -2700.9783)" style="display:inline;fill:#FFFFFF; font-family:'NotoSansCJKtc-Regular-B5pc-H'; font-size:18px;">b</text>
	<circle class="st3" cx="-5830" cy="-2360.7" r="11"/>
	<g class="st3">
		<path class="st4" d="M-5833.8-2360.7c0-3.3,2.2-5.1,4.7-5.1c1.3,0,2.2,0.5,2.9,1.2l-0.8,1.1c-0.6-0.5-1.2-0.9-2-0.9
			c-1.8,0-3.1,1.5-3.1,3.8s1.2,3.7,3,3.7c0.9,0,1.7-0.4,2.3-1l0.7,1.1c-0.9,0.8-2,1.2-3.2,1.2
			C-5831.8-2355.5-5833.8-2357.4-5833.8-2360.7z"/>
	</g>
	<circle class="st3" cx="640.4" cy="-2827.5" r="9.7"/>
	
		<text transform="matrix(1 0 0 1 635.2954 -2822.978)" style="display:inline;fill:#FFFFFF; font-family:'NotoSansCJKtc-Regular-B5pc-H'; font-size:18px;">a</text>
	<circle class="st3" cx="640.4" cy="-2773.5" r="10.2"/>
	
		<text transform="matrix(1 0 0 1 634.8093 -2766.978)" style="display:inline;fill:#FFFFFF; font-family:'NotoSansCJKtc-Regular-B5pc-H'; font-size:18px;">b</text>
	<circle class="st3" cx="580.4" cy="-2696.5" r="10.2"/>
	
		<text transform="matrix(1 0 0 1 574.7905 -2690.978)" style="display:inline;fill:#FFFFFF; font-family:'NotoSansCJKtc-Regular-B5pc-H'; font-size:18px;">c</text>
	<circle class="st3" cx="1093.4" cy="-2694.5" r="10.2"/>
	
		<text transform="matrix(1 0 0 1 1087.7913 -2687.978)" style="display:inline;fill:#FFFFFF; font-family:'NotoSansCJKtc-Regular-B5pc-H'; font-size:18px;">d</text>
	<circle class="st3" cx="1458.4" cy="-2532.5" r="10.2"/>
	
		<text transform="matrix(1 0 0 1 1453.3855 -2526.978)" style="display:inline;fill:#FFFFFF; font-family:'NotoSansCJKtc-Regular-B5pc-H'; font-size:18px;">e</text>
	<circle class="st3" cx="594.4" cy="-1951.5" r="10.2"/>
	
		<text transform="matrix(1 0 0 1 589.3044 -1947.978)" style="display:inline;fill:#FFFFFF; font-family:'NotoSansCJKtc-Regular-B5pc-H'; font-size:18px;">g</text>
	<circle class="st3" cx="1463.4" cy="-1619.5" r="10.2"/>
	
		<text transform="matrix(1 0 0 1 1457.9084 -1612.978)" style="display:inline;fill:#FFFFFF; font-family:'NotoSansCJKtc-Regular-B5pc-H'; font-size:18px;">h</text>
	<circle class="st3" cx="934.4" cy="-1526.5" r="10.2"/>
	
		<text transform="matrix(1 0 0 1 927.8484 -1519.978)" style="display:inline;fill:#FFFFFF; font-family:'NotoSansCJKtc-Regular-B5pc-H'; font-size:18px;"> i  </text>
	<circle class="st3" cx="967.4" cy="-1526.5" r="10.2"/>
	
		<text transform="matrix(1 0 0 1 964.8965 -1521.978)" style="display:inline;fill:#FFFFFF; font-family:'NotoSansCJKtc-Regular-B5pc-H'; font-size:18px;">j</text>
	<circle class="st3" cx="1420.4" cy="-2218.5" r="10.2"/>
	
		<text transform="matrix(1 0 0 1 1417.4463 -2210.978)" style="display:inline;fill:#FFFFFF; font-family:'NotoSansCJKtc-Regular-B5pc-H'; font-size:18px;">f</text>
</g>
<g id="圖層_2">
</g>
<g id="圖層_3">
</g>
<g id="圖層_4">
</g>
<g id="圖層_5">
</g>
<g id="圖層_6">
</g>
</svg>
