<?xml version="1.0" encoding="utf-8"?>
<!-- Generator: Adobe Illustrator 19.2.1, SVG Export Plug-In . SVG Version: 6.00 Build 0)  -->
<svg version="1.1" id="圖層_1" xmlns="http://www.w3.org/2000/svg" xmlns:xlink="http://www.w3.org/1999/xlink" x="0px" y="0px"
	 viewBox="0 0 167.4 60" style="enable-background:new 0 0 167.4 60;" xml:space="preserve">
<style type="text/css">
	.st0{fill:#D70C18;}
	.st1{fill:#FFFFFF;}
</style>
<g>
	<rect class="st0" width="167.4" height="60"/>
	<g>
		<path class="st1" d="M42.3,7.1c0.4,1.2-0.2,2.4-1,3c-2.5,1.2-5.1,2-7.5,3.3c-4.7,0.9-9.1,2.5-13.7,3.7c-1.7,0.3-3.6-0.2-4.6-1.7
			c0.2-1.1-1.3-1.9-0.2-2.8c2.1-0.2,3.7-0.7,6-0.7c2.3-1.9,4.9-2.1,7.8-2.5c0.5-0.7,1.2-0.6,1.8-1c1.2-1,2.9-1.4,3.9-2.6
			c1.4-1.2,3.3-1,5.1-0.7C40.7,5.7,42,6,42.3,7.1"/>
		<path class="st1" d="M76.5,23c0.2-0.9,0.4-1.9-0.1-2.8c-0.1-0.5,0.2-1-0.3-1.2c-1-0.7-1.9,0.4-2.9,0.6c-1.3,0.7-2.3,2.3-3.9,2.7
			c-1.2,1.5-3,2.1-4.5,3.1c-1.9,0.5-4.2,0.4-5.9-0.3c-0.5-0.8-1.4-0.4-2-0.9c-1.4-0.9-3.3-0.9-4.3-2.5c-0.6-1.1-2.5-1.1-2.1-2.7
			c0.6-0.7,1.5-0.8,2.3-1c2.9-0.5,6-0.1,8.8-1.1c1.6-0.4,3.2-0.8,4.8-1.3c0.6-0.6,1.8-0.2,2.3-1.2c1-0.2,2.1-0.5,3.1-0.5
			c0.9-0.7,2.2-0.3,3-1.1c1.7,0,3-1.1,4.8-1c1.3-1.3,3.4-0.8,5-1.5c2.3-0.7,4.9-2.5,7.5-1.1h1.1c1.8,0.5,4.1,0.5,5,2.3
			c0.1,1.2-0.7,2.2-1.2,3.3c-1.7,1-4.5,1.6-6.3,0.2c-2.1-1.3-4.6-0.5-6.8,0.1c-0.6,0.7-1.6,0.7-1.9,1.6c0.1,1-0.2,2.1,0.2,3
			c0.8,1.7-0.2,3.3,0.5,5c0.3,2.2,1,5.4,0.9,8c0,3.6,0.3,8,0.9,11.5c0.2,1.3,0.8,2.7,0.9,4.2c0.8,0.9,0.1,2.1,0.6,3.2
			c-0.9,2.2,0,5.4-2.6,6.5c-1.3,1.4-3.8,1.2-5.4,0.6c-1.1-0.4-1.4-1.6-2.2-2.2c0-1.5-1-2.8-0.5-4.5c0.8-9.6,1.7-18.6,1.2-28.2"/>
		<path class="st1" d="M29.9,18.4c0.8,0.9,1.2,2,1.7,3.1c0.9,1,1.9-0.1,2.8-0.2c1.5-1.5,3.4-3.5,6.1-3.3c1.1,0.4,2.5,0.4,3,1.5
			c0.5,0.7,0.4,1.5,0.1,2.3c-1,2-3.3,2.7-5,3.9c-1.3,0.7-3.1,1.2-3.8,2.7c0,2.4,1.9,4.3,3.4,5.7c2.3,2.4,4.4,6,7.5,7.4
			c1.7,1,3,2.9,5.1,3.4c0.5,0.5,1.3,0.6,1.8,1.2c1,0.1,1.4,1.5,2.5,1.1c2,1.3,4,2.7,6.3,3.1c0.6,0.4,1.4,0.7,1.7,1.3
			c0.7,0.2,1.1,1,1.5,1.5c0.2,0.6-0.3,1.2-0.5,1.7c-1.2,1.1-3,0.7-4.3,1.4c-4.1,0.1-8.7,1.2-12.8,0.4L42.4,53
			c-2.9-3.6-5.1-7.5-8-11.2c-0.3-0.8-1.5-1.2-1.9-2.1c-1.4-0.9-1.9-2.6-3.8-2.8c-0.7,1.1-1,2.4-1,3.6c-0.5,1-0.3,2.5-0.9,3.5
			c-0.6,0.7-0.4,1.7-1,2.4c0,0.8-0.7,1.1-0.7,1.9c-1.4,3.2-4,5.9-6.7,8.2c-2.3,0.5-4.4,2.2-6.9,0.8c-1.4-0.1-2.9-1.1-3.4-2.5
			c0.3-0.7-0.6-1-0.6-1.6c0.5-1-0.9-2,0.4-2.6C8,50.1,8.5,49.6,9,49.4c1.2-0.2,2.5-0.2,3.4,0.8c0.5,0.1,0.7-0.2,1.1-0.4
			c0.1-0.6,1-0.7,1-1.4c1.1-1,1.9-2.1,2.4-3.6c1.5-1.6,1.7-3.8,1.1-6c-1.5-0.1-3.2,0.7-4.8,0.1c-1.1-0.8-2.7-1.2-3.2-2.4
			c-0.7-0.8-1.4-1.8-1.5-2.9c0.5-1.2,2.2-0.9,3.2-1.1c0.9-0.4,2-0.5,2.9-0.9c2.3-0.5,3.7-2.5,6.1-2.9c1.4-0.9,3.4-2.1,3.1-4.1
			c-0.7-1.6,0.4-3,0.2-4.8c0.3-0.7,1-1.4,1.7-1.7c0.9-0.2,1.9,0.1,2.8-0.3C28.8,18.3,29.5,18.1,29.9,18.4"/>
		<path class="st1" d="M102.7,30.3c1.9,2.1,4,4.6,2.7,7.7c-0.1,1-1.6,0.7-1.7,1.8c-2.1,0.3-4.3,0.3-6.3-0.4c0-0.7-0.6-1-1.2-1.4
			c-2.4-2.2-4.3-5.2-3.2-8.3c2.4-2,5.7-0.2,8.5,0C101.8,29.9,102.2,30.3,102.7,30.3"/>
		<path class="st1" d="M135.7,39.3c-0.1,0.1-0.1,0.3-0.3,0.4l-3.6,0l-0.1,0.1c-0.1,1,0,2.1,0,3.2l0.1,0.1l3.1,0
			c0.1,0.1,0.3,0.1,0.3,0.3c0.1,0.1-0.1,0.2-0.1,0.3l-0.3,0.1l-3,0c-0.1,0-0.1,0.1-0.2,0.1v3.2c0,0.2,0.2,0.2,0.3,0.2l3,0
			c0.1,0.1,0.2,0.1,0.3,0.3c0,0.1,0,0.3-0.2,0.4c-1.1,0.1-2.2-0.1-3.3,0.1l-0.1,0.2l0,3c0.2,0.1,0.6,0.1,0.8,0.1
			c0.9,0,2.1-0.1,3,0.1c0.1,0.1,0.2,0.3,0.1,0.4l-0.2,0.1c-3,0.1-6,0-9,0c-0.5,0-1.1-0.3-1.3-0.7c-0.2-0.9-0.1-2-0.1-2.9v-7.6l0,0
			c-0.5,0.4-0.8,1.1-1.4,1.5c-0.2,0-0.4-0.1-0.6-0.1c-0.1-0.1-0.1-0.3-0.1-0.5c1.3-1.8,2.2-3.8,2.8-5.9c0.2-0.4,0.8-0.4,1.2-0.4
			c0.3,0.1,0.6,0.3,0.7,0.6l0,0.4c-0.4,0.8-1,1.5-1.2,2.4l0,0.1l3.3,0c0.1-0.7,0.6-1.2,1-1.8c0.4-0.5,0.6-1.5,1.4-1.5
			c0.4,0,0.9,0.1,1.1,0.5c0.1,0.4-0.1,0.7-0.3,0.9c-0.6,0.6-1.2,1.2-1.7,1.9l0.1,0.1l4.3,0.1"/>
		<path class="st1" d="M138.8,39.5c0.1-0.1,0.2-0.3,0.4-0.4c3.1-0.1,5.2-0.1,8.4-0.1c0.3-0.2,0.8-0.1,1.2-0.2l4.1,0
			c0.3-0.2,0.1-0.7,0.2-1c0.1-0.7-0.4-1.8,0.6-2c0.5-0.1,1.1-0.1,1.3,0.4v2.5l0.1,0.1c1.8,0.1,3.5,0,5.2,0.1
			c0.1,0.1,0.2,0.1,0.2,0.2c0,0.2,0,0.4-0.2,0.4c-1.6,0.1-3.4,0-5.1,0.1c0,0.1-0.1,0-0.2,0.1l-0.1,0.1c-0.1,1.2,0,2.1,0,3.3l0.1,0.1
			l4.3,0.1c0.1,0.1,0.3,0.3,0.2,0.5l-0.2,0.2l-4.3,0.1l-6.4,0c-0.1-0.1-0.4-0.2-0.3-0.5c0.1-0.2,0.2-0.2,0.4-0.3l4,0
			c0.4-0.2,0.1-0.8,0.3-1.1v-2.5l-0.2-0.2c-1.7,0-3.3,0-4.9,0c-0.1-0.1-0.2-0.1-0.3-0.1c-0.1,0.2-0.3,0.2-0.5,0.3l-7.6,0.1
			c-0.1,0-0.3,0-0.5-0.1"/>
		<path class="st1" d="M120,36c0.1,0.7,0,1.4,0.1,2.1l0.2,0.1c1.1,0.1,2.2-0.1,3.3,0.1c0.1,0.1,0.1,0.2,0.1,0.4
			c-0.1,0.1-0.2,0.2-0.4,0.2l-6.7,0l-2.7,0c-0.1,0-0.2-0.2-0.3-0.3c0-0.2,0-0.4,0.2-0.4c1.3-0.1,2.7,0,4-0.1c0.1,0,0.2-0.1,0.2-0.2
			c0.2-0.8-0.5-2.2,0.7-2.4C119.2,35.7,119.8,35.6,120,36"/>
		<path class="st1" d="M146.8,36.5c0.1,0,0.2,0.1,0.2,0.2c0.1,0.2,0,0.4-0.2,0.5l-0.6,0.1l-6.1,0c-0.1,0-0.2-0.1-0.3-0.3
			c0-0.1,0-0.3,0.2-0.4c0.8-0.2,1.6,0,2.4-0.1C143.7,36.5,145.3,36.5,146.8,36.5"/>
		<path class="st1" d="M117.8,39.3c0.2,0.2,0.3,0.4,0.2,0.7c-0.1,0.6-1.1,1.2-0.4,1.8c0.2,0.6,1,1.1,1.2,1.7
			c0.1,0.1-0.1,0.2-0.1,0.3c-0.2,0.2-0.5,0.3-0.7,0.2c-0.5-0.4-0.9-0.9-1.4-1.3c-0.2,0-0.3,0.2-0.4,0.4c-0.6,0.7-1.1,1.6-1.9,2
			c-0.2-0.1-0.4-0.1-0.5-0.3l0-0.3c1.2-1.5,1.8-3.3,2.7-4.9C116.8,39.2,117.4,39,117.8,39.3"/>
		<path class="st1" d="M122.6,39.9c0,0.6-0.5,1.1-0.7,1.7c0.2,0.9,0.7,1.7,1.2,2.5c0.1,0.2,0,0.3-0.1,0.4c-0.2,0.1-0.4,0.2-0.7,0.1
			c-0.5-0.4-0.8-1-1.3-1.5c-0.6,0.3-0.6,1.5-1.6,1c-0.2-0.1-0.2-0.4-0.2-0.6c0.7-1.2,1.3-2.5,1.6-3.8c0.1-0.3,0.4-0.3,0.6-0.4
			C121.9,39.5,122.4,39.5,122.6,39.9"/>
		<path class="st0" d="M129.8,40c0,1,0,2.2,0,3c-0.9,0.1-1.8,0.1-2.8,0.1l-0.1-0.1v-3c0-0.3,0.4-0.1,0.6-0.2c0.8,0,1.6,0,2.3,0
			L129.8,40z"/>
		<path class="st1" d="M146.7,41.7c0.1,0.1,0.3,0.1,0.3,0.3c0,0.2-0.1,0.4-0.3,0.4l-0.4,0h-6.3c-0.1,0-0.2-0.1-0.3-0.2
			c-0.1-0.2,0.1-0.5,0.3-0.5l0.1,0L146.7,41.7z"/>
		<path class="st1" d="M146.6,44.2c0.1,0.1,0.2,0.1,0.3,0.3c0.1,0.1,0,0.3-0.1,0.3c-0.1,0.1-0.3,0.2-0.5,0.1l-6.4,0
			c-0.2-0.1-0.3-0.3-0.2-0.5c0.1-0.2,0.3-0.2,0.5-0.2C142.4,44.2,144.4,44.2,146.6,44.2"/>
		<path class="st0" d="M129.7,44l0,3.4c-1,0.1-1.8,0.1-2.8,0l-0.1-0.1l0-3.2c0.1-0.1,0.2-0.1,0.2-0.1C128,44,128.9,43.9,129.7,44"/>
		<path class="st1" d="M119.8,44.5c0.5,0.5,0.1,1.1,0.2,1.7c0.1,0.1,0.2,0.1,0.4,0.1h3.1c0.1,0.1,0.3,0.1,0.3,0.3
			c0,0.2-0.1,0.4-0.3,0.4l-3,0.1c-0.2,0.1,0,0.2,0,0.4c0.8,1.1,1.9,1.8,3,2.6c0.1,0.3-0.1,0.5-0.3,0.6h-0.5c-1-0.6-2-1.4-3-2.1
			l-0.1,0.1c0.2,1.3,0.2,2.6,0.1,4c-0.2,0.5-0.8,0.5-1.3,0.4c-0.2-0.1-0.5-0.2-0.6-0.4l-0.1-0.4c0-1.3,0-2.6,0.3-3.9
			c-0.3-0.2-0.3,0.2-0.5,0.4c0,0.1-0.2,0.1-0.2,0.3c-0.6,0.6-1.1,1.3-1.8,1.8c0,0.2-0.2,0.2-0.3,0.3c-0.4,0.4-1,1.1-1.7,0.8
			c-0.1-0.1-0.1-0.3-0.1-0.4c0.1-0.2,0.4-0.4,0.6-0.5c1.3-1.1,2.1-2.2,3-3.6c0-0.1,0-0.1-0.1-0.2c-1.1-0.1-2.3,0-3.4-0.1
			c-0.1-0.1-0.3-0.3-0.1-0.5l0.3-0.1l4,0c0.1,0,0.2-0.1,0.3-0.2c0.1-0.6-0.3-1.5,0.4-1.8C118.9,44.3,119.5,44.2,119.8,44.5"/>
		<path class="st1" d="M152.2,45c0.4,0.4,0.1,1,0.2,1.5c0,1.8,0,3.4,0,5.1c0.1,0.2,0.3,0.2,0.5,0.3h2.7c0.8-0.2,1.1-1,1.3-1.7
			c0.1-0.3,0.5-0.4,0.8-0.5c0.4,0,0.9,0.1,1.1,0.5c0.1,0.8-0.4,1.6-1,2.1c-1.7,0.7-3.9,0.3-5.7,0.4c-0.6-0.1-1.2-0.3-1.4-0.8
			l-0.1-0.3c0-1.9,0.1-4.2,0.1-6.1c0.1-0.3,0.4-0.4,0.6-0.5C151.7,44.7,152,44.8,152.2,45"/>
		<path class="st1" d="M155.5,46.1c0.5,0.7,1,1.3,1.3,2.1c0,0.2,0,0.5-0.1,0.6c-0.3,0.2-0.7,0.4-1.1,0.3c-1.1-0.2-0.7-1.4-1.2-2.1
			c-0.2-0.7-0.9-1.1-0.8-1.8c0.2-0.3,0.6-0.3,0.9-0.2C154.8,45.2,155.1,45.7,155.5,46.1"/>
		<path class="st1" d="M159.3,46.7c0.6,0.7,1.1,1.4,1.6,2.1c0,0.3,0,0.6-0.1,0.8c-0.3,0.3-0.8,0.4-1.3,0.3c-0.6-0.3-0.6-1-0.8-1.5
			c-0.3-0.8-0.8-1.4-1.3-2.1c-0.1-0.2,0-0.4,0.1-0.5c0.2-0.1,0.5-0.1,0.7-0.1C158.7,45.9,159,46.4,159.3,46.7"/>
		<path class="st1" d="M149.3,46.4c0.1,0.9-0.2,1.8-0.3,2.7c-0.3,0.8-0.1,2-1.1,2.3c-0.4,0.1-0.7-0.1-1.1-0.1
			c-0.1,0.4-0.2,0.9-0.7,1.1l-0.7,0.2c-1.6,0-3.3,0.1-4.8-0.1c-0.3-0.1-0.6-0.3-0.8-0.5l-0.1-0.3l0.1-4.1c0.1-0.3,0.3-0.6,0.6-0.8
			c0.5-0.3,1.1-0.2,1.6-0.2h3.6c1.8,0.2,0.9,2.3,1.2,3.4c0.1,0.1,0.2-0.1,0.3-0.3c0.5-1,0.8-2.1,0.9-3.2c0.1-0.3,0.4-0.3,0.6-0.4
			C148.9,46.1,149.1,46.1,149.3,46.4"/>
		<path class="st0" d="M144.9,47.4l0,4.3l-0.2,0.1l-3.1,0l-0.1-0.1c0-1.4,0-2.9,0-4.3c0-0.2,0.2-0.1,0.3-0.2L144.9,47.4L144.9,47.4z
			"/>
		<path class="st0" d="M129.7,48.3L129.7,48.3c0,1.1,0.1,2.2,0.1,3.2l-0.1,0.1h-2.7l-0.1-0.1c0-1.1-0.1-2.1,0-3.1
			c0-0.1,0.1-0.1,0.2-0.1C127.9,48.2,128.9,48.1,129.7,48.3"/>
	</g>
	<rect x="0.4" y="23.2" class="st1" width="20.7" height="0.9"/>
	<rect x="44" y="23.2" class="st1" width="9.4" height="0.9"/>
	<rect x="70.2" y="23.2" class="st1" width="6" height="0.9"/>
	<rect x="83.8" y="23.4" class="st1" width="83.3" height="0.9"/>
	<rect x="0.4" y="39.8" class="st1" width="13.5" height="0.9"/>
	<rect x="28.4" y="39.8" class="st1" width="3.5" height="0.9"/>
	<rect x="45.2" y="39.8" class="st1" width="29.4" height="0.9"/>
	<rect x="85.2" y="39.8" class="st1" width="11.9" height="0.9"/>
	<rect x="105" y="39.8" class="st1" width="6.9" height="0.9"/>
	<rect x="161.6" y="39.8" class="st1" width="5.5" height="0.9"/>
	<rect x="0.4" y="46.5" class="st1" width="13.7" height="0.9"/>
	<rect x="26.7" y="46.5" class="st1" width="9.4" height="0.9"/>
	<rect x="56.3" y="46.5" class="st1" width="17.9" height="0.9"/>
	<rect x="86.3" y="46.5" class="st1" width="25.6" height="0.9"/>
	<rect x="161.6" y="46.5" class="st1" width="5.5" height="0.9"/>
	<rect x="0.4" y="50" class="st1" width="6" height="0.9"/>
	<rect x="25.1" y="50" class="st1" width="13.5" height="0.9"/>
	<rect x="63.6" y="50" class="st1" width="10" height="0.9"/>
	<rect x="87.3" y="50" class="st1" width="24.8" height="0.9"/>
	<rect x="161.2" y="50" class="st1" width="5.9" height="0.9"/>
	<rect x="0.4" y="56.1" class="st1" width="6.2" height="0.9"/>
	<rect x="20.7" y="56.1" class="st1" width="23.1" height="0.9"/>
	<rect x="64.8" y="56.1" class="st1" width="9.2" height="0.9"/>
	<rect x="86.9" y="56.1" class="st1" width="80.2" height="0.9"/>
</g>
</svg>
