<?xml version="1.0" encoding="utf-8"?>
<!-- Generator: Adobe Illustrator 21.1.0, SVG Export Plug-In . SVG Version: 6.00 Build 0)  -->
<svg version="1.1" id="圖層_1" xmlns="http://www.w3.org/2000/svg" xmlns:xlink="http://www.w3.org/1999/xlink" x="0px" y="0px"
	 viewBox="0 0 18 29.7" style="enable-background:new 0 0 18 29.7;" xml:space="preserve">
<style type="text/css">
	.st0{fill:none;stroke:#666666;stroke-width:2;stroke-linecap:round;stroke-linejoin:round;stroke-miterlimit:10;}
	.st1{display:none;}
	.st2{display:inline;fill:none;}
	.st3{display:inline;}
	.st4{fill:#FFFFFF;}
</style>
<polyline class="st0" points="44.5,28.7 30.1,14.9 44.5,1 "/>
<polyline class="st0" points="2.2,1 16.6,14.9 2.2,28.7 "/>
<g id="圖層_7" class="st1">
	<rect x="-5479.9" y="-2878.3" class="st2" width="708.4" height="52.2"/>
	
		<text transform="matrix(1 0 0 1 -5479.9189 -2851.8809)" style="display:inline;fill:#4D4D4D; font-family:'NotoSansCJKtc-Regular-B5pc-H'; font-size:30px;">大標大標大標</text>
	<circle class="st3" cx="-6431.9" cy="-2715.5" r="9.7"/>
	
		<text transform="matrix(1 0 0 1 -6437.0386 -2710.978)" style="display:inline;fill:#FFFFFF; font-family:'NotoSansCJKtc-Regular-B5pc-H'; font-size:18px;">a</text>
	<circle class="st3" cx="-4989.9" cy="-2799.5" r="9.7"/>
	
		<text transform="matrix(1 0 0 1 -4995.0386 -2794.978)" style="display:inline;fill:#FFFFFF; font-family:'NotoSansCJKtc-Regular-B5pc-H'; font-size:18px;">a</text>
	<circle class="st3" cx="-5993.9" cy="-2583.5" r="10.2"/>
	
		<text transform="matrix(1 0 0 1 -5999.5244 -2576.9783)" style="display:inline;fill:#FFFFFF; font-family:'NotoSansCJKtc-Regular-B5pc-H'; font-size:18px;">b</text>
	<circle class="st3" cx="-4486.9" cy="-2707.5" r="10.2"/>
	
		<text transform="matrix(1 0 0 1 -4492.5244 -2700.9783)" style="display:inline;fill:#FFFFFF; font-family:'NotoSansCJKtc-Regular-B5pc-H'; font-size:18px;">b</text>
	<circle class="st3" cx="-1521.9" cy="-2811.5" r="9.7"/>
	
		<text transform="matrix(1 0 0 1 -1527.038 -2806.978)" style="display:inline;fill:#FFFFFF; font-family:'NotoSansCJKtc-Regular-B5pc-H'; font-size:18px;">a</text>
	<circle class="st3" cx="-1521.9" cy="-2714.5" r="10.2"/>
	
		<text transform="matrix(1 0 0 1 -1527.524 -2707.978)" style="display:inline;fill:#FFFFFF; font-family:'NotoSansCJKtc-Regular-B5pc-H'; font-size:18px;">b</text>
	<circle class="st3" cx="-1521.9" cy="-2292.5" r="10.2"/>
	
		<text transform="matrix(1 0 0 1 -1527.5428 -2286.978)" style="display:inline;fill:#FFFFFF; font-family:'NotoSansCJKtc-Regular-B5pc-H'; font-size:18px;">c</text>
	<circle class="st3" cx="-37.9" cy="-2804.5" r="9.7"/>
	
		<text transform="matrix(1 0 0 1 -43.0379 -2799.978)" style="display:inline;fill:#FFFFFF; font-family:'NotoSansCJKtc-Regular-B5pc-H'; font-size:18px;">a</text>
	<circle class="st3" cx="-844.9" cy="-2657.5" r="10.2"/>
	
		<text transform="matrix(1 0 0 1 -850.524 -2650.9783)" style="display:inline;fill:#FFFFFF; font-family:'NotoSansCJKtc-Regular-B5pc-H'; font-size:18px;">b</text>
	<circle class="st3" cx="-614.9" cy="-1697.5" r="10.2"/>
	
		<text transform="matrix(1 0 0 1 -620.524 -1690.978)" style="display:inline;fill:#FFFFFF; font-family:'NotoSansCJKtc-Regular-B5pc-H'; font-size:18px;">b</text>
	<circle class="st3" cx="-851.9" cy="-763.5" r="10.2"/>
	
		<text transform="matrix(1 0 0 1 -857.524 -756.978)" style="display:inline;fill:#FFFFFF; font-family:'NotoSansCJKtc-Regular-B5pc-H'; font-size:18px;">b</text>
	<circle class="st3" cx="-1989.9" cy="-2261.5" r="10.2"/>
	
		<text transform="matrix(1 0 0 1 -1996.5421 -2255.978)" style="display:inline;fill:#FFFFFF; font-family:'NotoSansCJKtc-Regular-B5pc-H'; font-size:18px;">d</text>
	<circle class="st3" cx="-1521.9" cy="-744.5" r="9.7"/>
	
		<text transform="matrix(1 0 0 1 -1527.038 -739.978)" style="display:inline;fill:#FFFFFF; font-family:'NotoSansCJKtc-Regular-B5pc-H'; font-size:18px;">a</text>
	<circle class="st3" cx="-1521.9" cy="-647.5" r="10.2"/>
	
		<text transform="matrix(1 0 0 1 -1527.524 -640.978)" style="display:inline;fill:#FFFFFF; font-family:'NotoSansCJKtc-Regular-B5pc-H'; font-size:18px;">b</text>
	<circle class="st3" cx="-1521.9" cy="-225.5" r="10.2"/>
	
		<text transform="matrix(1 0 0 1 -1527.5428 -219.9781)" style="display:inline;fill:#FFFFFF; font-family:'NotoSansCJKtc-Regular-B5pc-H'; font-size:18px;">c</text>
	<circle class="st3" cx="-1989.9" cy="-194.5" r="10.2"/>
	
		<text transform="matrix(1 0 0 1 -1996.5421 -188.9781)" style="display:inline;fill:#FFFFFF; font-family:'NotoSansCJKtc-Regular-B5pc-H'; font-size:18px;">d</text>
	<circle class="st3" cx="-1517.9" cy="-1196.5" r="10.2"/>
	
		<text transform="matrix(1 0 0 1 -1523.5428 -1190.9781)" style="display:inline;fill:#FFFFFF; font-family:'NotoSansCJKtc-Regular-B5pc-H'; font-size:18px;">c</text>
	<circle class="st3" cx="-1989.9" cy="-1165.5" r="10.2"/>
	
		<text transform="matrix(1 0 0 1 -1996.5421 -1159.9781)" style="display:inline;fill:#FFFFFF; font-family:'NotoSansCJKtc-Regular-B5pc-H'; font-size:18px;">d</text>
	<circle class="st3" cx="-2999.9" cy="-2707.5" r="10.2"/>
	
		<text transform="matrix(1 0 0 1 -3005.5239 -2700.9783)" style="display:inline;fill:#FFFFFF; font-family:'NotoSansCJKtc-Regular-B5pc-H'; font-size:18px;">b</text>
	<circle class="st3" cx="-5801.3" cy="-2360.7" r="11"/>
	<g class="st3">
		<path class="st4" d="M-5805.1-2360.7c0-3.3,2.2-5.1,4.7-5.1c1.3,0,2.2,0.5,2.9,1.2l-0.8,1.1c-0.6-0.5-1.2-0.9-2-0.9
			c-1.8,0-3.1,1.5-3.1,3.8s1.2,3.7,3,3.7c0.9,0,1.7-0.4,2.3-1l0.7,1.1c-0.9,0.8-2,1.2-3.2,1.2
			C-5803.1-2355.5-5805.1-2357.4-5805.1-2360.7z"/>
	</g>
	<circle class="st3" cx="669.1" cy="-2827.5" r="9.7"/>
	
		<text transform="matrix(1 0 0 1 663.9621 -2822.978)" style="display:inline;fill:#FFFFFF; font-family:'NotoSansCJKtc-Regular-B5pc-H'; font-size:18px;">a</text>
	<circle class="st3" cx="669.1" cy="-2773.5" r="10.2"/>
	
		<text transform="matrix(1 0 0 1 663.476 -2766.978)" style="display:inline;fill:#FFFFFF; font-family:'NotoSansCJKtc-Regular-B5pc-H'; font-size:18px;">b</text>
	<circle class="st3" cx="609.1" cy="-2696.5" r="10.2"/>
	
		<text transform="matrix(1 0 0 1 603.4572 -2690.978)" style="display:inline;fill:#FFFFFF; font-family:'NotoSansCJKtc-Regular-B5pc-H'; font-size:18px;">c</text>
	<circle class="st3" cx="1122.1" cy="-2694.5" r="10.2"/>
	
		<text transform="matrix(1 0 0 1 1116.4579 -2687.978)" style="display:inline;fill:#FFFFFF; font-family:'NotoSansCJKtc-Regular-B5pc-H'; font-size:18px;">d</text>
	<circle class="st3" cx="1487.1" cy="-2532.5" r="10.2"/>
	
		<text transform="matrix(1 0 0 1 1482.0521 -2526.978)" style="display:inline;fill:#FFFFFF; font-family:'NotoSansCJKtc-Regular-B5pc-H'; font-size:18px;">e</text>
	<circle class="st3" cx="623.1" cy="-1951.5" r="10.2"/>
	
		<text transform="matrix(1 0 0 1 617.9711 -1947.978)" style="display:inline;fill:#FFFFFF; font-family:'NotoSansCJKtc-Regular-B5pc-H'; font-size:18px;">g</text>
	<circle class="st3" cx="1492.1" cy="-1619.5" r="10.2"/>
	
		<text transform="matrix(1 0 0 1 1486.5751 -1612.978)" style="display:inline;fill:#FFFFFF; font-family:'NotoSansCJKtc-Regular-B5pc-H'; font-size:18px;">h</text>
	<circle class="st3" cx="963.1" cy="-1526.5" r="10.2"/>
	
		<text transform="matrix(1 0 0 1 956.5151 -1519.978)" style="display:inline;fill:#FFFFFF; font-family:'NotoSansCJKtc-Regular-B5pc-H'; font-size:18px;"> i  </text>
	<circle class="st3" cx="996.1" cy="-1526.5" r="10.2"/>
	
		<text transform="matrix(1 0 0 1 993.5632 -1521.978)" style="display:inline;fill:#FFFFFF; font-family:'NotoSansCJKtc-Regular-B5pc-H'; font-size:18px;">j</text>
	<circle class="st3" cx="1449.1" cy="-2218.5" r="10.2"/>
	
		<text transform="matrix(1 0 0 1 1446.1129 -2210.978)" style="display:inline;fill:#FFFFFF; font-family:'NotoSansCJKtc-Regular-B5pc-H'; font-size:18px;">f</text>
</g>
<g id="圖層_2">
</g>
<g id="圖層_3">
</g>
<g id="圖層_4">
</g>
<g id="圖層_5">
</g>
<g id="圖層_6">
</g>
</svg>
