<svg id="04662cf4-2532-45b6-aa24-cbb96e3d31dd" data-name="b1534c27-ac52-4ebd-a5a4-5fed77b10906" xmlns="http://www.w3.org/2000/svg" width="24" height="24" viewBox="0 0 24 24">
  <defs>
    <style>
      .\34 4437366-276e-499a-9d9e-f695c5d79c99 {
        fill: none;
      }

      .\38 5046318-c113-484d-8b87-2b0863f4714a {
        fill: #00b900;
      }

      .cfe29d25-8bf8-45fd-92ae-c9e51f8682ad {
        fill: #fff;
      }
    </style>
  </defs>
  <title>sns-02</title>
  <rect class="44437366-276e-499a-9d9e-f695c5d79c99" width="24" height="24"/>
  <g id="683bb29d-72a2-4e81-8ba6-54e4854b9665" data-name="789d30ba-d511-4295-8226-622c4355b6a7">
    <g>
      <path class="85046318-c113-484d-8b87-2b0863f4714a" d="M23.5,10.38C23.5,5.23,18.34,1,12,1S.5,5.23.5,10.38c0,4.61,4.09,8.48,9.64,9.2.38.08.88.25,1,.57a2.36,2.36,0,0,1,0,1l-.17,1c-.05.29-.23,1.14,1,.62a37.07,37.07,0,0,0,9-6.68h0a8.3,8.3,0,0,0,2.46-5.74"/>
      <g>
        <path class="cfe29d25-8bf8-45fd-92ae-c9e51f8682ad" d="M9.66,7.89H8.85a.23.23,0,0,0-.23.23h0v5a.23.23,0,0,0,.23.22h.81a.23.23,0,0,0,.23-.22v-5a.23.23,0,0,0-.23-.23h0"/>
        <path class="cfe29d25-8bf8-45fd-92ae-c9e51f8682ad" d="M15.22,7.89h-.81a.23.23,0,0,0-.23.23h0v3L11.89,8h-1a.23.23,0,0,0-.23.23h0v5a.23.23,0,0,0,.23.22h.81a.23.23,0,0,0,.23-.22v-3l2.3,3.1.05.05h.93a.23.23,0,0,0,.23-.22V8.11a.23.23,0,0,0-.23-.23h0"/>
        <path class="cfe29d25-8bf8-45fd-92ae-c9e51f8682ad" d="M7.72,12.08H5.53v-4a.23.23,0,0,0-.23-.23H4.5a.23.23,0,0,0-.23.23h0v5h0a.22.22,0,0,0,.06.16h0a.22.22,0,0,0,.16.06H7.71a.23.23,0,0,0,.23-.23h0V12.3a.23.23,0,0,0-.23-.23h0"/>
        <path class="cfe29d25-8bf8-45fd-92ae-c9e51f8682ad" d="M19.67,9.14a.23.23,0,0,0,.23-.23V8.11a.23.23,0,0,0-.23-.23H16.44a.22.22,0,0,0-.16.06h0a.22.22,0,0,0-.06.16h0v5h0a.22.22,0,0,0,.06.16h0a.22.22,0,0,0,.16.06h3.23a.23.23,0,0,0,.23-.23V12.3a.23.23,0,0,0-.23-.23H17.48v-.88h2.19A.23.23,0,0,0,19.9,11v-.72a.23.23,0,0,0-.23-.23H17.48V9.14Z"/>
      </g>
    </g>
  </g>
</svg>
