<svg id="cdbf67d0-fa72-4dbe-8a55-31ded98e0712" data-name="圖層 1" xmlns="http://www.w3.org/2000/svg" width="392.5" height="392" viewBox="0 0 392.5 392">
  <defs>
    <style>
      .cd873460-5fc8-4375-90c8-9b04fe297a2d {
        fill: #d60c18;
      }
    </style>
  </defs>
  <title>checkIcon</title>
  <g>
    <path class="cd873460-5fc8-4375-90c8-9b04fe297a2d" d="M117.09,175a15,15,0,0,0-23.19,19l78,95a15,15,0,0,0,11.59,5.48h.4a15,15,0,0,0,11.68-6.1l194-263.5A15,15,0,1,0,365.42,7.11l-182.57,248Z"/>
    <path class="cd873460-5fc8-4375-90c8-9b04fe297a2d" d="M365,129.38a15,15,0,0,0-10,18.69A166.14,166.14,0,0,1,362,196c0,91.53-74.47,166-166,166S30,287.53,30,196,104.47,30,196,30a164.44,164.44,0,0,1,71.86,16.31,15,15,0,1,0,13-27A194.21,194.21,0,0,0,196,0C87.93,0,0,87.93,0,196S87.93,392,196,392s196-87.92,196-196a196.13,196.13,0,0,0-8.29-56.58A15,15,0,0,0,365,129.38Z"/>
  </g>
</svg>
