<svg xmlns="http://www.w3.org/2000/svg" xmlns:xlink="http://www.w3.org/1999/xlink" width="213.76" height="320" viewBox="0 0 213.76 320">
  <defs>
    <style>
      .\39 e37a5b8-9e7f-4dfe-83c4-13b33f9ef676 {
        isolation: isolate;
      }

      .c14049c6-1ca6-4af1-96d5-ec3d282c71c8 {
        mix-blend-mode: multiply;
        fill: url(#a4efa886-3cbb-4310-bbe1-d2642aa398fa);
      }

      .\30 f99572b-160f-4abd-89a4-b7fbd2d6a2cc {
        fill: #d60c18;
      }
    </style>
    <radialGradient id="a4efa886-3cbb-4310-bbe1-d2642aa398fa" data-name="鍊踑臇 蜸馯鳺艜 10" cx="-626.25" cy="50416.05" r="25.48" gradientTransform="translate(1975.97 -22046.85) scale(2.98 0.44)" gradientUnits="userSpaceOnUse">
      <stop offset="0" stop-color="#898787"/>
      <stop offset="0.09" stop-color="#9d9c9c"/>
      <stop offset="0.27" stop-color="#c0bfbf"/>
      <stop offset="0.45" stop-color="#dcdbdb"/>
      <stop offset="0.63" stop-color="#efefef"/>
      <stop offset="0.82" stop-color="#fbfbfb"/>
      <stop offset="1" stop-color="#fff"/>
    </radialGradient>
  </defs>
  <title>paywall_allaccess</title>
  <g class="9e37a5b8-9e7f-4dfe-83c4-13b33f9ef676">
    <g id="af9ce01d-958a-414b-97fa-1e9d846ba0c7" data-name="圖層 1">
      <g>
        <ellipse class="c14049c6-1ca6-4af1-96d5-ec3d282c71c8" cx="106.88" cy="307.63" rx="106.88" ry="12.37"/>
        <g>
          <path class="0f99572b-160f-4abd-89a4-b7fbd2d6a2cc" d="M164.06,183a2.11,2.11,0,0,0,1,.69l-1.64,1-2.85-3.67.45-.64a20.32,20.32,0,0,0,3.06,2.59ZM129,155a48.83,48.83,0,1,0,48.81,48.81A48.82,48.82,0,0,0,129,155Zm-28.64,15.1c1.72,2.59-2.38,3-2.38,3a9.16,9.16,0,0,0-1.26.53,45.58,45.58,0,0,1,3.64-3.51Zm4.41,42.74a5.69,5.69,0,0,0-1.32,3.85c2,6.87-2,6.87-2,6.87-2.85.43-1.74,3.85-1.74,3.85a6.56,6.56,0,0,1-1.11,3.46,3.27,3.27,0,0,1,.24,3.22,2.08,2.08,0,0,0-.34,1.08,43.71,43.71,0,0,1-13.59-31.71,47.73,47.73,0,0,1,.63-7.55c.27-.42.43-.71.43-.71l1.74,1.08c1.53-.64,2.4,1.72,2.4,1.72,1.3-.24,1.74,2.14,1.74,2.14,3.27-1.29,3.93,4.72,3.93,4.72,1.74,0,3.7,2.14,3.7,2.14,3.27,0,3.93,2.14,3.93,2.14,2.82-.42,1.32,3.7,1.32,3.7ZM106,168c-.29,2.38-4.43,2.09-5.44,2a41,41,0,0,1,5.55-4Zm60.27,21.84a7.23,7.23,0,0,1-3.49,3.64s-3.69-9-8.29-11c0,0,4.8,8.39,8.74,12.25a3,3,0,0,0,2.82-.21s.21,7.1-3.93,11.83a11.24,11.24,0,0,0-.66,5.36s.66,4.72-2.82,7.1a4.41,4.41,0,0,0-1.53,3.64,2.19,2.19,0,0,1-2.41,2.14s-2.62,5.54-10,4.46a23.35,23.35,0,0,0-2.17-8.76s-2-2.58,1.09-5.57c0,0,2.85-1.29-1.51-6.23,0,0-2.85-2.35-1.32-4.93,0,0,.42-2.14-.66-2.8,0,0-3,.64-3.7-1.51,0,0-5.68,2.16-8.29,1.08,0,0-3.25,2.14-5.89-2.8,0,0-4.35-2.59-2.83-5a28.49,28.49,0,0,0,.45-4.7,7.78,7.78,0,0,1,4.78-5.81s1.32-3.88,3.27-3.88a27,27,0,0,0,6.34-1.05,10.82,10.82,0,0,1,4.57-.43s1.08,1.72.45,2.77a4.79,4.79,0,0,1,5,1.3s2-.21,1.51-1.72c0,0,5,3,7.63,1.29,0,0,.66-4.3-1.72-4.09,0,0-3.72.24-5.47-2.35,0,0-2-.87-1.53.43a2.38,2.38,0,0,0,1.74,1.72s-.42,1.29-2,.63c0,0-1.29-.42-1.74-3.22,0,0-3.49-.64-4.36-2.14,0,0-2.16.64,2.82,3,0,0,2,1.5-.66,2.58,0,0-1.74-.86.22-1.29,0,0-.43-.87-2.38-1.51a6.51,6.51,0,0,1-1.53-2.14s-2.62,1.72-3.72.64c0,0-.43,2.14-1.72,2.14,0,0-.24,3.25-4.6,2h-1.32s-1.08-3,.45-3.88c0,0,2.83.66,3.46,0s1.11-1.72-.64-2.14c0,0-2.62-.66-1.53-2,0,0,1.32-1.48,2.61.45a11.33,11.33,0,0,1,5-1.72s5-2.16,3.69-3.67c0,0-3.24,1.93-4.78.87,0,0-4.3-1.43-.79-4.83a43.77,43.77,0,0,1,34.69,23.55,4,4,0,0,1-2.38.31c.66.69,3.49,3.8,1,6.1Zm0,0"/>
          <path class="0f99572b-160f-4abd-89a4-b7fbd2d6a2cc" d="M157.73,151.27V128.6a12,12,0,0,0-12-12h-79a12,12,0,0,0-12,12V281.76a12,12,0,0,0,12,12h79a12,12,0,0,0,12-12V256.42a59.56,59.56,0,0,1-8.32,3.76V271.6H63.17v-136h86.25v11.92A59.6,59.6,0,0,1,157.73,151.27ZM106.28,275.8a6,6,0,1,1-6,6A6,6,0,0,1,106.28,275.8Zm12.64-147.62H93.66a1.47,1.47,0,0,1-1.45-1.45,1.45,1.45,0,0,1,1.45-1.45h25.26a1.45,1.45,0,0,1,1.45,1.45A1.46,1.46,0,0,1,118.92,128.18Z"/>
        </g>
      </g>
    </g>
  </g>
</svg>
