<svg xmlns="http://www.w3.org/2000/svg" xmlns:xlink="http://www.w3.org/1999/xlink" width="174" height="310" viewBox="0 0 174 310">
  <defs>
    <style>
      .\32 35db3b4-5cc6-4294-b5c3-b6734de98967 {
        isolation: isolate;
      }

      .\34 557f5dd-becf-45bb-821c-c7e508baa732 {
        mix-blend-mode: multiply;
        fill: url(#a56a699b-4076-46a3-94f2-85fb53c12783);
      }

      .\38 6836328-9034-4642-9f97-2044f67227b3 {
        fill: #d60c18;
      }
    </style>
    <radialGradient id="a56a699b-4076-46a3-94f2-85fb53c12783" data-name="鍊踑臇 蜸馯鳺艜 10" cx="-942.03" cy="50402.26" r="20.74" gradientTransform="translate(2898.56 -22048.43) scale(2.98 0.44)" gradientUnits="userSpaceOnUse">
      <stop offset="0" stop-color="#898787"/>
      <stop offset="0.09" stop-color="#9d9c9c"/>
      <stop offset="0.27" stop-color="#c0bfbf"/>
      <stop offset="0.45" stop-color="#dcdbdb"/>
      <stop offset="0.63" stop-color="#efefef"/>
      <stop offset="0.82" stop-color="#fbfbfb"/>
      <stop offset="1" stop-color="#fff"/>
    </radialGradient>
  </defs>
  <title>paywall_allaccess</title>
  <g class="235db3b4-5cc6-4294-b5c3-b6734de98967">
    <g id="3d755d6c-ac30-495b-a342-ca00a767c815" data-name="圖層 1">
      <g>
        <ellipse class="4557f5dd-becf-45bb-821c-c7e508baa732" cx="87" cy="299.93" rx="87" ry="10.07"/>
        <g>
          <path class="86836328-9034-4642-9f97-2044f67227b3" d="M133.55,198.49a1.71,1.71,0,0,0,.79.56l-1.33.84-2.32-3,.37-.52a16.54,16.54,0,0,0,2.49,2.11ZM105,175.71a39.75,39.75,0,1,0,39.73,39.73A39.74,39.74,0,0,0,105,175.71ZM81.7,188c1.4,2.11-1.94,2.43-1.94,2.43a7.45,7.45,0,0,0-1,.43,37.11,37.11,0,0,1,3-2.85Zm3.59,34.79a4.63,4.63,0,0,0-1.07,3.14c1.59,5.59-1.59,5.59-1.59,5.59-2.32.35-1.42,3.14-1.42,3.14a5.34,5.34,0,0,1-.9,2.82,2.66,2.66,0,0,1,.19,2.62,1.7,1.7,0,0,0-.28.88,35.58,35.58,0,0,1-11.06-25.81,38.85,38.85,0,0,1,.51-6.14c.22-.34.35-.58.35-.58l1.42.88c1.24-.52,2,1.4,2,1.4,1.06-.19,1.42,1.74,1.42,1.74,2.66-1.05,3.2,3.85,3.2,3.85,1.42,0,3,1.74,3,1.74,2.66,0,3.2,1.74,3.2,1.74,2.3-.34,1.07,3,1.07,3Zm1-36.49c-.24,1.94-3.61,1.7-4.43,1.61a33.4,33.4,0,0,1,4.52-3.25Zm49.06,17.77a5.88,5.88,0,0,1-2.84,3s-3-7.35-6.74-8.92c0,0,3.91,6.83,7.11,10a2.44,2.44,0,0,0,2.3-.17s.17,5.78-3.2,9.63a9.15,9.15,0,0,0-.54,4.36s.54,3.85-2.3,5.78a3.59,3.59,0,0,0-1.24,3,1.78,1.78,0,0,1-2,1.74s-2.13,4.51-8.16,3.63a19,19,0,0,0-1.77-7.13s-1.59-2.1.89-4.53c0,0,2.32-1.05-1.23-5.07,0,0-2.32-1.91-1.07-4,0,0,.34-1.74-.54-2.28,0,0-2.47.52-3-1.23,0,0-4.62,1.76-6.74.88,0,0-2.65,1.74-4.8-2.28,0,0-3.54-2.11-2.3-4a23.19,23.19,0,0,0,.37-3.82,6.34,6.34,0,0,1,3.89-4.73s1.07-3.16,2.66-3.16a22,22,0,0,0,5.16-.86,8.81,8.81,0,0,1,3.72-.35s.88,1.4.36,2.26a3.9,3.9,0,0,1,4.08,1.06s1.59-.17,1.23-1.4c0,0,4.08,2.47,6.21,1.05,0,0,.53-3.5-1.4-3.33,0,0-3,.19-4.45-1.91,0,0-1.59-.71-1.24.35a1.93,1.93,0,0,0,1.41,1.4s-.34,1.05-1.59.51c0,0-1.05-.34-1.41-2.62,0,0-2.84-.52-3.55-1.74,0,0-1.76.52,2.3,2.45,0,0,1.59,1.22-.54,2.1,0,0-1.41-.7.18-1.05,0,0-.35-.71-1.94-1.23a5.3,5.3,0,0,1-1.24-1.74s-2.13,1.4-3,.52c0,0-.35,1.74-1.4,1.74,0,0-.19,2.65-3.74,1.59h-1.07s-.88-2.45.36-3.16c0,0,2.3.54,2.82,0s.9-1.4-.52-1.74c0,0-2.13-.54-1.24-1.59,0,0,1.07-1.2,2.12.36a9.23,9.23,0,0,1,4.09-1.4s4.08-1.76,3-3c0,0-2.64,1.57-3.89.71,0,0-3.5-1.16-.64-3.93a35.63,35.63,0,0,1,28.24,19.17,3.22,3.22,0,0,1-1.94.25c.54.56,2.84,3.1.78,5Zm0,0"/>
          <path class="86836328-9034-4642-9f97-2044f67227b3" d="M128.4,172.65V154.2a9.77,9.77,0,0,0-9.74-9.73H54.39a9.77,9.77,0,0,0-9.74,9.73V278.87a9.77,9.77,0,0,0,9.74,9.74h64.27a9.77,9.77,0,0,0,9.74-9.74V258.25a48.48,48.48,0,0,1-6.77,3.06v9.29H51.42V159.89h70.2v9.7A48.52,48.52,0,0,1,128.4,172.65ZM86.51,274a4.87,4.87,0,1,1-4.85,4.85A4.85,4.85,0,0,1,86.51,274ZM96.81,153.86H76.24a1.2,1.2,0,0,1-1.18-1.18,1.18,1.18,0,0,1,1.18-1.18H96.81A1.18,1.18,0,0,1,98,152.67,1.19,1.19,0,0,1,96.81,153.86Z"/>
        </g>
      </g>
    </g>
  </g>
</svg>
