<svg id="e9422148-1913-46ba-8a14-a00e19749cc0" data-name="圖層 1" xmlns="http://www.w3.org/2000/svg" width="52" height="52" viewBox="0 0 52 52">
  <defs>
    <style>
      .\34 2910be3-d283-4335-b8c2-7ae1f23857e4 {
        fill: #fff;
      }

      .\38 2cd5580-5dd0-4fc4-859b-ddf4b892ed60 {
        fill: #e6e6e6;
      }

      .d5881d6d-6c64-4491-ba25-1e8114b5b7ee {
        fill: none;
        stroke: #ee7a00;
        stroke-linecap: round;
        stroke-linejoin: round;
        stroke-width: 1.35px;
      }
    </style>
  </defs>
  <title>sixEquityIcon</title>
  <g>
    <path class="42910be3-d283-4335-b8c2-7ae1f23857e4" d="M26,51.85A25.85,25.85,0,1,1,51.85,26,25.88,25.88,0,0,1,26,51.85Z"/>
    <path class="82cd5580-5dd0-4fc4-859b-ddf4b892ed60" d="M26,.3A25.7,25.7,0,1,1,.3,26,25.73,25.73,0,0,1,26,.3M26,0A26,26,0,1,0,52,26,26,26,0,0,0,26,0Z"/>
  </g>
  <g>
    <path class="d5881d6d-6c64-4491-ba25-1e8114b5b7ee" d="M12.25,19.88a9.82,9.82,0,0,1,7-2.7A8.89,8.89,0,0,1,26,19.88V34.81a8.52,8.52,0,0,0-6.87-3,8.52,8.52,0,0,0-6.87,3Z"/>
    <path class="d5881d6d-6c64-4491-ba25-1e8114b5b7ee" d="M39.75,19.88a9.82,9.82,0,0,0-7-2.7A8.89,8.89,0,0,0,26,19.88V34.81a8.52,8.52,0,0,1,6.87-3,8.52,8.52,0,0,1,6.87,3Z"/>
  </g>
</svg>
