<svg id="1c206a9b-6f19-4394-a279-efdada399302" data-name="圖層 1" xmlns="http://www.w3.org/2000/svg" width="52" height="52" viewBox="0 0 52 52">
  <defs>
    <style>
      .a64a943a-b4ce-44a7-bbb5-8545c05792a0 {
        fill: #fff;
      }

      .\39 3c209b6-1153-4927-b660-443498c96aab {
        fill: #e6e6e6;
      }

      .\39 7ec6381-acc9-45b8-926f-56e4bf22b419 {
        fill: none;
        stroke: #675245;
        stroke-linecap: round;
        stroke-linejoin: round;
        stroke-width: 1.35px;
      }
    </style>
  </defs>
  <title>sixEquityIcon</title>
  <g>
    <path class="a64a943a-b4ce-44a7-bbb5-8545c05792a0" d="M26,51.85A25.85,25.85,0,1,1,51.85,26,25.88,25.88,0,0,1,26,51.85Z"/>
    <path class="93c209b6-1153-4927-b660-443498c96aab" d="M26,.3A25.7,25.7,0,1,1,.3,26,25.73,25.73,0,0,1,26,.3M26,0A26,26,0,1,0,52,26,26,26,0,0,0,26,0Z"/>
  </g>
  <g>
    <g>
      <circle class="97ec6381-acc9-45b8-926f-56e4bf22b419" cx="24.42" cy="22.25" r="10"/>
      <path class="97ec6381-acc9-45b8-926f-56e4bf22b419" d="M33.71,12.92A13.19,13.19,0,0,1,15.13,31.64"/>
    </g>
    <line class="97ec6381-acc9-45b8-926f-56e4bf22b419" x1="25.67" y1="35.44" x2="25.67" y2="39.33"/>
    <line class="97ec6381-acc9-45b8-926f-56e4bf22b419" x1="19.11" y1="39.75" x2="32.23" y2="39.75"/>
  </g>
</svg>
