<svg id="250de0bf-99ca-4fe4-9351-21cad2e5345d" data-name="圖層 1" xmlns="http://www.w3.org/2000/svg" width="52" height="52" viewBox="0 0 52 52">
  <defs>
    <style>
      .f44c6474-577c-411b-b2a0-188c98353fe5 {
        fill: #fff;
      }

      .e0b645fd-a393-4eb1-b5d6-585c1cf84c71 {
        fill: #e6e6e6;
      }

      .\31 8201ae3-7a90-46ac-9acf-2b89aaeb68b6 {
        fill: none;
        stroke: #2caade;
        stroke-linecap: round;
        stroke-linejoin: round;
        stroke-width: 1.15px;
      }
    </style>
  </defs>
  <title>sixEquityIcon</title>
  <g>
    <path class="f44c6474-577c-411b-b2a0-188c98353fe5" d="M26,51.85A25.85,25.85,0,1,1,51.85,26,25.88,25.88,0,0,1,26,51.85Z"/>
    <path class="e0b645fd-a393-4eb1-b5d6-585c1cf84c71" d="M26,.3A25.7,25.7,0,1,1,.3,26,25.73,25.73,0,0,1,26,.3M26,0A26,26,0,1,0,52,26,26,26,0,0,0,26,0Z"/>
  </g>
  <g>
    <rect class="18201ae3-7a90-46ac-9acf-2b89aaeb68b6" x="14.32" y="20.73" width="23.36" height="4.25"/>
    <rect class="18201ae3-7a90-46ac-9acf-2b89aaeb68b6" x="15.38" y="24.97" width="21.24" height="12.78"/>
    <line class="18201ae3-7a90-46ac-9acf-2b89aaeb68b6" x1="26" y1="20.73" x2="26" y2="37.75"/>
    <g>
      <path class="18201ae3-7a90-46ac-9acf-2b89aaeb68b6" d="M26,17.77s-2.46-3.42-4.17-3.52a1.76,1.76,0,1,0,0,3.52Z"/>
      <path class="18201ae3-7a90-46ac-9acf-2b89aaeb68b6" d="M26,17.77s2.46-3.42,4.17-3.52a1.76,1.76,0,1,1,0,3.52Z"/>
    </g>
  </g>
</svg>
