<svg id="5eae6f56-6ec4-40d6-a573-ef464ec3606a" data-name="圖層 1" xmlns="http://www.w3.org/2000/svg" width="52" height="52" viewBox="0 0 52 52">
  <defs>
    <style>
      .\30 2d943c3-df96-4408-9fd0-8671b7847b25 {
        fill: #fff;
      }

      .\37 81de7e0-042d-4aa4-9907-e2b726956b1b {
        fill: #e6e6e6;
      }

      .\36 61e5bc3-23d2-467b-9b25-ac68f58a1dbe {
        fill: none;
        stroke: #d2111b;
        stroke-linecap: round;
        stroke-linejoin: round;
        stroke-width: 1.35px;
      }
    </style>
  </defs>
  <title>sixEquityIcon</title>
  <g>
    <path class="02d943c3-df96-4408-9fd0-8671b7847b25" d="M26,51.85A25.85,25.85,0,1,1,51.85,26,25.88,25.88,0,0,1,26,51.85Z"/>
    <path class="781de7e0-042d-4aa4-9907-e2b726956b1b" d="M26,.3A25.7,25.7,0,1,1,.3,26,25.73,25.73,0,0,1,26,.3M26,0A26,26,0,1,0,52,26,26,26,0,0,0,26,0Z"/>
  </g>
  <path class="661e5bc3-23d2-467b-9b25-ac68f58a1dbe" d="M18.13,23.41m-3.08,1v13c.62,0,3.24-.06,3.86-.1,1.05-.08,2.72-.14,3.11-.14,3.27,0,6.39.17,9.55.3l1.85.08A2.47,2.47,0,0,0,36,35.14a2.35,2.35,0,0,0-.55-1.52,2.36,2.36,0,0,0,1.43-3.93,2.36,2.36,0,0,0,.83-4.14,2.35,2.35,0,0,0-1.05-4.4l-7.31-.3,1.32-4.92a2.74,2.74,0,0,0,0-1.65,2.62,2.62,0,0,0-1.82-1.66l-.06,0a2.63,2.63,0,0,0-3.18,1.81l-2,6.73v0c-.34,1.42-1.65,3.28-3.11,3.22Zm3.08-1"/>
</svg>
