<svg id="6e2b2596-a94d-4abf-8bd3-44d494330486" data-name="圖層 1" xmlns="http://www.w3.org/2000/svg" width="52" height="52" viewBox="0 0 52 52">
  <defs>
    <style>
      .\37 f3fa81d-d4dd-4577-8f15-0c1e0653493e {
        fill: #fff;
      }

      .\35 a3aa6e1-3292-471f-8783-f5fc4bd258a7 {
        fill: #e6e6e6;
      }

      .f6d5b23b-bc2e-44e5-baaf-e87acd153e95 {
        fill: #d8044f;
      }

      .\38 aafded9-faa8-4fd9-a757-44b6fbe2f36f {
        fill: none;
        stroke: #d8044f;
        stroke-linecap: round;
        stroke-linejoin: round;
        stroke-width: 1.35px;
      }
    </style>
  </defs>
  <title>sixEquityIcon</title>
  <g>
    <path class="7f3fa81d-d4dd-4577-8f15-0c1e0653493e" d="M26,51.85A25.85,25.85,0,1,1,51.85,26,25.88,25.88,0,0,1,26,51.85Z"/>
    <path class="5a3aa6e1-3292-471f-8783-f5fc4bd258a7" d="M26,.3A25.7,25.7,0,1,1,.3,26,25.73,25.73,0,0,1,26,.3M26,0A26,26,0,1,0,52,26,26,26,0,0,0,26,0Z"/>
  </g>
  <g>
    <path class="f6d5b23b-bc2e-44e5-baaf-e87acd153e95" d="M18.21,25.72a1,1,0,1,1,1-1,1,1,0,0,1-1,1Z"/>
    <path class="8aafded9-faa8-4fd9-a757-44b6fbe2f36f" d="M35.42,22.67a12.66,12.66,0,0,0-4.24-2,5.17,5.17,0,0,1-9.34-1.32A12.62,12.62,0,0,0,17,18.52a5.93,5.93,0,0,0,1.68,3,6.83,6.83,0,0,0-3.34,3.54,7.1,7.1,0,0,1-2.12.44.94.94,0,0,0-1,.94c.11,1.26.54,3.4,2.26,4a6.22,6.22,0,0,0,1.45.2,9.06,9.06,0,0,0,3.12,2.63,30.91,30.91,0,0,1-.83,3,.81.81,0,0,0,.73,1h3.2a.93.93,0,0,0,.72-.58,17.4,17.4,0,0,0,.65-1.87A18.7,18.7,0,0,0,30,34.72c-.14.48-.29,1.12-.46,1.61a.79.79,0,0,0,.73,1h3.2a.93.93,0,0,0,.72-.58,18.11,18.11,0,0,0,1.18-4.23,6.33,6.33,0,0,0,2.82-5,5.14,5.14,0,0,0-.29-1.7h0A8.14,8.14,0,0,0,35.42,22.67Z"/>
    <circle class="8aafded9-faa8-4fd9-a757-44b6fbe2f36f" cx="26.81" cy="17.86" r="3.18"/>
    <circle class="f6d5b23b-bc2e-44e5-baaf-e87acd153e95" cx="38.82" cy="26.65" r="0.93"/>
  </g>
</svg>
